<svg width="18" height="17" viewBox="0 0 18 17" fill="none" xmlns="http://www.w3.org/2000/svg">
<path fill-rule="evenodd" clip-rule="evenodd" d="M10.0431 0.543295C9.76045 -0.181098 8.73953 -0.181098 8.45696 0.543295L6.80802 4.77029C6.68688 5.08086 6.39698 5.2924 6.0654 5.31215L1.55261 5.58064C0.779216 5.62666 0.463749 6.60178 1.06247 7.09549L2.60816 8.37005C3.37831 9.00515 4.38239 9.27869 5.36655 9.12154L9.11135 8.52361C9.46041 8.46794 9.61511 8.94823 9.29966 9.10833L6.08871 10.7375C5.19624 11.1903 4.5405 12.0064 4.28832 12.978L3.6997 15.246C3.50432 15.999 4.33026 16.6015 4.98289 16.1823L8.79102 13.7359C9.07078 13.5561 9.4292 13.5561 9.70896 13.7359L13.5171 16.1823C14.1697 16.6015 14.9956 15.999 14.8003 15.246L13.6601 10.8531C13.5764 10.5304 13.6871 10.1881 13.9438 9.97653L17.4376 7.09549C18.0362 6.60178 17.7208 5.62666 16.9473 5.58064L12.4346 5.31215C12.103 5.2924 11.8131 5.08086 11.6919 4.77029L10.0431 0.543295Z" fill="#171717"/>
<path fill-rule="evenodd" clip-rule="evenodd" d="M10.0431 0.543295C9.76045 -0.181098 8.73953 -0.181098 8.45696 0.543295L6.80802 4.77029C6.68688 5.08086 6.39698 5.2924 6.0654 5.31215L1.55261 5.58064C0.779216 5.62666 0.463749 6.60178 1.06247 7.09549L2.60816 8.37005C3.37831 9.00515 4.38239 9.27869 5.36655 9.12154L9.11135 8.52361C9.46041 8.46794 9.61511 8.94823 9.29966 9.10833L6.08871 10.7375C5.19624 11.1903 4.5405 12.0064 4.28832 12.978L3.6997 15.246C3.50432 15.999 4.33026 16.6015 4.98289 16.1823L8.79102 13.7359C9.07078 13.5561 9.4292 13.5561 9.70896 13.7359L13.5171 16.1823C14.1697 16.6015 14.9956 15.999 14.8003 15.246L13.6601 10.8531C13.5764 10.5304 13.6871 10.1881 13.9438 9.97653L17.4376 7.09549C18.0362 6.60178 17.7208 5.62666 16.9473 5.58064L12.4346 5.31215C12.103 5.2924 11.8131 5.08086 11.6919 4.77029L10.0431 0.543295Z" fill="#171717"/>
<path fill-rule="evenodd" clip-rule="evenodd" d="M10.0431 0.543295C9.76045 -0.181098 8.73953 -0.181098 8.45696 0.543295L6.80802 4.77029C6.68688 5.08086 6.39698 5.2924 6.0654 5.31215L1.55261 5.58064C0.779216 5.62666 0.463749 6.60178 1.06247 7.09549L2.60816 8.37005C3.37831 9.00515 4.38239 9.27869 5.36655 9.12154L9.11135 8.52361C9.46041 8.46794 9.61511 8.94823 9.29966 9.10833L6.08871 10.7375C5.19624 11.1903 4.5405 12.0064 4.28832 12.978L3.6997 15.246C3.50432 15.999 4.33026 16.6015 4.98289 16.1823L8.79102 13.7359C9.07078 13.5561 9.4292 13.5561 9.70896 13.7359L13.5171 16.1823C14.1697 16.6015 14.9956 15.999 14.8003 15.246L13.6601 10.8531C13.5764 10.5304 13.6871 10.1881 13.9438 9.97653L17.4376 7.09549C18.0362 6.60178 17.7208 5.62666 16.9473 5.58064L12.4346 5.31215C12.103 5.2924 11.8131 5.08086 11.6919 4.77029L10.0431 0.543295Z" fill="#171717"/>
</svg>
