<svg width="24" height="24" viewBox="0 0 24 24" fill="none" xmlns="http://www.w3.org/2000/svg">
<path d="M15 11L12 8M12 8L9 11M12 8L12 16M16.8 4L7.2 4C6.07989 4 5.51984 4 5.09202 4.21799C4.71569 4.40974 4.40973 4.7157 4.21799 5.09202C4 5.51984 4 6.0799 4 7.2L4 16.8C4 17.9201 4 18.4802 4.21799 18.908C4.40973 19.2843 4.71569 19.5903 5.09202 19.782C5.51984 20 6.07989 20 7.2 20L16.8 20C17.9201 20 18.4802 20 18.908 19.782C19.2843 19.5903 19.5903 19.2843 19.782 18.908C20 18.4802 20 17.9201 20 16.8L20 7.2C20 6.07989 20 5.51984 19.782 5.09202C19.5903 4.71569 19.2843 4.40973 18.908 4.21799C18.4802 4 17.9201 4 16.8 4Z" stroke="#FFA521" stroke-linecap="round" stroke-linejoin="round"/>
</svg>
