<svg width="32" height="32" viewBox="0 0 32 32" fill="none" xmlns="http://www.w3.org/2000/svg">
<g filter="url(#filter0_bd_7047_18460)">
<rect x="6" y="1" width="20" height="20" rx="10" fill="white" fill-opacity="0.05" shape-rendering="crispEdges"/>
<rect x="5.5" y="0.5" width="21" height="21" rx="10.5" stroke="white" stroke-opacity="0.13" shape-rendering="crispEdges"/>
<path d="M15.3801 15V8.63636H16.6189V15H15.3801ZM16.0057 7.65447C15.7903 7.65447 15.6052 7.58266 15.4505 7.43904C15.2986 7.29265 15.2227 7.11865 15.2227 6.91702C15.2227 6.71263 15.2986 6.53863 15.4505 6.395C15.6052 6.24862 15.7903 6.17542 16.0057 6.17542C16.2211 6.17542 16.4048 6.24862 16.5567 6.395C16.7114 6.53863 16.7887 6.71263 16.7887 6.91702C16.7887 7.11865 16.7114 7.29265 16.5567 7.43904C16.4048 7.58266 16.2211 7.65447 16.0057 7.65447Z" fill="white"/>
</g>
<defs>
<filter id="filter0_bd_7047_18460" x="-57.5" y="-62.5" width="147" height="147" filterUnits="userSpaceOnUse" color-interpolation-filters="sRGB">
<feFlood flood-opacity="0" result="BackgroundImageFix"/>
<feGaussianBlur in="BackgroundImageFix" stdDeviation="31.25"/>
<feComposite in2="SourceAlpha" operator="in" result="effect1_backgroundBlur_7047_18460"/>
<feColorMatrix in="SourceAlpha" type="matrix" values="0 0 0 0 0 0 0 0 0 0 0 0 0 0 0 0 0 0 127 0" result="hardAlpha"/>
<feOffset dy="5"/>
<feGaussianBlur stdDeviation="2.5"/>
<feComposite in2="hardAlpha" operator="out"/>
<feColorMatrix type="matrix" values="0 0 0 0 0 0 0 0 0 0 0 0 0 0 0 0 0 0 0.2 0"/>
<feBlend mode="normal" in2="effect1_backgroundBlur_7047_18460" result="effect2_dropShadow_7047_18460"/>
<feBlend mode="normal" in="SourceGraphic" in2="effect2_dropShadow_7047_18460" result="shape"/>
</filter>
</defs>
</svg>
