<svg width="21" height="21" viewBox="0 0 21 21" fill="none" xmlns="http://www.w3.org/2000/svg">
<path fill-rule="evenodd" clip-rule="evenodd" d="M4.0408 15.5047V16.1108C4.0408 17.5873 5.23778 18.7843 6.71434 18.7843H14.6006C16.0772 18.7843 17.2742 17.5873 17.2742 16.1108V15.5047C17.2742 15.1837 17.4017 14.8759 17.6286 14.6489L18.718 13.5595C19.6092 12.6683 20.1099 11.4596 20.1099 10.1992V9.87656C20.1099 8.37075 19.303 6.98038 17.9956 6.23329L17.8735 6.16352C17.1771 5.76557 16.6259 5.15571 16.3001 4.42273L16.243 4.2943C15.4875 2.5944 13.5645 1.74622 11.7998 2.33448C11.0583 2.58164 10.2567 2.58164 9.51517 2.33448C7.7504 1.74622 5.82745 2.5944 5.07193 4.2943L5.01485 4.42274C4.68909 5.15571 4.13787 5.76557 3.44145 6.16352L3.31935 6.23329C2.01194 6.98038 1.20508 8.37075 1.20508 9.87656V10.1992C1.20508 11.4596 1.70575 12.6683 2.59695 13.5595L3.68633 14.6489C3.91329 14.8759 4.0408 15.1837 4.0408 15.5047ZM14.2798 6.51065C14.0515 7.58463 13.2446 8.32308 12.4775 8.16002C11.7103 7.99697 11.2735 6.99415 11.5018 5.92016C11.7301 4.84618 12.537 4.10773 13.3042 4.27079C14.0713 4.43385 14.5081 5.43667 14.2798 6.51065ZM8.8557 8.16069C9.62283 7.99764 10.0597 6.99482 9.83137 5.92083C9.60309 4.84685 8.79615 4.1084 8.02902 4.27146C7.26189 4.43452 6.82506 5.43734 7.05335 6.51132C7.28163 7.5853 8.08857 8.32375 8.8557 8.16069ZM12.1615 11.228C12.2868 11.3956 12.4092 11.5594 12.5482 11.6945C12.7083 11.8502 12.9481 11.9749 13.2036 12.1078C13.781 12.4082 14.4387 12.7503 14.4387 13.585C14.4387 14.3102 13.7668 15.0029 13.0209 15.0029C12.6812 15.0029 12.1428 14.8477 11.6514 14.7061C11.2386 14.5872 10.859 14.4777 10.6578 14.4777C10.4566 14.4777 10.0769 14.5872 9.66416 14.7061C9.17269 14.8477 8.63435 15.0029 8.29467 15.0029C7.54874 15.0029 6.87681 14.3102 6.87681 13.585C6.87681 12.7051 7.51835 12.3895 8.09392 12.1064C8.35339 11.9788 8.59945 11.8577 8.76729 11.6945C8.91281 11.5531 9.03874 11.3849 9.16619 11.2147C9.51177 10.7532 9.86855 10.2767 10.6578 10.2767C11.4502 10.2767 11.8166 10.7667 12.1615 11.228ZM15.0537 11.6928C15.7329 12.085 16.7285 11.632 17.2775 10.6812C17.8265 9.73028 17.721 8.64156 17.0418 8.24942C16.3626 7.85729 15.3669 8.31024 14.8179 9.26111C14.269 10.212 14.3745 11.3007 15.0537 11.6928ZM6.24953 11.6928C5.57033 12.085 4.57469 11.632 4.02571 10.6812C3.47672 9.73028 3.58227 8.64156 4.26147 8.24942C4.94067 7.85729 5.93631 8.31024 6.48529 9.26111C7.03428 10.212 6.92873 11.3007 6.24953 11.6928Z" fill="white" fill-opacity="0.05"/>
</svg>
