<svg width="20" height="17" viewBox="0 0 20 17" fill="none" xmlns="http://www.w3.org/2000/svg">
<path fill-rule="evenodd" clip-rule="evenodd" d="M3.0408 13.5047V14.1108C3.0408 15.5873 4.23778 16.7843 5.71434 16.7843H13.6006C15.0772 16.7843 16.2742 15.5873 16.2742 14.1108V13.5047C16.2742 13.1837 16.4017 12.8759 16.6286 12.6489L17.718 11.5595C18.6092 10.6683 19.1099 9.45959 19.1099 8.19923V7.87656C19.1099 6.37075 18.303 4.98038 16.9956 4.23329L16.8735 4.16352C16.1771 3.76557 15.6259 3.15571 15.3001 2.42273L15.243 2.2943C14.4875 0.5944 12.5645 -0.253777 10.7998 0.33448C10.0583 0.58164 9.25665 0.58164 8.51517 0.33448C6.7504 -0.253777 4.82745 0.594401 4.07193 2.2943L4.01485 2.42274C3.68909 3.15571 3.13787 3.76557 2.44145 4.16352L2.31935 4.23329C1.01194 4.98038 0.205078 6.37075 0.205078 7.87656V8.19923C0.205078 9.45958 0.705751 10.6683 1.59695 11.5595L2.68633 12.6489C2.91329 12.8759 3.0408 13.1837 3.0408 13.5047ZM13.2798 4.51065C13.0515 5.58463 12.2446 6.32308 11.4775 6.16002C10.7103 5.99697 10.2735 4.99415 10.5018 3.92016C10.7301 2.84618 11.537 2.10773 12.3042 2.27079C13.0713 2.43385 13.5081 3.43667 13.2798 4.51065ZM7.8557 6.16069C8.62283 5.99764 9.05965 4.99482 8.83137 3.92083C8.60309 2.84685 7.79615 2.1084 7.02902 2.27146C6.26189 2.43452 5.82506 3.43734 6.05335 4.51132C6.28163 5.5853 7.08857 6.32375 7.8557 6.16069ZM11.1615 9.22803C11.2868 9.39559 11.4092 9.55938 11.5482 9.69454C11.7083 9.85017 11.9481 9.9749 12.2036 10.1078C12.781 10.4082 13.4387 10.7503 13.4387 11.585C13.4387 12.3102 12.7668 13.0029 12.0209 13.0029C11.6812 13.0029 11.1428 12.8477 10.6514 12.7061C10.2386 12.5872 9.85895 12.4777 9.65777 12.4777C9.45658 12.4777 9.07689 12.5872 8.66416 12.7061C8.17269 12.8477 7.63435 13.0029 7.29467 13.0029C6.54874 13.0029 5.87681 12.3102 5.87681 11.585C5.87681 10.7051 6.51835 10.3895 7.09392 10.1064C7.35339 9.97875 7.59945 9.85771 7.76729 9.69454C7.91281 9.55305 8.03874 9.38488 8.16619 9.21468C8.51177 8.75316 8.86855 8.27668 9.65777 8.27668C10.4502 8.27668 10.8166 8.76668 11.1615 9.22803ZM14.0537 9.69285C14.7329 10.085 15.7285 9.63203 16.2775 8.68116C16.8265 7.73028 16.721 6.64156 16.0418 6.24942C15.3626 5.85729 14.3669 6.31024 13.8179 7.26111C13.269 8.21199 13.3745 9.30071 14.0537 9.69285ZM5.24953 9.69285C4.57033 10.085 3.57469 9.63203 3.02571 8.68116C2.47672 7.73028 2.58227 6.64156 3.26147 6.24942C3.94067 5.85729 4.93631 6.31024 5.48529 7.26111C6.03428 8.21199 5.92873 9.30071 5.24953 9.69285Z" fill="#FFA521"/>
</svg>
