<svg width="25" height="24" viewBox="0 0 25 24" fill="none" xmlns="http://www.w3.org/2000/svg">
<path d="M7.56268 18.3212C8.27194 18.7651 9.08762 19 9.91951 19H14.189C14.9856 19 15.7679 18.7842 16.456 18.3746C18.2511 17.3061 19.4936 15.4456 19.6631 12.6995L20.0984 5.66109C20.1001 5.64447 20.1001 5.62785 20.1001 5.61124C20.1001 5.36271 19.9845 5.17978 19.8411 5.08177C19.6927 4.98026 19.5223 4.96801 19.3569 5.07477L15.7551 7.40867C15.5102 7.56667 15.2001 7.57695 14.9461 7.43492C14.0562 6.93787 13.0701 6.65346 12.0671 6.65346C11.0642 6.65346 10.1017 6.93086 9.22022 7.41655C8.96654 7.55651 8.65858 7.54557 8.41505 7.38794L4.84397 5.07652C4.67864 4.96976 4.50825 4.98201 4.35979 5.08352C4.20626 5.18766 4.0848 5.38893 4.10167 5.66284L4.53693 12.7013C4.70648 15.4307 5.86549 17.2588 7.56268 18.3212Z" stroke="white"/>
</svg>
