<svg width="24" height="24" viewBox="0 0 24 24" fill="none" xmlns="http://www.w3.org/2000/svg">
<path d="M7.41791 9.14552L3.88057 10.0299C2.87062 10.2823 2.87062 11.7177 3.88057 11.9701L7.41791 12.8545C7.7762 12.944 8.05595 13.2238 8.14552 13.5821L9.02986 17.1194C9.28235 18.1294 10.7177 18.1294 10.9701 17.1194L11.8545 13.5821C11.944 13.2238 12.2238 12.944 12.5821 12.8545L16.1194 11.9701C17.1294 11.7177 17.1294 10.2823 16.1194 10.0299L12.5821 9.14552C12.2238 9.05595 11.944 8.7762 11.8545 8.41791L10.9701 4.88057C10.7177 3.87062 9.28235 3.87062 9.02986 4.88057L8.14552 8.41791C8.05595 8.7762 7.7762 9.05595 7.41791 9.14552Z" stroke="white" stroke-linecap="round"/>
<path d="M18.0931 18C18.5157 17.8489 18.8489 17.5157 19 17.0931C19.1511 17.5157 19.4843 17.8489 19.9069 18C19.4843 18.1511 19.1511 18.4843 19 18.9069C18.8489 18.4843 18.5157 18.1511 18.0931 18Z" stroke="white" stroke-width="2" stroke-linecap="round"/>
</svg>
