<svg width="24" height="24" viewBox="0 0 24 24" fill="none" xmlns="http://www.w3.org/2000/svg">
<path d="M3 9V21H21V9" stroke="white" stroke-linejoin="round"/>
<path d="M18.6667 3L19.0508 2.67991C18.9558 2.56591 18.8151 2.5 18.6667 2.5V3ZM5.33333 3V2.5C5.18494 2.5 5.04422 2.56591 4.94922 2.67991L5.33333 3ZM22 7H22.5C22.5 6.88303 22.459 6.76977 22.3841 6.67991L22 7ZM17.5 7.5C17.5 7.22386 17.2761 7 17 7C16.7239 7 16.5 7.22386 16.5 7.5H17.5ZM12.5 7.5C12.5 7.22386 12.2761 7 12 7C11.7239 7 11.5 7.22386 11.5 7.5H12.5ZM7.5 7.5C7.5 7.22386 7.27614 7 7 7C6.72386 7 6.5 7.22386 6.5 7.5H7.5ZM2 7L1.61589 6.67991C1.54101 6.76977 1.5 6.88303 1.5 7H2ZM18.6667 2.5H5.33333V3.5H18.6667V2.5ZM22.3841 6.67991L19.0508 2.67991L18.2826 3.32009L21.6159 7.32009L22.3841 6.67991ZM21.5 7V7.5H22.5V7H21.5ZM21.5 7.5C21.5 8.60457 20.6046 9.5 19.5 9.5V10.5C21.1569 10.5 22.5 9.15685 22.5 7.5H21.5ZM19.5 9.5C18.3954 9.5 17.5 8.60457 17.5 7.5H16.5C16.5 9.15685 17.8431 10.5 19.5 10.5V9.5ZM14.5 10.5C16.1569 10.5 17.5 9.15685 17.5 7.5H16.5C16.5 8.60457 15.6046 9.5 14.5 9.5V10.5ZM11.5 7.5C11.5 9.15685 12.8431 10.5 14.5 10.5V9.5C13.3954 9.5 12.5 8.60457 12.5 7.5H11.5ZM9.5 10.5C11.1569 10.5 12.5 9.15685 12.5 7.5H11.5C11.5 8.60457 10.6046 9.5 9.5 9.5V10.5ZM6.5 7.5C6.5 9.15685 7.84315 10.5 9.5 10.5V9.5C8.39543 9.5 7.5 8.60457 7.5 7.5H6.5ZM4.5 10.5C6.15685 10.5 7.5 9.15685 7.5 7.5H6.5C6.5 8.60457 5.60457 9.5 4.5 9.5V10.5ZM1.5 7.5C1.5 9.15685 2.84315 10.5 4.5 10.5V9.5C3.39543 9.5 2.5 8.60457 2.5 7.5H1.5ZM1.5 7V7.5H2.5V7H1.5ZM4.94922 2.67991L1.61589 6.67991L2.38411 7.32009L5.71744 3.32009L4.94922 2.67991Z" fill="white"/>
</svg>
