<svg width="24" height="24" viewBox="0 0 24 24" fill="none" xmlns="http://www.w3.org/2000/svg">
<path d="M10.0941 9.76021C10.9056 9.5877 11.3678 8.52679 11.1262 7.39059C10.8847 6.25438 10.0311 5.47316 9.21948 5.64566C8.40791 5.81816 7.94578 6.87908 8.18729 8.01528C8.42879 9.15148 9.28248 9.93271 10.0941 9.76021Z" fill="white"/>
<path d="M13.925 9.76088C14.7366 9.93338 15.5902 9.15215 15.8318 8.01595C16.0733 6.87975 15.6111 5.81884 14.7996 5.64633C13.988 5.47383 13.1343 6.25506 12.8928 7.39126C12.6513 8.52746 13.1134 9.58837 13.925 9.76088Z" fill="white"/>
<path d="M16.6509 13.4966C17.3695 13.9115 18.4228 13.4323 19.0036 12.4263C19.5844 11.4203 19.4727 10.2685 18.7542 9.85369C18.0356 9.43884 16.9823 9.91803 16.4015 10.924C15.8207 11.93 15.9324 13.0818 16.6509 13.4966Z" fill="white"/>
<path d="M7.33686 13.4966C6.61832 13.9115 5.565 13.4323 4.98421 12.4263C4.40342 11.4203 4.51509 10.2685 5.23363 9.85369C5.95217 9.43884 7.00549 9.91803 7.58629 10.924C8.16708 11.93 8.05541 13.0818 7.33686 13.4966Z" fill="white"/>
<path d="M14 13.5C13.448 12.9633 13.1429 12 12 12C10.8571 12 10.5714 12.9444 10 13.5C9.42857 14.0556 8 14.1494 8 15.5C8 16.2672 8.71086 17 9.5 17C10.1611 17 11.5337 16.4444 12 16.4444C12.4663 16.4444 13.8389 17 14.5 17C15.2891 17 16 16.2672 16 15.5C16 14.2261 14.552 14.0367 14 13.5Z" fill="white"/>
<path d="M5 19V17.5303C5 17.1908 4.86511 16.8651 4.625 16.625L3.47251 15.4725C2.52968 14.5297 2 13.2509 2 11.9176V11.5762C2 9.98314 2.8536 8.51223 4.23676 7.72185L4.36593 7.64804C5.10269 7.22703 5.68585 6.58184 6.03049 5.80641L6.09087 5.67053C6.89015 3.87215 8.92451 2.97484 10.7915 3.59717C11.576 3.85865 12.424 3.85865 13.2085 3.59717C15.0755 2.97484 17.1098 3.87215 17.9091 5.67053L17.9695 5.80641C18.3142 6.58184 18.8973 7.22703 19.6341 7.64804L19.7632 7.72185C21.1464 8.51223 22 9.98314 22 11.5762V11.9176C22 13.2509 21.4703 14.5297 20.5275 15.4725L19.375 16.625C19.1349 16.8651 19 17.1908 19 17.5303V19C19 20.1046 18.1046 21 17 21H7C5.89543 21 5 20.1046 5 19Z" stroke="white" stroke-linejoin="round"/>
</svg>
