<svg width="24" height="24" viewBox="0 0 24 24" fill="none" xmlns="http://www.w3.org/2000/svg">
<g clip-path="url(#clip0_7047_11982)">
<path d="M8.62456 11.7242L12.8672 15.9668L14.2815 20.2095C14.2815 20.2095 19.2312 16.6739 17.2008 13.2293C19.7226 11.1119 21.597 8.08342 22.0596 2.53176C16.508 2.99442 13.4796 4.8688 11.3621 7.39065C7.91744 5.36018 4.38196 10.31 4.38196 10.31L8.62456 11.7242Z" stroke="white" stroke-linecap="round" stroke-linejoin="round"/>
<circle cx="14.9888" cy="9.60254" r="2" fill="white"/>
<path d="M4.99733 20.8701C3.12907 21.1227 2.28079 22.6944 1.99679 23.3747C1.96 23.4648 1.82909 23.4535 1.81207 23.3586C1.70568 22.77 1.56121 21.4908 2.02823 20.3608C2.6589 18.8325 3.2193 18.3361 4.13034 17.9565C4.67913 17.7277 4.57587 17.4595 4.49706 17.3516C4.42091 17.2465 4.27574 17.2246 4.14474 17.2223C3.76525 17.2183 3.39007 17.3202 3.06133 17.5165C2.99092 17.5585 2.90352 17.5019 2.91687 17.4228C3.01879 16.8232 3.45277 16.1315 3.84444 15.7274C5.05481 14.4779 7.04803 14.4772 8.25311 15.6823C9.77189 17.201 9.16531 20.0205 6.86057 20.5798C6.19037 20.7435 5.67939 20.7781 4.99733 20.8701Z" fill="white"/>
</g>
<defs>
<clipPath id="clip0_7047_11982">
<rect width="24" height="24" fill="white"/>
</clipPath>
</defs>
</svg>
