<svg width="10" height="10" viewBox="0 0 10 10" fill="none" xmlns="http://www.w3.org/2000/svg">
<rect x="0.5" y="0.5" width="9" height="9" rx="4.5" stroke="white"/>
<path d="M5.47651 2L5.40104 6.23487H4.59703L4.52156 2H5.47651ZM5.00049 7.99964C4.83988 7.99964 4.70249 7.94353 4.58832 7.8313C4.47415 7.71713 4.41804 7.57974 4.41997 7.41913C4.41804 7.26045 4.47415 7.125 4.58832 7.01277C4.70249 6.8986 4.83988 6.84151 5.00049 6.84151C5.15723 6.84151 5.29268 6.8986 5.40685 7.01277C5.52102 7.125 5.57907 7.26045 5.581 7.41913C5.57907 7.52556 5.55101 7.62328 5.49683 7.71229C5.44458 7.79937 5.37492 7.86903 5.28784 7.92128C5.20077 7.97352 5.10498 7.99964 5.00049 7.99964Z" fill="white"/>
</svg>
