<svg width="36" height="36" viewBox="0 0 36 36" fill="none" xmlns="http://www.w3.org/2000/svg">
<path d="M7.02741 26V23.5611C7.02741 23.0288 6.81596 22.5183 6.43957 22.1419L4.63297 20.3353C3.15501 18.8573 2.32471 16.8528 2.32471 14.7627V14.2275C2.32471 11.7303 3.66279 9.42457 5.83098 8.18561L6.03346 8.0699C7.18839 7.40994 8.10252 6.39856 8.64277 5.18302L8.73743 4.97002C9.99035 2.15094 13.1794 0.744341 16.106 1.71989C17.3357 2.12978 18.6651 2.12978 19.8948 1.71989C22.8214 0.744341 26.0104 2.15094 27.2633 4.97002L27.358 5.18302C27.8982 6.39856 28.8124 7.40994 29.9673 8.0699L30.1698 8.18561C32.338 9.42457 33.6761 11.7303 33.6761 14.2275V14.7627C33.6761 16.8528 32.8458 18.8573 31.3678 20.3353L29.5612 22.1419C29.1848 22.5183 28.9734 23.0288 28.9734 23.5611V26C28.9734 27.6569 27.6302 29 25.9734 29H10.0274C8.37056 29 7.02741 27.6569 7.02741 26Z" fill="white"/>
<path d="M21.1359 17.243C20.2706 16.4017 19.7922 14.8916 18.0007 14.8916C16.2092 14.8916 15.7614 16.3721 14.8656 17.243C13.9699 18.1138 11.7305 18.261 11.7305 20.3781C11.7305 21.5808 12.8448 22.7294 14.0818 22.7294C15.1182 22.7294 17.2698 21.8586 18.0007 21.8586C18.7317 21.8586 20.8833 22.7294 21.9197 22.7294C23.1567 22.7294 24.271 21.5808 24.271 20.3781C24.271 18.3812 22.0012 18.0842 21.1359 17.243Z" fill="#171717"/>
<path d="M15.0124 11.3821C16.2845 11.1117 17.009 9.44861 16.6304 7.66754C16.2518 5.88647 14.9136 4.66184 13.6414 4.93225C12.3692 5.20266 11.6448 6.86572 12.0234 8.64679C12.4019 10.4279 13.7402 11.6525 15.0124 11.3821Z" fill="#171717"/>
<path d="M21.0185 11.3818C22.2907 11.6523 23.6289 10.4276 24.0075 8.64655C24.3861 6.86548 23.6616 5.20242 22.3894 4.93201C21.1173 4.6616 19.779 5.88623 19.4005 7.6673C19.0219 9.44837 19.7463 11.1114 21.0185 11.3818Z" fill="#171717"/>
<path d="M25.2908 17.2396C26.4172 17.8899 28.0684 17.1387 28.9788 15.5618C29.8892 13.9849 29.7142 12.1794 28.5878 11.529C27.4614 10.8787 25.8103 11.6299 24.8999 13.2068C23.9894 14.7837 24.1645 16.5892 25.2908 17.2396Z" fill="#171717"/>
<path d="M10.6901 17.2396C9.56375 17.8899 7.9126 17.1387 7.00217 15.5618C6.09174 13.9849 6.26679 12.1794 7.39315 11.529C8.51952 10.8787 10.1707 11.6299 11.0811 13.2068C11.9915 14.7837 11.8165 16.5892 10.6901 17.2396Z" fill="#171717"/>
</svg>
