<svg width="25" height="24" viewBox="0 0 25 24" fill="none" xmlns="http://www.w3.org/2000/svg">
<path d="M9.7002 3.49169C9.7002 3.08763 10.0915 2.79908 10.4775 2.91848L15.2775 4.40327C15.5288 4.48101 15.7002 4.7134 15.7002 4.97647V19.5H9.7002V3.49169Z" stroke="white"/>
<path d="M7.8999 9.99322C7.8999 9.2329 7.14696 8.70185 6.43073 8.95702L4.63073 9.59832C4.19252 9.75444 3.8999 10.1693 3.8999 10.6345V19.4336H7.8999V9.99322Z" stroke="white"/>
<path d="M17.5 12.1338C17.5 11.3735 18.2529 10.8425 18.9692 11.0976L20.7692 11.7389C21.2074 11.8951 21.5 12.31 21.5 12.7751V19.4327H17.5L17.5 12.1338Z" stroke="white"/>
<rect x="2" y="19.5" width="21" height="2.3" rx="0.6" stroke="white"/>
</svg>
