<svg width="24" height="24" viewBox="0 0 24 24" fill="none" xmlns="http://www.w3.org/2000/svg">
<path d="M17.3503 15.5135H22.9999C22.8539 14.6365 22.3132 13.894 21.5677 13.4763L20.8273 13.0612L21.5647 12.641C22.0958 12.3383 22.4683 11.8127 22.52 11.0115L22.637 9.19923C22.6465 9.04762 22.4814 8.94823 22.3524 9.02855L21.5491 9.52654L21.3137 9.67262L21.0692 9.5421C20.8017 9.39903 20.513 9.31921 20.2153 9.31921C19.9176 9.31921 19.636 9.39702 19.3709 9.53708L19.1275 9.6656L18.8935 9.52052L18.1008 9.02855C17.9718 8.94873 17.8062 9.04762 17.8157 9.19923L17.9327 11.0115C17.9844 11.8132 18.3338 12.3272 18.8318 12.6259L19.5522 13.0577L18.8142 13.4588C18.0522 13.8734 17.4984 14.6244 17.3503 15.5135Z" stroke="white" stroke-width="0.916667"/>
<path d="M1.00073 15.5135H6.65033C6.50425 14.6365 5.96359 13.894 5.21811 13.4763L4.47764 13.0612L5.21509 12.641C5.74622 12.3383 6.11871 11.8127 6.17041 11.0115L6.28738 9.19923C6.29692 9.04762 6.13176 8.94823 6.00274 9.02855L5.19953 9.52654L4.96409 9.67262L4.71961 9.5421C4.45204 9.39903 4.16339 9.31921 3.8657 9.31921C3.56801 9.31921 3.28638 9.39702 3.02132 9.53708L2.77784 9.6656L2.54391 9.52052L1.75124 9.02855C1.62222 8.94873 1.45656 9.04762 1.46609 9.19923L1.58307 11.0115C1.63477 11.8132 1.98417 12.3272 2.48216 12.6259L3.20254 13.0577L2.46459 13.4588C1.70254 13.8734 1.14882 14.6244 1.00073 15.5135Z" stroke="white" stroke-width="0.916667"/>
<path d="M7.25196 16.5298V16.5288L7.57424 16.0444C8.05366 15.3978 8.66762 14.8602 9.37394 14.4736L10.1064 14.073L9.39151 13.6418C8.38147 13.0323 7.69171 11.9837 7.59081 10.4179L7.33178 6.38024C7.32174 6.22311 7.39402 6.10765 7.48539 6.04791C7.57374 5.98968 7.67515 5.98265 7.77354 6.0439L9.89854 7.3697L10.1335 7.51629L10.378 7.38627C10.9026 7.10765 11.4753 6.94851 12.0722 6.94851C12.6691 6.94851 13.256 7.11167 13.7856 7.39681L14.0306 7.52884L14.267 7.38175L16.4106 6.04289C16.509 5.98165 16.6104 5.98867 16.6987 6.04691C16.7841 6.10313 16.8529 6.20805 16.8529 6.35062C16.8529 6.36016 16.8529 6.3697 16.8519 6.37924L16.5928 10.4169C16.4919 11.9922 15.7525 13.0595 14.6842 13.6724L14.3308 13.8752L13.9518 14.0926L14.6872 14.5072C14.8945 14.6242 15.0938 14.7542 15.2841 14.8963C15.761 15.2532 16.1792 15.6855 16.5215 16.1769L16.645 16.3541L16.754 16.5399C17.1691 17.2452 17.4347 18.0504 17.5075 18.9129H6.49292C6.56571 18.0489 6.83228 17.2422 7.24844 16.5364C7.24945 16.5344 7.25095 16.5323 7.25246 16.5298H7.25196Z" stroke="white" stroke-width="0.916667"/>
</svg>
