<svg width="24" height="24" viewBox="0 0 24 24" fill="none" xmlns="http://www.w3.org/2000/svg">
<path d="M9.70165 2C8.46522 2 7.46288 3.01269 7.46288 4.2619V13.2774C6.42208 12.2258 4.97209 11.2997 3.65572 12.6297C2.78143 13.513 2.78143 14.9452 3.65572 15.8285C5.08792 17.2755 7.34422 21 9.70165 21H14.1792C15.4156 21 16.8829 21 18.209 18.7381C19.5351 16.4762 20 13.9269 20 12.5C20 11.0731 18.6424 9.98807 17.2786 10.2908C17.0358 8.91493 15.5557 8.08554 14.2798 8.57531C13.7869 7.79074 12.8978 7.31586 12 7.5V4.2619C12 3.01269 10.9381 2 9.70165 2Z" stroke="white" stroke-width="2" stroke-linejoin="round"/>
<path d="M11.5 7V11" stroke="white" stroke-linecap="round" stroke-linejoin="round"/>
<path d="M14.5 8V12" stroke="white" stroke-linecap="round" stroke-linejoin="round"/>
<path d="M17.5 10L17 13" stroke="white" stroke-linecap="round" stroke-linejoin="round"/>
</svg>
