<svg width="25" height="24" viewBox="0 0 25 24" fill="none" xmlns="http://www.w3.org/2000/svg">
<path d="M4.75289 18.94V18.9383L5.31265 18.1129C6.14532 17.0113 7.21166 16.0953 8.43842 15.4367L9.71053 14.7542L8.46894 14.0195C6.71467 12.9812 5.51668 11.1945 5.34142 8.52688L4.89152 1.64783C4.87408 1.38012 4.99964 1.18341 5.15832 1.08163C5.31178 0.982416 5.4879 0.970442 5.6588 1.07479L9.34956 3.33359L9.75761 3.58334L10.1822 3.36182C11.0934 2.88713 12.0882 2.61601 13.1249 2.61601C14.1616 2.61601 15.1809 2.89398 16.1007 3.37978L16.5262 3.60472L16.9369 3.35412L20.6599 1.07308C20.8308 0.968731 21.0069 0.980705 21.1604 1.07992C21.3086 1.17571 21.428 1.35446 21.428 1.59736C21.428 1.61362 21.428 1.62987 21.4263 1.64612L20.9764 8.52517C20.8011 11.2091 19.5168 13.0274 17.6614 14.0717L17.0476 14.4172L16.3893 14.7876L17.6667 15.494C18.0267 15.6933 18.3729 15.9148 18.7033 16.1569C19.5317 16.765 20.2579 17.5014 20.8526 18.3387L21.0671 18.6406L21.2563 18.9571C21.9773 20.1587 22.4386 21.5306 22.565 23H3.43457C3.561 21.5281 4.02398 20.1536 4.74679 18.9511C4.74853 18.9477 4.75114 18.9442 4.75376 18.94H4.75289Z" stroke="white"/>
</svg>
