<svg width="25" height="24" viewBox="0 0 25 24" fill="none" xmlns="http://www.w3.org/2000/svg">
<rect x="9.59985" y="11.5" width="5" height="10" rx="1.5" stroke="white"/>
<rect x="16.5999" y="15.5" width="5" height="6" rx="1.5" stroke="white"/>
<rect x="2.59985" y="14.5" width="5" height="7" rx="1.5" stroke="white"/>
<path d="M9.63637 3.92545C9.75284 4.00647 9.91001 3.99545 10.014 3.89897L11.8945 2.15476C12.0103 2.04737 12.1893 2.04737 12.305 2.15476L14.1855 3.89897C14.2895 3.99545 14.4467 4.00647 14.5632 3.92545L16.0076 2.92062C16.2314 2.76497 16.5305 2.96214 16.4757 3.22914L15.5452 7.76033C15.5163 7.90071 15.3928 8.00146 15.2495 8.00146H8.95007C8.80676 8.00146 8.68321 7.90071 8.65438 7.76033L7.72387 3.22914C7.66904 2.96214 7.96818 2.76497 8.19193 2.92062L9.63637 3.92545Z" stroke="white"/>
</svg>
