<svg width="12" height="12" viewBox="0 0 12 12" fill="none" xmlns="http://www.w3.org/2000/svg">
<circle cx="6" cy="6" r="5.5" stroke="#EC3147"/>
<path d="M6.50556 2.35938L6.41323 7.54048H5.42957L5.33724 2.35938H6.50556ZM5.92318 9.69957C5.72668 9.69957 5.55859 9.63092 5.41892 9.49361C5.27924 9.35393 5.21058 9.18584 5.21295 8.98935C5.21058 8.79522 5.27924 8.6295 5.41892 8.49219C5.55859 8.35251 5.72668 8.28267 5.92318 8.28267C6.11494 8.28267 6.28066 8.35251 6.42034 8.49219C6.56001 8.6295 6.63104 8.79522 6.6334 8.98935C6.63104 9.11956 6.59671 9.23911 6.53042 9.34801C6.4665 9.45455 6.38127 9.53977 6.27474 9.60369C6.16821 9.66761 6.05102 9.69957 5.92318 9.69957Z" fill="#EC3147"/>
</svg>
