<svg width="24" height="24" viewBox="0 0 24 24" fill="none" xmlns="http://www.w3.org/2000/svg">
<rect x="5" y="8" width="14" height="12" rx="2" stroke="white"/>
<path d="M8 5C8 2.79086 9.79086 1 12 1V1C14.2091 1 16 2.79086 16 5V8H8V5Z" stroke="white"/>
<mask id="path-3-inside-1_7047_12001" fill="white">
<path fill-rule="evenodd" clip-rule="evenodd" d="M13 14.7324C13.5978 14.3866 14 13.7403 14 13C14 11.8954 13.1046 11 12 11C10.8954 11 10 11.8954 10 13C10 13.7403 10.4022 14.3866 11 14.7324V16C11 16.5523 11.4477 17 12 17C12.5523 17 13 16.5523 13 16V14.7324Z"/>
</mask>
<path d="M13 14.7324L11.9985 13.0012L11 13.5789V14.7324H13ZM11 14.7324H13V13.5789L12.0015 13.0012L11 14.7324ZM12 13C12 13.0032 11.9997 13.0031 12.0002 13.0012C12.0006 12.9997 12.0011 12.9987 12.0012 12.9985C12.0012 12.9985 12.0008 12.9992 12 13C11.9991 13.0009 11.9985 13.0013 11.9985 13.0012L14.0015 16.4636C15.1918 15.775 16 14.4831 16 13H12ZM12 13H16C16 10.7909 14.2091 9 12 9V13ZM12 13V9C9.79086 9 8 10.7909 8 13H12ZM12.0015 13.0012C12.0015 13.0013 12.0009 13.0009 12 13C11.9992 12.9992 11.9988 12.9985 11.9988 12.9985C11.9989 12.9987 11.9994 12.9997 11.9998 13.0012C12.0003 13.0031 12 13.0032 12 13H8C8 14.4831 8.80816 15.775 9.99855 16.4636L12.0015 13.0012ZM13 16V14.7324H9V16H13ZM12 15C12.5523 15 13 15.4477 13 16H9C9 17.6569 10.3431 19 12 19V15ZM11 16C11 15.4477 11.4477 15 12 15V19C13.6569 19 15 17.6569 15 16H11ZM11 14.7324V16H15V14.7324H11Z" fill="white" mask="url(#path-3-inside-1_7047_12001)"/>
</svg>
