<svg width="113" height="21" viewBox="0 0 113 21" fill="none" xmlns="http://www.w3.org/2000/svg">
<path fill-rule="evenodd" clip-rule="evenodd" d="M7.70749 5.98438C3.7269 5.98438 0.5 9.12478 0.5 12.9987C0.5 16.8725 3.7269 20.0129 7.70749 20.0129H19.8161C23.7966 20.0129 27.0235 16.8725 27.0235 12.9987C27.0235 9.12478 23.7966 5.98438 19.8161 5.98438H7.70749ZM15.7791 7.61667C12.7538 7.61667 10.3014 10.0258 10.3014 12.9975C10.3014 15.9692 12.7538 18.3783 15.7791 18.3783H19.2387C22.2639 18.3783 24.7163 15.9692 24.7163 12.9975C24.7163 10.0258 22.2639 7.61667 19.2387 7.61667H15.7791Z" fill="white"/>
<path d="M38.8478 9.54203C38.4513 9.69877 38.0913 9.93576 37.7905 10.2381C37.4793 10.5869 37.2309 10.987 37.0566 11.4206C36.8615 11.9278 36.7675 12.4682 36.78 13.0114C36.7619 13.5544 36.8506 14.0957 37.041 14.6045C37.2094 15.0413 37.4542 15.4446 37.7638 15.7959C38.0678 16.112 38.4338 16.3619 38.839 16.5299C39.2597 16.6951 39.7077 16.7799 40.1595 16.7798C40.5647 16.7848 40.9673 16.7136 41.3463 16.5701C41.6807 16.4553 41.9923 16.2832 42.2676 16.0614C42.5102 15.8588 42.7129 15.6129 42.8654 15.3363C42.9485 15.1998 43.0231 15.0582 43.0885 14.9124C43.1313 14.8172 43.2082 14.7415 43.304 14.7002C43.3997 14.6589 43.5074 14.655 43.606 14.6892L45.9952 15.4991C46.1002 15.5343 46.1874 15.6097 46.2371 15.7087C46.2868 15.8078 46.2954 15.9226 46.2606 16.0279C46.1121 16.4555 45.9128 16.8637 45.6672 17.2439C45.3136 17.7862 44.8734 18.2671 44.3645 18.6674C43.813 19.1142 43.1911 19.4663 42.5241 19.7093C41.7566 19.9662 40.9509 20.0907 40.1418 20.0774C39.208 20.0861 38.283 19.8952 37.4292 19.5174C36.5941 19.1837 35.8352 18.6843 35.1983 18.0493C34.5595 17.4065 34.055 16.6427 33.715 15.8026C33.3557 14.9102 33.1776 13.9554 33.1906 12.9936C33.189 12.0228 33.377 11.061 33.7439 10.1623C34.0734 9.33308 34.568 8.57954 35.1977 7.94746C35.8273 7.31537 36.5788 6.81793 37.4068 6.48538C38.2636 6.13806 39.1817 5.96805 40.106 5.98561C40.9307 5.98341 41.7506 6.11528 42.533 6.37607C43.1916 6.62686 43.8083 6.97587 44.3622 7.41131C44.8662 7.80965 45.2934 8.29656 45.6227 8.84814C45.8617 9.24189 46.0561 9.66093 46.2026 10.0976C46.2364 10.2026 46.2273 10.3167 46.1771 10.415C46.1269 10.5133 46.0398 10.5877 45.9349 10.6219L43.4812 11.4296C43.3789 11.4625 43.268 11.4553 43.171 11.4092C43.074 11.3632 42.9983 11.2819 42.9591 11.1819C42.7785 10.7459 42.5131 10.35 42.1784 10.0173C41.7322 9.55541 41.0497 9.30999 40.1595 9.30553C39.7113 9.3013 39.2664 9.38151 38.8478 9.54203Z" fill="white"/>
<path d="M47.2964 19.2879L47.3923 0.591055C47.3925 0.535973 47.4037 0.481485 47.425 0.430708C47.4463 0.379929 47.4774 0.333852 47.5166 0.295109C47.5558 0.256368 47.6022 0.225715 47.6532 0.204908C47.7041 0.184099 47.7587 0.17354 47.8138 0.173834L50.5644 0.187221C50.6752 0.18897 50.781 0.2341 50.8589 0.312928C50.9369 0.391759 50.981 0.498012 50.9814 0.608906L50.9503 6.59949C50.9494 6.67572 50.9694 6.75076 51.0081 6.81644C51.0466 6.88212 51.1026 6.93592 51.1698 6.97203C51.237 7.00814 51.3127 7.02516 51.3889 7.02122C51.4651 7.0173 51.5385 6.99259 51.6017 6.94979C51.9059 6.73423 52.2424 6.56854 52.5987 6.45893C53.2226 6.23354 53.8807 6.11805 54.544 6.11758C55.3042 6.10082 56.0584 6.25323 56.7524 6.56379C57.3422 6.81232 57.8666 7.19339 58.2852 7.67746C58.7039 8.1615 59.0052 8.73553 59.1662 9.35493C59.36 10.0218 59.457 10.7131 59.4538 11.4076L59.4115 19.3527C59.4115 19.4076 59.4008 19.4621 59.3795 19.5128C59.3584 19.5636 59.3275 19.6097 59.2885 19.6485C59.2496 19.6872 59.2034 19.7179 59.1526 19.7388C59.1015 19.7596 59.0471 19.7702 58.9922 19.7699L56.2417 19.7565C56.1866 19.7562 56.1321 19.7451 56.0813 19.7237C56.0304 19.7024 55.9845 19.6712 55.9458 19.632C55.907 19.5929 55.8763 19.5465 55.8555 19.4955C55.8347 19.4445 55.8241 19.3899 55.8246 19.3348L55.8624 12.01C55.888 11.3354 55.6922 10.6709 55.3047 10.118C54.9033 9.60259 54.283 9.35717 53.4197 9.35272C53.0848 9.33267 52.7499 9.38961 52.4406 9.51917C52.1312 9.64874 51.8557 9.84747 51.6351 10.1001C51.1891 10.6064 50.9375 11.2549 50.9257 11.9297L50.8878 19.3102C50.8867 19.4213 50.8417 19.5274 50.7628 19.6055C50.6837 19.6837 50.5773 19.7275 50.4662 19.7275L47.7135 19.7096C47.6584 19.7093 47.604 19.6982 47.5531 19.6768C47.5023 19.6555 47.4563 19.6244 47.4176 19.5852C47.3788 19.5461 47.3481 19.4996 47.3273 19.4486C47.3065 19.3976 47.296 19.343 47.2964 19.2879Z" fill="white"/>
<path d="M70.5119 6.71982C71.3358 7.06106 72.0851 7.55974 72.7181 8.1879C73.3446 8.83314 73.8361 9.59698 74.1636 10.4347C74.5115 11.3388 74.6804 12.3019 74.6611 13.2704C74.6741 14.231 74.4951 15.1845 74.1347 16.075C73.7996 16.9099 73.2996 17.6688 72.6646 18.3061C71.6418 19.2643 70.3648 19.9077 68.9863 20.1593C67.6075 20.411 66.1858 20.2602 64.8904 19.7251C64.0672 19.3828 63.3188 18.8834 62.6864 18.2548C62.0579 17.6111 61.5662 16.8468 61.241 16.008C60.8886 15.1144 60.7188 14.1593 60.7412 13.199C60.7318 12.2306 60.9115 11.2696 61.2699 10.3699C61.6038 9.53491 62.1031 8.77599 62.7377 8.13882C63.3761 7.51648 64.1301 7.02529 64.9574 6.69305C66.7503 6.01955 68.7284 6.02987 70.5142 6.72204L70.5119 6.71982ZM68.9504 16.7755C69.3615 16.6201 69.7315 16.3728 70.0323 16.0527C70.3504 15.7189 70.6006 15.3264 70.7684 14.8969C70.9743 14.3733 71.0771 13.8151 71.0719 13.2526C71.0838 12.6902 70.9861 12.1309 70.7841 11.606C70.621 11.1746 70.3755 10.779 70.0612 10.4414C69.7629 10.1188 69.3953 9.86787 68.986 9.7073C68.174 9.37932 67.2675 9.37453 66.4519 9.69391C66.0424 9.85216 65.6731 10.099 65.37 10.4168C65.0515 10.7505 64.8019 11.1441 64.6362 11.5748C64.2347 12.6339 64.2285 13.8022 64.6182 14.8657C64.7809 15.2964 65.0248 15.6918 65.3366 16.0303C65.6363 16.3515 66.0037 16.6022 66.4118 16.7644C67.2252 17.0907 68.1321 17.0946 68.9482 16.7755H68.9504Z" fill="white"/>
<path d="M75.8819 0.640837C76.0842 0.432498 76.3272 0.268108 76.596 0.157934C76.8646 0.04776 77.1531 -0.0058324 77.4434 0.000502784C77.7389 -0.00391435 78.0321 0.051978 78.3051 0.164763C78.5782 0.277547 78.8255 0.444854 79.0318 0.656455C79.4361 1.08788 79.6554 1.6605 79.6429 2.25172C79.6447 2.54249 79.5876 2.8306 79.4753 3.0988C79.3631 3.36702 79.1978 3.60984 78.9897 3.81271C78.7814 4.01559 78.5343 4.17439 78.2633 4.27955C77.9922 4.38472 77.7028 4.43414 77.4123 4.42484C77.1208 4.42946 76.8319 4.37375 76.5631 4.26125C76.2943 4.14876 76.0519 3.98188 75.8508 3.77112C75.6476 3.57034 75.4874 3.33033 75.3799 3.06565C75.2726 2.80099 75.2202 2.5172 75.226 2.23163C75.2211 1.93575 75.2766 1.64198 75.3895 1.36839C75.5022 1.09481 75.6698 0.847214 75.8819 0.640837ZM76.0537 6.57788L78.8042 6.59127C78.8593 6.59156 78.9138 6.60269 78.9644 6.62404C79.0152 6.64539 79.0614 6.67655 79.1001 6.7157C79.1389 6.75486 79.1693 6.80125 79.1902 6.85225C79.211 6.90326 79.2215 6.95787 79.2213 7.01295L79.1566 19.4493C79.1543 19.5592 79.1086 19.6637 79.0298 19.7401C78.9507 19.8166 78.845 19.8588 78.735 19.8576H75.9867C75.9316 19.857 75.877 19.8455 75.8263 19.8237C75.7757 19.8019 75.7298 19.7703 75.6915 19.7306C75.653 19.691 75.623 19.6442 75.6028 19.5928C75.5826 19.5414 75.5728 19.4866 75.5741 19.4314L75.6364 6.9951C75.6371 6.88462 75.6812 6.77885 75.7594 6.70072C75.8375 6.62261 75.9433 6.57846 76.0537 6.57788Z" fill="white"/>
<path d="M84.0001 16.9212C84.404 17.3273 84.9951 17.5459 85.7847 17.5504C86.2538 17.5823 86.719 17.4498 87.101 17.1756C87.2392 17.0605 87.3507 16.9166 87.4278 16.754C87.5048 16.5914 87.5456 16.4139 87.5469 16.234C87.5494 16.0884 87.5225 15.9437 87.4677 15.8088C87.4128 15.6739 87.3312 15.5514 87.228 15.4487C87.0049 15.2055 86.6368 15.0404 86.1239 14.931L84.3637 14.5205C83.0698 14.2171 82.1331 13.7285 81.5374 13.0234C80.9571 12.3258 80.6459 11.4431 80.6607 10.5357C80.6632 9.95687 80.7951 9.38591 81.0467 8.86459C81.2879 8.3314 81.6508 7.86221 82.1062 7.49469C82.5614 7.08436 83.0916 6.76615 83.6677 6.5576C84.2958 6.31653 84.9649 6.20057 85.6376 6.21625C86.4482 6.19904 87.2546 6.34077 88.0111 6.63347C88.6027 6.84461 89.1432 7.17838 89.597 7.61294C89.9762 7.97398 90.2798 8.40711 90.4894 8.8869C90.5996 9.13467 90.6906 9.3905 90.7616 9.65218C90.7748 9.70657 90.7768 9.76304 90.7679 9.81825C90.7589 9.87349 90.739 9.92636 90.7092 9.97378C90.6796 10.0212 90.6406 10.0621 90.5947 10.0943C90.549 10.1264 90.4973 10.1491 90.4426 10.1609L88.2452 10.645C88.1419 10.668 88.0337 10.6508 87.9425 10.5969C87.8516 10.5431 87.7842 10.4566 87.7546 10.355C87.7329 10.2792 87.7069 10.2047 87.6764 10.1319C87.5888 9.9057 87.4517 9.70211 87.2748 9.53617C87.0848 9.34588 86.8568 9.19766 86.6057 9.10109C86.3058 8.98197 85.9848 8.92505 85.662 8.93376C85.2355 8.92355 84.8175 9.05452 84.473 9.30637C84.3115 9.40665 84.1786 9.54715 84.0875 9.71412C83.9963 9.88111 83.9502 10.0689 83.9533 10.259C83.9443 10.4079 83.9712 10.5568 84.0317 10.6931C84.0924 10.8294 84.1847 10.9491 84.3012 11.0422C84.5527 11.2461 84.8495 11.3862 85.1667 11.4505L87.0519 11.8632C88.3724 12.1399 89.3405 12.6575 89.9852 13.3893C90.6346 14.0855 90.9869 15.0077 90.9668 15.9596C90.9623 16.5059 90.8494 17.0459 90.6344 17.5482C90.4303 18.0824 90.1041 18.5614 89.6819 18.9471C89.2142 19.3806 88.6652 19.7173 88.0669 19.9377C86.4997 20.451 84.8054 20.4211 83.2573 19.8529C82.6492 19.596 82.0883 19.2393 81.5977 18.7976C81.1887 18.4212 80.8688 17.9586 80.6607 17.4433C80.5317 17.1722 80.4302 16.8889 80.3574 16.5977C80.3442 16.5433 80.3422 16.4868 80.3514 16.4316C80.3605 16.3764 80.3807 16.3236 80.4105 16.2763C80.4405 16.2291 80.4797 16.1884 80.5258 16.1565C80.5718 16.1247 80.6237 16.1025 80.6786 16.0912L82.9361 15.6138C83.0416 15.5909 83.1518 15.61 83.2434 15.667C83.3351 15.7241 83.4009 15.8146 83.4269 15.9194C83.5255 16.2985 83.7232 16.6443 84.0001 16.9212Z" fill="white"/>
<path d="M103.527 17.84C103.172 18.3492 102.732 18.7937 102.227 19.1541C101.689 19.5417 101.096 19.8477 100.469 20.0622C99.7425 20.2822 98.9861 20.3876 98.2271 20.3746C97.3349 20.3697 96.4504 20.2104 95.6126 19.9038C94.795 19.5919 94.0529 19.1097 93.4355 18.4893C92.7935 17.8512 92.292 17.0859 91.9632 16.2425C91.5777 15.2908 91.3902 14.2705 91.4121 13.2439C91.4081 12.2555 91.5958 11.2757 91.9654 10.359C92.2949 9.54389 92.785 8.80334 93.4064 8.18144C94.0105 7.58089 94.7289 7.10749 95.519 6.78923C96.2922 6.45034 97.1286 6.27996 97.9729 6.28944C100.05 6.28944 101.64 6.92755 102.793 8.14798C103.947 9.3684 104.505 11.0708 104.493 13.2037C104.497 13.4465 104.487 13.6893 104.464 13.9311C104.452 14.033 104.403 14.1269 104.326 14.1948C104.249 14.2628 104.15 14.2999 104.047 14.2992L95.4141 14.2568C95.3528 14.2559 95.2921 14.2685 95.2361 14.2938C95.1803 14.3191 95.1305 14.3564 95.0907 14.4031C95.0508 14.4497 95.0219 14.5046 95.0056 14.5638C94.9894 14.623 94.9865 14.685 94.997 14.7454C95.0414 14.9967 95.1202 15.2407 95.2311 15.4706C95.4173 15.8243 95.6617 16.1441 95.954 16.4166C96.2571 16.6941 96.6076 16.9148 96.9891 17.068L97.0314 17.0837C97.4313 17.226 97.8517 17.3014 98.2762 17.3068C99.1126 17.3068 99.7887 17.126 100.248 16.749C100.638 16.4537 100.953 16.0718 101.169 15.6334C101.212 15.5429 101.285 15.4705 101.375 15.4296C101.466 15.3886 101.569 15.3817 101.665 15.4103L103.895 16.0796C103.95 16.0957 104.001 16.1228 104.044 16.1592C104.088 16.1957 104.124 16.2407 104.15 16.2914C104.175 16.3422 104.191 16.3977 104.194 16.4545C104.197 16.5114 104.189 16.5683 104.17 16.6218C104.009 17.0538 103.793 17.4633 103.527 17.84ZM100.759 10.89C100.65 10.5699 100.466 10.2801 100.224 10.0444C99.9672 9.77938 99.6547 9.57507 99.3091 9.44649C98.9012 9.27002 98.4594 9.18474 98.0152 9.19662C97.5861 9.18692 97.16 9.26986 96.766 9.43981C96.4259 9.59102 96.1144 9.79927 95.8447 10.0556C95.607 10.2982 95.4137 10.5806 95.2737 10.89C95.2154 11.0163 95.1668 11.1468 95.1285 11.2805C95.1117 11.3425 95.1095 11.4075 95.1218 11.4705C95.1344 11.5335 95.161 11.5928 95.2002 11.6437C95.2392 11.6947 95.2896 11.7359 95.3472 11.7643C95.4047 11.7926 95.4681 11.8072 95.5324 11.807L100.478 11.8338C100.542 11.8338 100.604 11.8194 100.661 11.7918C100.718 11.7641 100.769 11.7239 100.808 11.6742C100.848 11.6244 100.875 11.5663 100.889 11.5043C100.903 11.4424 100.903 11.3781 100.889 11.3162C100.859 11.1702 100.816 11.0275 100.759 10.89Z" fill="white"/>
<path d="M107.115 9.36178C107.115 9.18366 107.148 9.02173 107.212 8.88408C107.269 8.74645 107.358 8.63308 107.464 8.52785C107.569 8.42259 107.698 8.34161 107.844 8.28494C107.982 8.22827 108.136 8.17968 108.306 8.1554L109.285 8.00967C109.398 7.99347 109.48 7.96108 109.52 7.90441C109.56 7.85582 109.585 7.79915 109.585 7.72628C109.585 7.58866 109.528 7.4672 109.423 7.36194C109.31 7.25669 109.14 7.20812 108.913 7.20812C108.678 7.20812 108.492 7.27288 108.37 7.40242C108.241 7.53196 108.168 7.68581 108.152 7.85582L107.196 7.65341C107.212 7.49959 107.261 7.33766 107.342 7.18382C107.423 7.03 107.536 6.88426 107.674 6.76281C107.812 6.64135 107.99 6.5361 108.192 6.46323C108.395 6.38227 108.638 6.3418 108.905 6.3418C109.22 6.3418 109.488 6.38227 109.706 6.47134C109.925 6.55229 110.111 6.66566 110.249 6.80328C110.386 6.94093 110.484 7.09476 110.548 7.28099C110.605 7.4672 110.637 7.65341 110.637 7.85582V9.81518C110.637 9.92044 110.645 10.0419 110.654 10.1633C110.662 10.2848 110.678 10.3738 110.686 10.4467H109.698C109.69 10.39 109.682 10.3172 109.674 10.2281C109.666 10.1309 109.658 10.0419 109.658 9.96901C109.552 10.1229 109.407 10.2605 109.22 10.3819C109.026 10.5034 108.783 10.5601 108.484 10.5601C108.273 10.5601 108.087 10.5277 107.917 10.4629C107.747 10.39 107.601 10.301 107.48 10.1957C107.358 10.0824 107.269 9.95281 107.212 9.80708C107.148 9.66945 107.115 9.5156 107.115 9.36178ZM108.71 9.75851C108.824 9.75851 108.937 9.74232 109.042 9.70993C109.148 9.68564 109.237 9.62897 109.318 9.55608C109.398 9.48321 109.463 9.39415 109.512 9.27272C109.56 9.15938 109.585 9.01362 109.585 8.83551V8.65739L108.686 8.79501C108.548 8.81932 108.427 8.86788 108.338 8.94075C108.241 9.02173 108.192 9.14318 108.192 9.297C108.192 9.41846 108.233 9.52371 108.322 9.61278C108.411 9.70993 108.54 9.75851 108.71 9.75851Z" fill="white"/>
<path d="M111.302 10.4512V6.46772H112.379V10.4512H111.302ZM111.172 5.16419C111.172 4.97798 111.237 4.81605 111.367 4.68651C111.496 4.55697 111.65 4.49219 111.836 4.49219C112.022 4.49219 112.184 4.55697 112.314 4.68651C112.435 4.81605 112.5 4.97798 112.5 5.16419C112.5 5.34232 112.435 5.49616 112.314 5.6257C112.184 5.75524 112.022 5.82 111.836 5.82C111.65 5.82 111.496 5.75524 111.367 5.6257C111.237 5.49616 111.172 5.34232 111.172 5.16419Z" fill="white"/>
</svg>
