<svg width="25" height="24" viewBox="0 0 25 24" fill="none" xmlns="http://www.w3.org/2000/svg">
<circle cx="12.5" cy="12" r="11.5" stroke="white"/>
<path d="M13.5111 4.71875L13.3265 15.081H11.3591L11.1745 4.71875H13.5111ZM12.3464 19.3991C11.9534 19.3991 11.6172 19.2618 11.3378 18.9872C11.0585 18.7079 10.9212 18.3717 10.9259 17.9787C10.9212 17.5904 11.0585 17.259 11.3378 16.9844C11.6172 16.705 11.9534 16.5653 12.3464 16.5653C12.7299 16.5653 13.0613 16.705 13.3407 16.9844C13.62 17.259 13.7621 17.5904 13.7668 17.9787C13.7621 18.2391 13.6934 18.4782 13.5608 18.696C13.433 18.9091 13.2625 19.0795 13.0495 19.2074C12.8364 19.3352 12.602 19.3991 12.3464 19.3991Z" fill="white"/>
</svg>
