<svg width="147" height="88" viewBox="0 0 147 88" fill="none" xmlns="http://www.w3.org/2000/svg">
<g opacity="0.6">
<path d="M53.3317 91.2444C39.3883 85.3405 28.4708 89.423 22.6851 76.817C16.8994 64.2111 27.0447 57.3835 31.541 55.9019C36.0374 54.4204 48.769 50.6224 53.0769 46.1593C57.3848 41.6963 66.0152 36.1617 74.8638 40.3921C83.7125 44.6224 87.3701 51.9747 87.9354 60.9193C88.5007 69.8639 92.8677 78.9674 94.6965 82.6435C96.5253 86.3196 99.093 98.5302 87.2445 103.669C75.3959 108.809 69.7356 98.1902 53.3317 91.2444Z" fill="#2B2B2B"/>
<path d="M53.3317 91.2444C39.3883 85.3405 28.4708 89.423 22.6851 76.817C16.8994 64.2111 27.0447 57.3835 31.541 55.9019C36.0374 54.4204 48.769 50.6224 53.0769 46.1593C57.3848 41.6963 66.0152 36.1617 74.8638 40.3921C83.7125 44.6224 87.3701 51.9747 87.9354 60.9193C88.5007 69.8639 92.8677 78.9674 94.6965 82.6435C96.5253 86.3196 99.093 98.5302 87.2445 103.669C75.3959 108.809 69.7356 98.1902 53.3317 91.2444Z" fill="#2B2B2B"/>
<ellipse cx="35.0915" cy="27.591" rx="12.9151" ry="16.9232" transform="rotate(15.7045 35.0915 27.591)" fill="#2B2B2B"/>
<ellipse cx="35.0915" cy="27.591" rx="12.9151" ry="16.9232" transform="rotate(15.7045 35.0915 27.591)" fill="#2B2B2B"/>
<ellipse cx="12.9151" cy="16.9232" rx="12.9151" ry="16.9232" transform="matrix(-0.864333 -0.502921 -0.502921 0.864333 132.686 52.4521)" fill="#2B2B2B"/>
<ellipse cx="12.9151" cy="16.9232" rx="12.9151" ry="16.9232" transform="matrix(-0.864333 -0.502921 -0.502921 0.864333 132.686 52.4521)" fill="#2B2B2B"/>
<ellipse cx="67.9468" cy="12.2951" rx="15.4334" ry="20.2231" transform="rotate(15.7045 67.9468 12.2951)" fill="#2B2B2B"/>
<ellipse cx="67.9468" cy="12.2951" rx="15.4334" ry="20.2231" transform="rotate(15.7045 67.9468 12.2951)" fill="#2B2B2B"/>
<ellipse cx="101.238" cy="26.3286" rx="15.4334" ry="20.2231" transform="rotate(33.6785 101.238 26.3286)" fill="#2B2B2B"/>
<ellipse cx="101.238" cy="26.3286" rx="15.4334" ry="20.2231" transform="rotate(33.6785 101.238 26.3286)" fill="#2B2B2B"/>
</g>
</svg>
