<svg width="24" height="24" viewBox="0 0 24 24" fill="none" xmlns="http://www.w3.org/2000/svg">
<rect width="24" height="24" rx="12" fill="white"/>
<path d="M10.9993 17.5V9.86364H12.4858V17.5H10.9993ZM11.75 8.68537C11.4915 8.68537 11.2694 8.59919 11.0838 8.42685C10.9015 8.25118 10.8104 8.04238 10.8104 7.80043C10.8104 7.55516 10.9015 7.34635 11.0838 7.17401C11.2694 6.99834 11.4915 6.91051 11.75 6.91051C12.0085 6.91051 12.2289 6.99834 12.4112 7.17401C12.5968 7.34635 12.6896 7.55516 12.6896 7.80043C12.6896 8.04238 12.5968 8.25118 12.4112 8.42685C12.2289 8.59919 12.0085 8.68537 11.75 8.68537Z" fill="#171717"/>
</svg>
