<svg width="9" height="9" viewBox="0 0 9 9" fill="none" xmlns="http://www.w3.org/2000/svg">
<path d="M1.5348 2.39353L1.77019 2.80547L1.5348 2.39353C0.894904 2.75918 0.5 3.43967 0.5 4.17667V4.29614C0.5 4.89543 0.738066 5.47017 1.16183 5.89393L1.55 6.28211V6.775C1.55 7.43774 2.08726 7.975 2.75 7.975H6.25C6.91274 7.975 7.45 7.43774 7.45 6.775V6.28211L7.83817 5.89393C8.26193 5.47017 8.5 4.89543 8.5 4.29614V4.17667C8.5 3.43967 8.1051 2.75918 7.4652 2.39353L7.41999 2.36769L7.17193 2.80181L7.41999 2.36769C7.25456 2.27316 7.12362 2.12829 7.04624 1.95417L7.0251 1.90662C6.64078 1.04189 5.66258 0.610427 4.76485 0.909669C4.59293 0.966976 4.40707 0.966976 4.23515 0.909669C3.33742 0.610427 2.35922 1.04189 1.9749 1.90662L1.95376 1.95417C1.87638 2.12829 1.74544 2.27316 1.58001 2.36769L1.5348 2.39353ZM1.5652 6.2973C1.56518 6.29729 1.56517 6.29727 1.56515 6.29726L1.5652 6.2973Z" fill="#FFA521" stroke="white" stroke-linejoin="round"/>
<path d="M3.83214 3.54171C4.11619 3.48133 4.27793 3.11001 4.19341 2.71234C4.10888 2.31467 3.81009 2.04124 3.52604 2.10162C3.24199 2.16199 3.08024 2.53331 3.16477 2.93098C3.2493 3.32865 3.54809 3.60208 3.83214 3.54171Z" fill="white"/>
<path d="M5.17404 3.5416C5.45809 3.60198 5.75688 3.32855 5.84141 2.93088C5.92593 2.53321 5.76419 2.16189 5.48014 2.10151C5.19609 2.04113 4.8973 2.31456 4.81277 2.71223C4.72824 3.1099 4.88999 3.48122 5.17404 3.5416Z" fill="white"/>
<path d="M6.12743 4.84847C6.37893 4.99367 6.74759 4.82595 6.95086 4.47386C7.15414 4.12178 7.11506 3.71865 6.86357 3.57345C6.61208 3.42825 6.24341 3.59597 6.04014 3.94806C5.83686 4.30014 5.87594 4.70327 6.12743 4.84847Z" fill="white"/>
<path d="M2.86768 4.84847C2.61619 4.99367 2.24753 4.82595 2.04425 4.47386C1.84098 4.12178 1.88006 3.71865 2.13155 3.57345C2.38304 3.42825 2.7517 3.59597 2.95498 3.94806C3.15826 4.30014 3.11917 4.70327 2.86768 4.84847Z" fill="white"/>
<path d="M5.19961 4.84922C5.00641 4.66139 4.89961 4.32422 4.49961 4.32422C4.09961 4.32422 3.99961 4.65477 3.79961 4.84922C3.59961 5.04366 3.09961 5.07652 3.09961 5.54922C3.09961 5.81775 3.34841 6.07422 3.62461 6.07422C3.85601 6.07422 4.33641 5.87977 4.49961 5.87977C4.66281 5.87977 5.14321 6.07422 5.37461 6.07422C5.65081 6.07422 5.89961 5.81775 5.89961 5.54922C5.89961 5.10336 5.39281 5.03705 5.19961 4.84922Z" fill="white"/>
</svg>
