<svg width="20" height="20" viewBox="0 0 20 20" fill="none" xmlns="http://www.w3.org/2000/svg">
<path d="M13 10C13 11.6569 11.6569 13 10 13C8.34315 13 7 11.6569 7 10C7 8.34315 8.34315 7 10 7C11.6569 7 13 8.34315 13 10Z" stroke="white" stroke-linecap="round" stroke-linejoin="round"/>
<path d="M10.9046 1.06005C10.6988 1 10.4659 1 10 1C9.53412 1 9.30118 1 9.09539 1.06005C8.79417 1.14794 8.5281 1.32808 8.33463 1.57511C8.20245 1.74388 8.11594 1.96016 7.94291 2.39272C7.69419 3.01452 7.00393 3.33471 6.36857 3.123L5.79779 2.93281C5.3929 2.79785 5.19045 2.73036 4.99196 2.7188C4.70039 2.70181 4.4102 2.77032 4.15701 2.9159C3.98465 3.01501 3.83376 3.16591 3.53197 3.4677C3.21122 3.78845 3.05084 3.94882 2.94896 4.13189C2.79927 4.40084 2.73595 4.70934 2.76759 5.01551C2.78912 5.2239 2.87335 5.43449 3.04182 5.85566C3.30565 6.51523 3.05184 7.26878 2.44272 7.63433L2.16521 7.80087C1.74031 8.05581 1.52786 8.18328 1.37354 8.35878C1.23698 8.51409 1.13401 8.69596 1.07109 8.89296C1 9.11559 1 9.36581 1 9.86626C1 10.4589 1 10.7551 1.09462 11.0088C1.17823 11.2329 1.31422 11.4337 1.49124 11.5946C1.69158 11.7766 1.96395 11.8856 2.50866 12.1035C3.06534 12.3261 3.35196 12.9441 3.16236 13.5129L2.94721 14.1584C2.79819 14.6054 2.72367 14.829 2.7169 15.0486C2.70875 15.3127 2.77049 15.5742 2.89587 15.8067C3.00015 16.0002 3.16678 16.1668 3.5 16.5C3.83323 16.8332 3.99985 16.9998 4.19325 17.1041C4.4258 17.2295 4.68733 17.2913 4.9514 17.2831C5.17102 17.2763 5.39456 17.2018 5.84164 17.0528L6.36862 16.8771C7.00393 16.6654 7.6942 16.9855 7.94291 17.6073C8.11594 18.0398 8.20245 18.2561 8.33463 18.4249C8.5281 18.6719 8.79417 18.8521 9.09539 18.94C9.30118 19 9.53412 19 10 19C10.4659 19 10.6988 19 10.9046 18.94C11.2058 18.8521 11.4719 18.6719 11.6654 18.4249C11.7976 18.2561 11.8841 18.0398 12.0571 17.6073C12.3058 16.9855 12.9961 16.6654 13.6313 16.8773L14.1579 17.0529C14.605 17.2019 14.8286 17.2764 15.0482 17.2832C15.3123 17.2913 15.5738 17.2296 15.8063 17.1042C15.9997 16.9999 16.1664 16.8333 16.4996 16.5001C16.8328 16.1669 16.9994 16.0002 17.1037 15.8068C17.2291 15.5743 17.2908 15.3127 17.2827 15.0487C17.2759 14.8291 17.2014 14.6055 17.0524 14.1584L16.8374 13.5134C16.6477 12.9444 16.9344 12.3262 17.4913 12.1035C18.036 11.8856 18.3084 11.7766 18.5088 11.5946C18.6858 11.4337 18.8218 11.2329 18.9054 11.0088C19 10.7551 19 10.4589 19 9.86626C19 9.36581 19 9.11559 18.9289 8.89296C18.866 8.69596 18.763 8.51409 18.6265 8.35878C18.4721 8.18328 18.2597 8.05581 17.8348 7.80087L17.5569 7.63416C16.9478 7.26867 16.6939 6.51514 16.9578 5.85558C17.1262 5.43443 17.2105 5.22383 17.232 5.01543C17.2636 4.70926 17.2003 4.40077 17.0506 4.13181C16.9487 3.94875 16.7884 3.78837 16.4676 3.46762C16.1658 3.16584 16.0149 3.01494 15.8426 2.91583C15.5894 2.77024 15.2992 2.70174 15.0076 2.71872C14.8091 2.73029 14.6067 2.79777 14.2018 2.93273L13.6314 3.12287C12.9961 3.33464 12.3058 3.0145 12.0571 2.39272C11.8841 1.96016 11.7976 1.74388 11.6654 1.57511C11.4719 1.32808 11.2058 1.14794 10.9046 1.06005Z" stroke="white" stroke-linecap="round" stroke-linejoin="round"/>
</svg>
