<?xml version="1.0" encoding="UTF-8"?>
<svg id="Background" xmlns="http://www.w3.org/2000/svg" version="1.1" viewBox="0 0 1528.1 1403.9">
  <defs>
    <style>
      .cls-1 {
        fill: #999998;
      }

      .cls-1, .cls-2, .cls-3, .cls-4 {
        stroke-width: 0px;
      }

      .cls-2 {
        fill: #4c4744;
      }

      .cls-3 {
        fill: #5f5d5c;
      }

      .cls-4 {
        fill: #acacac;
      }
    </style>
  </defs>
  <path class="cls-3" d="M1520.5,531.3c-1.2-2.6,3.2-6.6,4.2-8.1,2.7-4.2,4-9,3.3-14-.8-5.5-3.8-9.4-6.2-14.2-2.9-5.8-2.7-12.3-2.4-18.6.9-18.6,6-45.2-7.3-60.8-3.3-3.9-8-6.2-11.5-9.9-4-4.2-6.7-9.5-9.2-14.6-4.7-9.6-10.4-18.1-17.1-26.4-7.4-9-14.7-18.8-24.9-24.7-4.3-2.5-8.8-4.8-12.2-8.6-3.5-3.9-4.7-8.5-9.7-10.8-8.3-3.8-20,4.6-25.2-5.3-2-3.9-2.4-7.9-6.1-10.7-3.2-2.4-6.9-2.5-10.7-2-3.9.6-7.6,2.2-11.5,2.9-6.9,1.3-9.5-2.8-14.4-6.8-7.7-6.3-17.1-8.6-26.9-8.7-11.8-.2-23.5,2.1-35.4,1.9-5.7,0-11.4-.7-17-2.2-5.6-1.5-10.8-5.9-16.3-7-5.1-1-9.5-.2-14-3.6-3.4-2.5-5.7-6.2-7.7-9.8-4.5-8.1-9.3-17-11.7-25.9-3.3-12.2-2.1-25.1-4.5-37.6-1.4-7.4-3.5-16.7-10-21.4-8.7-6.2-14.2-11-15.6-22.1-1.2-9.4-1.1-18.4-4-27.5-2.6-8.4-6.7-16.4-13.7-21.9-3.2-2.6-6.8-4.5-10.7-5.8-2.9-1-7.8-1.3-10.1-3.6-2.6-2.5-1.2-7.1-1.6-10.5-.5-3.6-1.7-7-3.9-10-2.1-2.8-5-5-8.1-6.6-4.6-2.4-10.5-3-14.3-6.7-3.7-3.6-4.9-9-8.1-13-3-3.8-6.8-6.7-10.7-9.4-9.8-6.7-20.3-12.4-30.5-18.5-10.9-6.5-22-14.7-34-19.3-5.6-2.1-11.1-1.9-17-2-7.1,0-14.1-.4-21.2-.9-13.9-1-27.7-2.5-41.5-4-11-1.2-24.4-4.5-35.3-1.1-4.5,1.4-6.8,4.3-9.9,7.5-3.8,4-8.3,5-13.5,5.9-9.3,1.5-18.7,2.7-27.9,5-8.9,2.3-17.4,5.9-24.3,12.1-3.3,3-6.2,6.6-8.4,10.5-1.4,2.4-2.3,5.1-4.6,6.8-2.7,2-6.7,1.9-9.9,3-9.7,3.4-16.9,10.7-23.7,18.1-8.2,8.9-16.2,16.3-27.3,21.2-3.8,1.7-8.2,3.4-12.4,2.5-5.8-1.2-8.9-7.1-12.3-11.3-2.9-3.6-6.3-6.8-10.6-8.7-4.9-2.2-10.7-1.4-15.1-4.9-6.5-5.1-5.9-14.7-11.3-20.6-5.7-6.4-11-2.7-18.3-3.2-9.2-.7-12.1-9.2-14.5-16.8-.8-2.4-3.1-4.5-5.8-4.4-8.5.3-18,1.8-25.9-2.1-4.4-2.2-5.9-6-9.3-9-3.6-3.2-10.5-2.5-14.8-2.2-3,.2-6,1.3-8.7,1.1-4.7-.4-9.6-3.8-14.4-4.9-10.5-2.3-21.3-1.8-32-2.4-5.6-.3-11.2.1-16.8-.2-3.2-.2-6.3-1.2-9.4-1.5-3-.3-5.9.6-9,.4-5.1-.3-9.7-2.1-15-2.3-6.9-.2-13.7-.4-20.6-.6-5.4-.2-11.3-1.3-16.2,1.3-3.5,1.9-6.6,3.9-9.1,7-7,8.6-13.7,12.6-25.1,12.2-2.9,0-4.8,2-5.8,4.4-3.7,9.4-11.2,16-18.8,22.3-4,3.3-7.8,7-11.9,10.3-4.6,3.8-5.6,2.6-10.6-1.2-2.4-1.8-7-.5-8.2,2.2-.4.9-.8,1.8-1.3,2.7-1.2,2.4-1.1,5.3.9,7.3,1.1,1.1,2.8,2.6,3.1,4.1.8,3.8-3.7,8.5-7.4,8-5.3-.7-6.5-5.5-12.5-3.1-12.7,5-13.7,23.7-19.6,34.4-6.1,10.9-19.3,16.4-19.7,30.3,0,3.3,1,6.4,1.2,9.6.2,4.1-1.8,6.2-3.3,9.8-1.3,3-.3,5.1-.8,8.2-.7,4.3-3.9,6.4-7.5,8.4-1.7.9-3.2,3.2-3,5.2.5,5,.7,10.2-.6,15.1-1.5,5.8-5.7,9.6-7.8,15-1.7,4.5-1.3,9-.5,13.6,1.1,7.1,1.2,13.2-.7,20.2-3.2,11.9-8.7,22.6-10.5,34.9-1.2,8.2-4.5,16.2-11.1,21.5-3,2.3-6.5,4-10.2,5.1-4.8,1.5-10.2.8-14.8,2.3-2.3.8-3.7,2.7-5.8,3.9-2.4,1.4-5.1,1.9-7.7,2.6-5,1.4-10.3,2.4-15.5,4.1-12.5,4-25,7.9-37.7,10.8-11.9,2.7-24.5,2.7-36.1,6.5-19.4,6.2-34.3,22.2-46,38.3-2.8,3.8-4.1,8.3-6.7,12.3-3.2,4.7-7.4,8.8-11.9,12.1-3.2,2.3-6.8,4-9.6,6.7-4.2,4.1-7.6,9.4-10.9,14.3-7.1,10.4-13.7,21-22.5,30.1-7.8,8.1-9.9,18.1-12.9,28.6-1.8,6.1-4.8,11.3-7.2,17.2-2.1,4.9-2.8,10.2-3.4,15.5-.7,6.2-.8,12.4-1.5,18.6-.7,6.2-3,12.2-3.3,18.4-.2,5.8,1.1,11.8,2.2,17.5,1.3,7.3,1.9,14.4,2.2,21.7.2,5.7.5,11.6,2.7,16.9,2.6,6.3,6.3,11.7,8.2,18.3,3.8,13.5,3.8,27.8,9.4,40.8,2,4.6,4.1,4.9,8,7,2.5,1.3,3.7,3,4.3,5.1-.6,0-1.2,0-2-.3-5.4-1.7-8.9,4.4-6.8,8.8,4.3,9.2,11.5,17.2,14.5,27,1.4,4.6,0,10.3,1.7,14.4,1.6,3.7,6.7,6.5,9.4,9.6,12,14.2,12.7,32.2,16.3,49.5,1.4,6.6,4.4,12.6,11,15.1,4.5,1.7,10.2,1.2,11.3,6.8,1,4.9-2.5,9.4-2.8,14.2-.8,10.1,6.7,14.4,13.2,20.6,7.2,6.9,13,15.2,20.8,21.7,3.2,2.7,6.7,5,10.5,6.7,4.2,1.9,10,1.6,13.8,3.8,3.6,2.1,6.2,7.7,9.5,10.5,3.8,3.3,8,6,12.1,8.9,8,5.8,13.6,13.8,21.7,19.6,6.4,4.6,13.4,8.6,18.9,14.4,6.1,6.5,8.3,14.2,7.3,23-.5,4.5.3,6.2,3.3,9.6,3.8,4.2,8.5,8.9,7.5,15.1-.8,5-5.3,8.4-7.6,12.7-2.1,4-3,8.3-2.3,12.8.7,4.6,3.7,8.4,4.4,12.9.6,4.1-.7,8.3-1.5,12.3-3.7,18.3-2.4,39.5,2,57.7,1.3,5.2,2.9,10.3,3.3,15.6.5,6.2-.8,12.4-.9,18.6-.2,10.7,1.2,21.5,3.6,32,4.9,21.4,14.2,41.5,22.9,61.5,4.6,10.5,10.6,19.8,17.1,29.2,6.1,8.9,11.5,18.2,18.4,26.4,6.8,8.1,14.7,15.3,22.5,22.3,8.2,7.4,15.8,15.7,24.4,22.6,3.4,2.7,7,5.2,11.1,6.7,4.5,1.7,9.3,1.6,13.8,3.2,8.9,3.2,12.6,12.6,21.4,16,8.3,3.2,16.6-1.6,24.6,1.4,4.6,1.7,6.5,5.1,9.5,8.6,2.6,3.1,6.7,4.6,10.8,4.6,8.8,0,17.5-7.8,25.3-.4,6.6,6.3,12.3,8.8,21.7,6.8,4.5-1,7.6-4.4,11.9-5.6,6.8-1.9,6.5,4.4,10,8,5.2,5.2,17,4.5,22.8,1,3.8-2.3,6.5-6.7,11.5-6.4,5.4.3,9.2,5.8,14.1,7.7,3.4,1.3,7,1.7,10.5.9,5-1.1,8.6-4.9,13.4-6.3,8.4-2.5,17.6,1.6,26.2.6,3.3-.4,6.5-1.2,9.3-2.9,3.4-2,6.6-7.8,10.6-7.7,3.8,0,7.8,4.3,11.4,5.6,4,1.4,8.3,1.8,12.4.6,3.7-1.1,6.7-3.4,9.5-5.9,4.8-4.3,8.6-4.4,14.8-4.8,10.2-.7,19.5-4.4,28.5-8.8,1.9-.9,3-3.2,3-5.2,0-.6,0-1.1-.2-1.7,1.2.5,2.3,1.1,3.5,1.5,4.2,1.4,6,0,9.9-1.6,16.7-6.7,35.3-5.3,52.8-3.8,22.6,1.9,44.7,7.2,66.6,12.9,10.5,2.7,20.9,5.5,31.4,8,4.4,1.1,8.8,2.6,13.3,3.2,4.2.6,7.6-1.7,11.8-1.4,8.8.5,13.5,9.2,20.6,13.2,8,4.5,16.5-1.4,24.8-1.2,5.1.1,8.1,3.2,12.4,5.2,3.5,1.6,7.2,2,11,2.4,10.3,1.1,20.6,1.9,31,2.6,19.5,1.3,37.7,4.4,57.2,1.5,9.5-1.4,18.2-4.4,27.3-7.3,5.3-1.7,10.7-3.2,16.3-3.7,5.3-.5,6.2-1.7,10.1-5.3,6.5-5.9,15.2-7.5,23.6-9.2,4.4-.9,9.4-1.5,13.5-3.4,3.4-1.6,4.5-4.5,6.4-7.7,5.1-8.3,13.2-9.6,21.3-13.8,7.7-3.9,14.7-9.2,21.1-14.9,14.2-12.8,26-28.5,38.1-43.2,12-14.5,20.5-31.1,27.3-48.5,3.6-9.1,6.7-18.4,9.7-27.8.8-2.5,1.9-5.1,2.5-7.7,1.2-5.4.8-11.3,1.8-16.8,1.7-10.3,4.6-20.5,4.7-30.9,0-4.1-.5-8.2-1.3-12.2-1.2-6.2-.3-9.3,3.8-14.1,4.5-5.3,5.7-12.5,1.6-18.8-2.1-3.2-5.8-5-7-8.7-1.3-3.9.4-7.4,2.6-10.6,3.6-5.4,8.7-10.1,6-17.1-3.2-8.1-13.1-11.3-11.1-21.7.8-4.1,3.4-7.4,4.3-11.4,1.1-5.3-1.7-7.2-4.2-11.6-5.5-9.7-3.7-20.5-1.3-30.8,1.3-5.5,1.9-7.6-.9-12.6-2.6-4.6-4.5-8.9-3.7-14.2.7-4.5,3.1-8.7,5.7-12.3,2.2-3.1,6.1-6,7.3-9.6,1.8-5.4-2.1-13.4,3.4-17.4,1.7-1.2,4.5-1.4,6.4-2.1,2.7-1,5.4-2.2,7.9-3.7,4.7-2.7,8.8-6.2,13.1-9.5,8.8-6.8,18.5-12.2,27.6-18.6,9.5-6.7,19-13.3,30.3-16.5,1.9-.5,3.8-2.2,4.2-4.2.8-4.3,1.2-8.8,2.5-13,1.4-4.5,5.1-3.9,9.1-5.7,6.5-2.9,11.4-7.9,14.8-14.1,3.1-5.8,3.8-14.8,8.6-19.2,6.6-6.1,12.9-9.9,15.3-19.3,1.1-4,1.2-8.3,3.4-12,2.4-4,6.6-6.9,9.4-10.8,5.6-7.6,8.5-16.8,11.8-25.5,1.7-4.6,3.6-9.1,6-13.3,2.3-4,7.1-7.6,8.5-11.9,1.3-3.9-.4-8.4.6-12.5,1.4-5.9,5.3-9.7,9-14.1,2.5-2.9,4.8-6.4,4.8-10.4,0-5.8-1.8-10.2.1-16.1,1.6-5.1,5.2-8.8,7.4-13.6,1.7-3.7-.3-7.5-1.8-11.1,3.8-7.8,8.2-17.1,9.4-26,.8-.5,1.5-1.1,2-2,2.7-4.9,6.8-8.3,5.3-14.2-2.1-7.9-1.9-14.6-.3-22.6,2.4-12.4,4.8-24.2-2.2-35.6Z"/>
  <path class="cls-2" d="M1480.7,561.6c-1.2-2.6,3.2-6.6,4.2-8.1,2.7-4.2,4-9,3.3-14-.8-5.5-3.8-9.4-6.2-14.2-2.9-5.8-2.7-12.3-2.4-18.6.9-18.6,6-45.2-7.3-60.8-3.3-3.9-8-6.2-11.5-9.9-4-4.2-6.7-9.5-9.2-14.6-4.7-9.6-10.4-18.1-17.1-26.4-7.4-9-14.7-18.8-24.9-24.7-4.3-2.5-8.8-4.8-12.2-8.6-3.5-3.9-4.7-8.5-9.7-10.8-8.3-3.8-20,4.6-25.2-5.3-2-3.9-2.4-7.9-6.1-10.7-3.2-2.4-6.9-2.5-10.7-2-3.9.6-7.6,2.2-11.5,2.9-6.9,1.3-9.5-2.8-14.4-6.8-7.7-6.3-17.1-8.6-26.9-8.7-11.8-.2-23.5,2.1-35.4,1.9-5.7,0-11.4-.7-17-2.2-5.6-1.5-10.8-5.9-16.3-7-5.1-1-9.5-.2-14-3.6-3.4-2.5-5.7-6.2-7.7-9.8-4.5-8.1-9.3-17-11.7-25.9-3.3-12.2-2.1-25.1-4.5-37.6-1.4-7.4-3.5-16.7-10-21.4-8.7-6.2-14.2-11-15.6-22.1-1.2-9.4-1.1-18.4-4-27.5-2.6-8.4-6.7-16.4-13.7-21.9-3.2-2.6-6.8-4.5-10.7-5.8-2.9-1-7.8-1.3-10.1-3.6-2.6-2.5-1.2-7.1-1.6-10.5-.5-3.6-1.7-7-3.9-10-2.1-2.8-5-5-8.1-6.6-4.6-2.4-10.5-3-14.3-6.7-3.7-3.6-4.9-9-8.1-13-3-3.8-6.8-6.7-10.7-9.4-9.8-6.7-20.3-12.4-30.5-18.5-10.9-6.5-22-14.7-34-19.3-5.6-2.1-11.1-1.9-17-2-7.1,0-14.1-.4-21.2-.9-13.9-1-27.7-2.5-41.5-4-11-1.2-24.4-4.5-35.3-1.1-4.5,1.4-6.8,4.3-9.9,7.5-3.8,4-8.3,5-13.5,5.9-9.3,1.5-18.7,2.7-27.9,5-8.9,2.3-17.4,5.9-24.3,12.1-3.3,3-6.2,6.6-8.4,10.5-1.4,2.4-2.3,5.1-4.6,6.8-2.7,2-6.7,1.9-9.9,3-9.7,3.4-16.9,10.7-23.7,18.1-8.2,8.9-16.2,16.3-27.3,21.2-3.8,1.7-8.2,3.4-12.4,2.5-5.8-1.2-8.9-7.1-12.3-11.3-2.9-3.6-6.3-6.8-10.6-8.7-4.9-2.2-10.7-1.4-15.1-4.9-6.5-5.1-5.9-14.7-11.3-20.6-5.7-6.4-11-2.7-18.3-3.2-9.2-.7-12.1-9.2-14.5-16.8-.8-2.4-3.1-4.5-5.8-4.4-8.5.3-18,1.8-25.9-2.1-4.4-2.2-5.9-6-9.3-9-3.6-3.2-10.5-2.5-14.8-2.2-3,.2-6,1.3-8.7,1.1-4.7-.4-9.6-3.8-14.4-4.9-10.5-2.3-21.3-1.8-32-2.4-5.6-.3-11.2.1-16.8-.2-3.2-.2-6.3-1.2-9.4-1.5-3-.3-5.9.6-9,.4-5.1-.3-9.7-2.1-15-2.3-6.9-.2-13.7-.4-20.6-.6-5.4-.2-11.3-1.3-16.2,1.3-3.5,1.9-6.6,3.9-9.1,7-7,8.6-13.7,12.6-25.1,12.2-2.9,0-4.8,2-5.8,4.4-3.7,9.4-11.2,16-18.8,22.3-4,3.3-7.8,7-11.9,10.3-4.6,3.8-5.6,2.6-10.6-1.2-2.4-1.8-7-.5-8.2,2.2-.4.9-.8,1.8-1.3,2.7-1.2,2.4-1.1,5.3.9,7.3,1.1,1.1,2.8,2.6,3.1,4.1.8,3.8-3.7,8.5-7.4,8-5.3-.7-6.5-5.5-12.5-3.1-12.7,5-13.7,23.7-19.6,34.4-6.1,10.9-19.3,16.4-19.7,30.3,0,3.3,1,6.4,1.2,9.6.2,4.1-1.8,6.2-3.3,9.8-1.3,3-.3,5.1-.8,8.2-.7,4.3-3.9,6.4-7.5,8.4-1.7.9-3.2,3.2-3,5.2.5,5,.7,10.2-.6,15.1-1.5,5.8-5.7,9.6-7.8,15-1.7,4.5-1.3,9-.5,13.6,1.1,7.1,1.2,13.2-.7,20.2-3.2,11.9-8.7,22.6-10.5,34.9-1.2,8.2-4.5,16.2-11.1,21.5-3,2.3-6.5,4-10.2,5.1-4.8,1.5-10.2.8-14.8,2.3-2.3.8-3.7,2.7-5.8,3.9-2.4,1.4-5.1,1.9-7.7,2.6-5,1.4-10.3,2.4-15.5,4.1-12.5,4-25,7.9-37.7,10.8-11.9,2.7-24.5,2.7-36.1,6.5-19.4,6.2-34.3,22.2-46,38.3-2.8,3.8-4.1,8.3-6.7,12.3-3.2,4.7-7.4,8.8-11.9,12.1-3.2,2.3-6.8,4-9.6,6.7-4.2,4.1-7.6,9.4-10.9,14.3-7.1,10.4-13.7,21-22.5,30.1-7.8,8.1-9.9,18.1-12.9,28.6-1.8,6.1-4.8,11.3-7.2,17.2-2.1,4.9-2.8,10.2-3.4,15.5-.7,6.2-.8,12.4-1.5,18.6-.7,6.2-3,12.2-3.3,18.4-.2,5.8,1.1,11.8,2.2,17.5,1.3,7.3,1.9,14.4,2.2,21.7.2,5.7.5,11.6,2.7,16.9,2.6,6.3,6.3,11.7,8.2,18.3,3.8,13.5,3.8,27.8,9.4,40.8,2,4.6,4.1,4.9,8,7,2.5,1.3,3.7,3,4.3,5.1-.6,0-1.2,0-2-.3-5.4-1.7-8.9,4.4-6.8,8.8,4.3,9.2,11.5,17.2,14.5,27,1.4,4.6,0,10.3,1.7,14.4,1.6,3.7,6.7,6.5,9.4,9.6,12,14.2,12.7,32.2,16.3,49.5,1.4,6.6,4.4,12.6,11,15.1,4.5,1.7,10.2,1.2,11.3,6.8,1,4.9-2.5,9.4-2.8,14.2-.8,10.1,6.7,14.4,13.2,20.6,7.2,6.9,13,15.2,20.8,21.7,3.2,2.7,6.7,5,10.5,6.7,4.2,1.9,10,1.6,13.8,3.8,3.6,2.1,6.2,7.7,9.5,10.5,3.8,3.3,8,6,12.1,8.9,8,5.8,13.6,13.8,21.7,19.6,6.4,4.6,13.4,8.6,18.9,14.4,6.1,6.5,8.3,14.2,7.3,23-.5,4.5.3,6.2,3.3,9.6,3.8,4.2,8.5,8.9,7.5,15.1-.8,5-5.3,8.4-7.6,12.7-2.1,4-3,8.3-2.3,12.8.7,4.6,3.7,8.4,4.4,12.9.6,4.1-.7,8.3-1.5,12.3-3.7,18.3-2.4,39.5,2,57.7,1.3,5.2,2.9,10.3,3.3,15.6.5,6.2-.8,12.4-.9,18.6-.2,10.7,1.2,21.5,3.6,32,4.9,21.4,14.2,41.5,22.9,61.5,4.6,10.5,10.6,19.8,17.1,29.2,6.1,8.9,11.5,18.2,18.4,26.4,6.8,8.1,14.7,15.3,22.5,22.3,8.2,7.4,15.8,15.7,24.4,22.6,3.4,2.7,7,5.2,11.1,6.7,4.5,1.7,9.3,1.6,13.8,3.2,8.9,3.2,12.6,12.6,21.4,16,8.3,3.2,16.6-1.6,24.6,1.4,4.6,1.7,6.5,5.1,9.5,8.6,2.6,3.1,6.7,4.6,10.8,4.6,8.8,0,17.5-7.8,25.3-.4,6.6,6.3,12.3,8.8,21.7,6.8,4.5-1,7.6-4.4,11.9-5.6,6.8-1.9,6.5,4.4,10,8,5.2,5.2,17,4.5,22.8,1,3.8-2.3,6.5-6.7,11.5-6.4,5.4.3,9.2,5.8,14.1,7.7,3.4,1.3,7,1.7,10.5.9,5-1.1,8.6-4.9,13.4-6.3,8.4-2.5,17.6,1.6,26.2.6,3.3-.4,6.5-1.2,9.3-2.9,3.4-2,6.6-7.8,10.6-7.7,3.8,0,7.8,4.3,11.4,5.6,4,1.4,8.3,1.8,12.4.6,3.7-1.1,6.7-3.4,9.5-5.9,4.8-4.3,8.6-4.4,14.8-4.8,10.2-.7,19.5-4.4,28.5-8.8,1.9-.9,3-3.2,3-5.2,0-.6,0-1.1-.2-1.7,1.2.5,2.3,1.1,3.5,1.5,4.2,1.4,6,0,9.9-1.6,16.7-6.7,35.3-5.3,52.8-3.8,22.6,1.9,44.7,7.2,66.6,12.9,10.5,2.7,20.9,5.5,31.4,8,4.4,1.1,8.8,2.6,13.3,3.2,4.2.6,7.6-1.7,11.8-1.4,8.8.5,13.5,9.2,20.6,13.2,8,4.5,16.5-1.4,24.8-1.2,5.1.1,8.1,3.2,12.4,5.2,3.5,1.6,7.2,2,11,2.4,10.3,1.1,20.6,1.9,31,2.6,19.5,1.3,37.7,4.4,57.2,1.5,9.5-1.4,18.2-4.4,27.3-7.3,5.3-1.7,10.7-3.2,16.3-3.7,5.3-.5,6.2-1.7,10.1-5.3,6.5-5.9,15.2-7.5,23.6-9.2,4.4-.9,9.4-1.5,13.5-3.4,3.4-1.6,4.5-4.5,6.4-7.7,5.1-8.3,13.2-9.6,21.3-13.8,7.7-3.9,14.7-9.2,21.1-14.9,14.2-12.8,26-28.5,38.1-43.2,12-14.5,20.5-31.1,27.3-48.5,3.6-9.1,6.7-18.4,9.7-27.8.8-2.5,1.9-5.1,2.5-7.7,1.2-5.4.8-11.3,1.8-16.8,1.7-10.3,4.6-20.5,4.7-30.9,0-4.1-.5-8.2-1.3-12.2-1.2-6.2-.3-9.3,3.8-14.1,4.5-5.3,5.7-12.5,1.6-18.8-2.1-3.2-5.8-5-7-8.7-1.3-3.9.4-7.4,2.6-10.6,3.6-5.4,8.7-10.1,6-17.1-3.2-8.1-13.1-11.3-11.1-21.7.8-4.1,3.4-7.4,4.3-11.4,1.1-5.3-1.7-7.2-4.2-11.6-5.5-9.7-3.7-20.5-1.3-30.8,1.3-5.5,1.9-7.6-.9-12.6-2.6-4.6-4.5-8.9-3.7-14.2.7-4.5,3.1-8.7,5.7-12.3,2.2-3.1,6.1-6,7.3-9.6,1.8-5.4-2.1-13.4,3.4-17.4,1.7-1.2,4.5-1.4,6.4-2.1,2.7-1,5.4-2.2,7.9-3.7,4.7-2.7,8.8-6.2,13.1-9.5,8.8-6.8,18.5-12.2,27.6-18.6,9.5-6.7,19-13.3,30.3-16.5,1.9-.5,3.8-2.2,4.2-4.2.8-4.3,1.2-8.8,2.5-13,1.4-4.5,5.1-3.9,9.1-5.7,6.5-2.9,11.4-7.9,14.8-14.1,3.1-5.8,3.8-14.8,8.6-19.2,6.6-6.1,12.9-9.9,15.3-19.3,1.1-4,1.2-8.3,3.4-12,2.4-4,6.6-6.9,9.4-10.8,5.6-7.6,8.5-16.8,11.8-25.5,1.7-4.6,3.6-9.1,6-13.3,2.3-4,7.1-7.6,8.5-11.9,1.3-3.9-.4-8.4.6-12.5,1.4-5.9,5.3-9.7,9-14.1,2.5-2.9,4.8-6.4,4.8-10.4,0-5.8-1.8-10.2.1-16.1,1.6-5.1,5.2-8.8,7.4-13.6,1.7-3.7-.3-7.5-1.8-11.1,3.8-7.8,8.2-17.1,9.4-26,.8-.5,1.5-1.1,2-2,2.7-4.9,6.8-8.3,5.3-14.2-2.1-7.9-1.9-14.6-.3-22.6,2.4-12.4,4.8-24.2-2.2-35.6Z"/>
  <g>
    <path class="cls-1" d="M395.8,189.4c12.8-24.9,33.6-36.8,61.3-37.8,46-1.6,87.9,7.3,117.2,46.8,8.3,11.1,14.7,23.7,21.9,35.6-.2,7.5,4.2,13.1,8.2,18.8,31.3,56.9,40.1,118.3,35.1,182.1-3,38.1-5.2,85.7-9,90.1-4.2,4.7-24,25.4-56.3,27.2-24.7,3.2-49.3,5.3-74,0-19.5-4.2-40.7-5.3-55.8-19.6-21.4-20.3-33.6-47.1-41.2-74.9-9.3-34.1-18.9-68-20.4-104.2-1.6-38.4-2.5-76.2,2.7-114.4,2.3-17,14.1-31.6,10.5-49.5Z"/>
    <path class="cls-1" d="M1031.9,550.8c.5-3.1,1.1-6.2,4.2-7.9,10.6-2.5,11.2-12.3,14.7-20.1,40.5-59.9,125-95,194.9-79.6,33.5,7.4,52.9,29.9,57.9,77.5,8.9,84.9-17.5,161.6-63.3,231.9-9.7,14.9-7.4,21.1-10.9,22.6-4.2,6.3-33.5,27.3-70,27.3-24.1-1.4-48.3-2.2-72.5-9.1-33.1-9.4-53.7-31.1-72.5-56.4-4.3-5.7-8.4-12-10.3-20.1-5.1-21.1-.6-42-1.2-62.9-.1-5.9-6-11.5-2.5-16,12-15.2,14.4-34.2,20.6-51.5,4.2-11.6,15.5-21.7,11.1-36Z"/>
    <path class="cls-1" d="M908.3,548c-12.2,3.8-19.2,1.1-29.4,3.6-20.4,7.6-63.4-7.4-76.5-21.9-93.1-111.3-28.3-269.6,49.6-373.2,75.8-33.3,161.3,58.7,164.6,130.6,9.4,99.5-.7,221.8-108.3,260.8Z"/>
    <path class="cls-1" d="M99.6,532.8c23-26.8,73.8-81.9,125.2-80.2,24.7.8,30.2,25.8,50.2,39,44.3,29.1,72.7,71.6,97.1,117.4,21,39.4,37.2,80,34.3,125.9-.9,14.2,24.4,12.5,13.8,23.2-5,.7-20.4,15.8-24.7,19.6-14.4,12.9-18.5,11.8-33.5,23.5-24.1,18.8-83.5,21.6-107.5,13.6-22.1-7.4-41.8-23.7-59.3-40.8-23.4-22.8-38.1-51-52.2-79.8-25-51-66.4-134.6-43.3-161.4Z"/>
    <path class="cls-1" d="M1079.9,1041.9c-17.1-67.6-51.1-124.2-105.1-168.6-18.8-15.5-41.5-25.2-59.1-42.8-25.7-25.7-42.9-57.1-62.8-86.8-26.3-39.2-57.5-71.9-104.6-86.1-37.6-11.4-75.8-12.1-114-7.1-38.2,5.1-71.2,21.4-95.9,52.4-16.9,21.3-29.4,45.3-41.8,69.2-16.1,31-36.2,57.8-65.6,77.5-9.3,6.2-17,14.9-25.9,21.8-.9.7-1.8,1.4-2.8,2.1-3.6,2.5-6.8,5.4-9.9,8.5l-1.1.9c-7.7,6.7-15.6,14.3-23.5,22.9-1.7,1.2-3.5,2.3-5.5,3.3-1.3,2.5-2.7,5-4,7.5,0,0,0,0,0,0-16.9,20.5-33,45.7-45,76.6-8.1,15.7-13.6,32-14.4,49.2-5.8,28.6-8.2,60.9-5.6,97.1,9.6,134.4,248.6,79.5,300.6,60.5,0,0,0,0,0,0,9.3-3,18.6-6.6,27.8-10.6,41.2-18.1,86.1-16,130-11.6,64.8,6.6,126.5,28.5,190.7,38.2,31.7,4.8,63.7,5.4,95.4-1.6,5.5-1.2,11.3-.5,17-.6,2.6-3,5.3-6.1,7.9-9.1-2-.9-5.7-1.8-3.3-4.5,2.5-2.9,3.6.8,4.7,2.7,2.7-4.4,5.9-8.5,8-13.2,21.4-48.3,20.1-97.5,7.4-147.7Z"/>
  </g>
  <g>
    <path class="cls-4" d="M423.3,174.1c12.8-24.9,33.6-36.8,61.3-37.8,46-1.6,87.9,7.3,117.2,46.8,8.3,11.1,14.7,23.7,21.9,35.6-.2,7.5,4.2,13.1,8.2,18.8,31.3,56.9,40.1,118.3,35.1,182.1-3,38.1-11.5,74.7-36.6,105.3-5.4-4.2-9.3-1.7-13.2,2.7-4.2,4.7-8.8,8.4-15.6,9.3-24.7,3.2-49.3,5.3-74,0-19.5-4.2-40.7-5.3-55.8-19.6-21.4-20.3-33.6-47.1-41.2-74.9-9.3-34.1-18.9-68-20.4-104.2-1.6-38.4-2.5-76.2,2.7-114.4,2.3-17,14.1-31.6,10.5-49.5Z"/>
    <path class="cls-4" d="M1059.5,535.5c.5-3.1,1.1-6.2,4.2-7.9,10.6-2.5,11.2-12.3,14.7-20.1,40.5-59.9,125-95,194.9-79.6,33.5,7.4,52.9,29.9,57.9,77.5,8.9,84.9-17.5,161.6-63.3,231.9-9.7,14.9-22.2,28.8-38.5,37.9-2.8-6.2-6.7-2.7-10.3-1.1-10.8,4.6-21.7,13.8-32.1,13.2-24.1-1.4-48.3-2.2-72.5-9.1-33.1-9.4-53.7-31.1-72.5-56.4-4.3-5.7-8.4-12-10.3-20.1-5.1-21.1-.6-42-1.2-62.9-.1-5.9-6-11.5-2.5-16,12-15.2,14.4-34.2,20.6-51.5,4.2-11.6,15.5-21.7,11.1-36Z"/>
    <path class="cls-4" d="M935.8,532.8c-12.2,3.8-9-14.3-19.1-11.7-20.4,7.6-73.6,8-86.8-6.5-93.1-111.3-28.3-269.6,49.6-373.2,75.8-33.3,161.3,58.7,164.6,130.6,9.4,99.5-.7,221.8-108.3,260.8Z"/>
    <path class="cls-4" d="M127.1,517.5c28.3-36.1,58.5-69.7,109.8-68,24.7.8,45.5,13.6,65.5,26.7,44.3,29.1,72.7,71.6,97.1,117.4,21,39.4,37.2,80,34.3,125.9-.9,14.2-3.2,27.7-13.7,38.4-5,.7-10.8-1.3-15,2.5-14.4,12.9-32.5,20.3-47.6,32-24.1,18.8-51.5,14.9-75.5,6.9-22.1-7.4-41.8-23.7-59.3-40.8-23.4-22.8-38.1-51-52.2-79.8-25-51-57.2-140-43.3-161.4Z"/>
    <path class="cls-4" d="M1107.5,1026.7c-17.1-67.6-51.1-124.2-105.1-168.6-18.8-15.5-41.5-25.2-59.1-42.8-25.7-25.7-42.9-57.1-62.8-86.8-26.3-39.2-57.5-71.9-104.6-86.1-37.6-11.4-75.8-12.1-114-7.1-38.2,5.1-74.1,39.8-98.7,70.8-16.9,21.3-29.4,45.3-41.8,69.2-16.1,31-36.2,57.8-65.6,77.5-9.3,6.2-17,14.9-25.9,21.8-.9.7-1.8,1.4-2.8,2.1-3.6,2.5-6.8,5.4-9.9,8.5l-1.1.9c-7.7,6.7-15.6,14.3-23.5,22.9-1.7,1.2-3.5,2.3-5.5,3.3-1.3,2.5-2.7,5-4,7.5,0,0,0,0,0,0-16.9,20.5-33,45.7-45,76.6-8.1,15.7-13.6,32-14.4,49.2-5.8,28.6-5.3,42.4-2.7,78.6,9.6,134.4,248.6,79.5,300.6,60.5,0,0,0,0,0,0,9.3-3,18.6-6.6,27.8-10.6,41.2-18.1,86.1-16,130-11.6,64.8,6.6,126.5,28.5,190.7,38.2,31.7,4.8,63.7,5.4,95.4-1.6,5.5-1.2,11.3-.5,17-.6,2.6-3,5.3-6.1,7.9-9.1-2-.9-5.7-1.8-3.3-4.5,2.5-2.9,3.6.8,4.7,2.7,2.7-4.4,5.9-8.5,8-13.2,21.4-48.3,20.1-97.5,7.4-147.7Z"/>
  </g>
</svg>