<svg width="24" height="25" viewBox="0 0 24 25" fill="none" xmlns="http://www.w3.org/2000/svg">
<path d="M9.70165 2.5C8.46522 2.5 7.46288 3.51269 7.46288 4.7619V13.7774C6.42208 12.7258 4.97209 11.7997 3.65572 13.1297C2.78143 14.013 2.78143 15.4452 3.65572 16.3285C5.08792 17.7755 7.34422 21.5 9.70165 21.5H14.1792C15.4156 21.5 16.8829 21.5 18.209 19.2381C19.5351 16.9762 20 14.4269 20 13C20 11.5731 18.6424 10.4881 17.2786 10.7908C17.0358 9.41493 15.5557 8.58554 14.2798 9.07531C13.7869 8.29074 12.8978 7.81586 12 8V4.7619C12 3.51269 10.9381 2.5 9.70165 2.5Z" stroke="white" stroke-width="2" stroke-linejoin="round"/>
<path d="M11.5 7.5V11.5" stroke="white" stroke-linecap="round" stroke-linejoin="round"/>
<path d="M14.5 8.5V12.5" stroke="white" stroke-linecap="round" stroke-linejoin="round"/>
<path d="M17.5 10.5L17 13.5" stroke="white" stroke-linecap="round" stroke-linejoin="round"/>
</svg>
