<svg width="16" height="16" viewBox="0 0 16 16" fill="none" xmlns="http://www.w3.org/2000/svg">
<g clip-path="url(#clip0_11425_10449)">
<path d="M8 16C12.4183 16 16 12.4183 16 8C16 3.58172 12.4183 0 8 0C3.58172 0 0 3.58172 0 8C0 12.4183 3.58172 16 8 16Z" fill="url(#paint0_linear_11425_10449)"/>
<path fill-rule="evenodd" clip-rule="evenodd" d="M3.62118 7.91596C5.95334 6.89987 7.50848 6.23001 8.2866 5.90636C10.5083 4.98228 10.9699 4.82176 11.2708 4.81646C11.337 4.8153 11.485 4.8317 11.5808 4.90947C11.6618 4.97515 11.684 5.06386 11.6947 5.12612C11.7053 5.18839 11.7186 5.33023 11.7081 5.44106C11.5877 6.70604 11.0667 9.77583 10.8017 11.1926C10.6896 11.7921 10.4687 11.9932 10.255 12.0128C9.7904 12.0556 9.43762 11.7058 8.98766 11.4109C8.28356 10.9493 7.88578 10.662 7.20233 10.2116C6.41248 9.6911 6.9245 9.40502 7.37464 8.9375C7.49244 8.81514 9.53937 6.95331 9.57899 6.78441C9.58394 6.76329 9.58854 6.68455 9.54176 6.64297C9.49499 6.60139 9.42595 6.61561 9.37613 6.62692C9.30551 6.64295 8.18069 7.38641 6.00168 8.8573C5.6824 9.07654 5.39321 9.18336 5.13411 9.17776C4.84847 9.17159 4.29901 9.01625 3.89054 8.88348C3.38954 8.72062 2.99136 8.63452 3.02603 8.35794C3.04409 8.21388 3.24247 8.06655 3.62118 7.91596Z" fill="white"/>
</g>
<defs>
<linearGradient id="paint0_linear_11425_10449" x1="8" y1="0" x2="8" y2="15.8813" gradientUnits="userSpaceOnUse">
<stop stop-color="#2AABEE"/>
<stop offset="1" stop-color="#229ED9"/>
</linearGradient>
<clipPath id="clip0_11425_10449">
<rect width="16" height="16" fill="white"/>
</clipPath>
</defs>
</svg>
