<svg width="16" height="16" viewBox="0 0 16 16" fill="none" xmlns="http://www.w3.org/2000/svg">
<path fill-rule="evenodd" clip-rule="evenodd" d="M1.45508 3.99982C1.45508 2.99567 2.26911 2.18164 3.27326 2.18164H13.4551C14.4592 2.18164 15.2733 2.99567 15.2733 3.99982V4.33658C15.2733 4.58761 15.0223 4.76414 14.7726 4.73828C14.6978 4.73053 14.6219 4.72656 14.5451 4.72656H10.5451C9.34011 4.72656 8.36328 5.7034 8.36328 6.90838V8.72656C8.36328 9.93155 9.34011 10.9084 10.5451 10.9084H14.5451C14.6219 10.9084 14.6978 10.9044 14.7726 10.8967C15.0223 10.8708 15.2733 11.0473 15.2733 11.2984V11.6362C15.2733 12.6403 14.4592 13.4544 13.4551 13.4544H3.27326C2.26911 13.4544 1.45508 12.6403 1.45508 11.6362V3.99982ZM9.5691 6.4205C9.49557 6.56731 9.45419 6.73301 9.45419 6.90838V8.72656C9.45419 9.32905 9.94261 9.81747 10.5451 9.81747H14.5451C14.8249 9.81747 15.0801 9.71212 15.2732 9.53891C15.2733 9.5389 15.2733 9.53889 15.2733 9.53888C15.2733 9.53885 15.2732 9.53883 15.2732 9.53885C15.0801 9.71199 14.8249 9.81729 14.5452 9.81729H10.5452C9.9427 9.81729 9.45428 9.32888 9.45428 8.72638V6.9082C9.45428 6.7329 9.49563 6.56726 9.5691 6.4205Z" fill="white"/>
<path fill-rule="evenodd" clip-rule="evenodd" d="M14.4822 5.45508H10.2469C9.60894 5.45508 9.0918 6.03218 9.0918 6.74406V8.89237C9.0918 9.60425 9.60894 10.1813 10.2469 10.1813H14.4822C15.1201 10.1813 15.6373 9.60425 15.6373 8.89237V6.74406C15.6373 6.03218 15.1201 5.45508 14.4822 5.45508ZM11.2738 8.90865C11.8764 8.90865 12.3648 8.42019 12.3648 7.81764C12.3648 7.2151 11.8764 6.72664 11.2738 6.72664C10.6713 6.72664 10.1828 7.2151 10.1828 7.81764C10.1828 8.42019 10.6713 8.90865 11.2738 8.90865Z" fill="white"/>
</svg>
