<svg width="45" height="44" viewBox="0 0 45 44" fill="none" xmlns="http://www.w3.org/2000/svg">
<path d="M15.166 9.16676C13.354 9.16817 12.4043 9.19119 11.6681 9.56631C10.9781 9.91785 10.4172 10.4788 10.0657 11.1687C9.66602 11.953 9.66602 12.9798 9.66602 15.0333V32.6333C9.66602 34.6869 9.66602 35.7136 10.0657 36.498C10.4172 37.1879 10.9781 37.7488 11.6681 38.1004C12.4524 38.5 13.4792 38.5 15.5327 38.5H29.466C31.5195 38.5 32.5463 38.5 33.3306 38.1004C34.0206 37.7488 34.5815 37.1879 34.933 36.498C35.3327 35.7136 35.3327 34.6869 35.3327 32.6333V15.0333C35.3327 12.9798 35.3327 11.953 34.933 11.1687C34.5815 10.4788 34.0206 9.91785 33.3306 9.56631C32.5944 9.19119 31.6447 9.16817 29.8327 9.16676M15.166 9.16676V12.8333H29.8327V9.16676M15.166 9.16676V8.6297C15.166 7.79965 15.4958 7.0036 16.0827 6.41667C16.6696 5.82973 17.4657 5.5 18.2957 5.5H26.703C27.533 5.5 28.3291 5.82973 28.916 6.41667C29.5029 7.0036 29.8327 7.79965 29.8327 8.6297V9.16676M29.8327 20.1667H26.166M29.8327 29.3333H26.166M15.166 20.1667L16.9993 22L20.666 18.3333M15.166 29.3333L16.9993 31.1667L20.666 27.5" stroke="white" stroke-linecap="round" stroke-linejoin="round"/>
</svg>
