<svg width="24" height="24" viewBox="0 0 24 24" fill="none" xmlns="http://www.w3.org/2000/svg">
<rect x="2.5" y="2.5" width="19" height="19" rx="3.5" stroke="#FFA521"/>
<path d="M15.8843 15.1908C15.4804 15.1908 15.1207 15.1214 14.8051 14.9825C14.4914 14.8419 14.2434 14.6489 14.0613 14.4037C13.881 14.1567 13.7881 13.8718 13.7827 13.549H14.962C14.9692 13.6842 15.0134 13.8032 15.0945 13.906C15.1775 14.007 15.2875 14.0854 15.4245 14.1413C15.5615 14.1972 15.7157 14.2252 15.887 14.2252C16.0655 14.2252 16.2233 14.1936 16.3603 14.1305C16.4974 14.0674 16.6047 13.98 16.6822 13.8682C16.7597 13.7564 16.7985 13.6274 16.7985 13.4814C16.7985 13.3335 16.757 13.2028 16.6741 13.0892C16.5929 12.9738 16.4757 12.8836 16.3225 12.8187C16.171 12.7538 15.9907 12.7214 15.7815 12.7214H15.2649V11.8612H15.7815C15.9582 11.8612 16.1142 11.8306 16.2494 11.7693C16.3865 11.708 16.4929 11.6232 16.5686 11.515C16.6443 11.405 16.6822 11.277 16.6822 11.131C16.6822 10.9921 16.6488 10.8704 16.5821 10.7658C16.5172 10.6594 16.4253 10.5765 16.3062 10.517C16.189 10.4575 16.052 10.4277 15.8951 10.4277C15.7364 10.4277 15.5913 10.4566 15.4597 10.5143C15.328 10.5702 15.2225 10.6504 15.1432 10.755C15.0639 10.8596 15.0215 10.9822 15.0161 11.1228H13.8936C13.899 10.8037 13.9901 10.5224 14.1668 10.279C14.3435 10.0355 14.5815 9.84531 14.8808 9.70827C15.182 9.56942 15.5219 9.5 15.9005 9.5C16.2828 9.5 16.6173 9.56942 16.904 9.70827C17.1907 9.84711 17.4134 10.0346 17.5721 10.2709C17.7325 10.5053 17.8119 10.7685 17.8101 11.0606C17.8119 11.3708 17.7154 11.6295 17.5207 11.8369C17.3277 12.0443 17.0762 12.1759 16.766 12.2318V12.2751C17.1736 12.3274 17.4837 12.4689 17.6965 12.6997C17.9111 12.9287 18.0174 13.2154 18.0156 13.5598C18.0174 13.8754 17.9264 14.1558 17.7425 14.401C17.5603 14.6462 17.3088 14.8392 16.9878 14.9798C16.6669 15.1205 16.299 15.1908 15.8843 15.1908Z" fill="#FFA521"/>
<path d="M9.48476 15.115V14.2712L11.4565 12.4455C11.6242 12.2832 11.7649 12.1371 11.8785 12.0073C11.9939 11.8775 12.0813 11.7503 12.1408 11.6259C12.2003 11.4997 12.2301 11.3636 12.2301 11.2175C12.2301 11.0552 12.1931 10.9155 12.1192 10.7983C12.0453 10.6793 11.9443 10.5882 11.8162 10.5251C11.6882 10.4602 11.5431 10.4277 11.3808 10.4277C11.2113 10.4277 11.0634 10.462 10.9372 10.5305C10.811 10.599 10.7136 10.6973 10.6451 10.8253C10.5766 10.9533 10.5423 11.1057 10.5423 11.2824H9.43066C9.43066 10.92 9.51271 10.6053 9.6768 10.3385C9.84088 10.0716 10.0708 9.86514 10.3665 9.71908C10.6622 9.57303 11.003 9.5 11.3889 9.5C11.7856 9.5 12.1309 9.57032 12.4248 9.71097C12.7205 9.84981 12.9504 10.0428 13.1145 10.2898C13.2786 10.5368 13.3607 10.8199 13.3607 11.1391C13.3607 11.3482 13.3192 11.5547 13.2362 11.7585C13.1551 11.9622 13.0099 12.1885 12.8008 12.4374C12.5916 12.6844 12.2968 12.981 11.9163 13.3272L11.1076 14.1197V14.1576H13.4337V15.115H9.48476Z" fill="#FFA521"/>
<path d="M8.63864 9.57422V15.1135H7.46749V10.6859H7.43503L6.1665 11.4811V10.4424L7.53781 9.57422H8.63864Z" fill="#FFA521"/>
</svg>
