<svg width="70" height="63" viewBox="0 0 70 63" fill="none" xmlns="http://www.w3.org/2000/svg">
<g opacity="0.3" clip-path="url(#clip0_8040_10259)">
<path d="M13.7632 48.9783L14.1154 43.3801C14.1759 42.418 13.8517 41.4713 13.2143 40.7483L10.1544 37.2777C7.65124 34.4384 6.37845 30.7211 6.61608 26.9434L6.67692 25.9762C6.96082 21.4628 9.64138 17.4476 13.701 15.4548L14.0801 15.2687C16.2425 14.2072 18.0097 12.4832 19.1243 10.3477L19.3196 9.97348C21.9046 5.02078 27.8282 2.84108 33.0069 4.937C35.1828 5.81762 37.5855 5.96876 39.8546 5.36774C45.2551 3.93728 50.8589 6.84209 52.8029 12.0797L52.9498 12.4754C53.788 14.7338 55.3252 16.6656 57.3376 17.9897L57.6904 18.2219C61.4683 20.7077 63.6245 25.0271 63.3406 29.5406L63.2798 30.5077C63.0422 34.2854 61.3136 37.8139 58.4743 40.3171L55.0037 43.377C54.2807 44.0144 53.8405 44.913 53.7799 45.8751L53.4278 51.4734C53.2808 53.8106 51.2669 55.5861 48.9297 55.4391L17.729 53.4765C15.3917 53.3295 13.6162 51.3156 13.7632 48.9783Z" fill="#4F4F4F"/>
<path d="M40.3329 33.5632C38.8646 31.9444 38.1717 29.1607 34.9338 28.957C31.6959 28.7533 30.7181 31.3782 29.0001 32.8503C27.2822 34.3225 23.218 34.3339 22.9773 38.1603C22.8406 40.334 24.724 42.5368 26.9598 42.6774C28.8329 42.7952 32.8207 41.4658 34.1417 41.5489C35.4628 41.632 39.2526 43.4506 41.1257 43.5685C43.3615 43.7091 45.5061 41.7597 45.6428 39.586C45.8698 35.9769 41.8011 35.1821 40.3329 33.5632Z" fill="#171717" fill-opacity="0.75"/>
<path d="M29.9318 22.276C32.2619 21.9319 33.7602 19.0085 33.2785 15.7464C32.7967 12.4843 30.5173 10.1188 28.1872 10.4629C25.8572 10.807 24.3588 13.7304 24.8405 16.9925C25.3223 20.2546 27.6017 22.6201 29.9318 22.276Z" fill="#171717" fill-opacity="0.75"/>
<path d="M40.7872 22.9549C43.0558 23.5882 45.6136 21.527 46.5004 18.351C47.3871 15.175 46.2669 12.0868 43.9983 11.4535C41.7297 10.8201 39.1718 12.8813 38.2851 16.0573C37.3983 19.2334 38.5186 22.3215 40.7872 22.9549Z" fill="#171717" fill-opacity="0.75"/>
<path d="M47.8431 34.0308C49.8049 35.3342 52.8746 34.1643 54.6993 31.4178C56.5241 28.6712 56.413 25.388 54.4511 24.0846C52.4893 22.7812 49.4197 23.9511 47.5949 26.6977C45.7701 29.4443 45.8812 32.7274 47.8431 34.0308Z" fill="#171717" fill-opacity="0.75"/>
<path d="M21.454 32.3715C19.3443 33.4188 16.4455 31.8734 14.9793 28.9198C13.5131 25.9662 14.0347 22.7229 16.1444 21.6756C18.2541 20.6283 21.153 22.1736 22.6192 25.1272C24.0854 28.0808 23.5637 31.3242 21.454 32.3715Z" fill="#171717" fill-opacity="0.75"/>
</g>
<defs>
<clipPath id="clip0_8040_10259">
<rect width="65.1942" height="65.1942" fill="white" transform="translate(4.09277) rotate(3.59933)"/>
</clipPath>
</defs>
</svg>
