<svg width="24" height="22" viewBox="0 0 24 22" fill="none" xmlns="http://www.w3.org/2000/svg">
<path d="M10.5978 17.5928L10.2382 17.2454C10.1104 17.3777 10.0508 17.4377 9.98573 17.4787C9.94178 17.5065 9.88551 17.5313 9.77002 17.5313C9.75696 17.5313 9.74519 17.5311 9.73461 17.5308C9.73143 17.5195 9.72791 17.5067 9.72403 17.4923C9.72093 17.4807 9.71766 17.4684 9.71421 17.4554C9.69141 17.3696 9.66049 17.2532 9.61577 17.1214L9.59392 17.0504L10.2511 16.981L10.5333 13.7904L18.071 6.58282C18.186 6.47421 18.3412 6.28819 18.3501 6.03485C18.3551 5.89263 18.3113 5.75169 18.2196 5.63609C18.133 5.52692 18.0239 5.46532 17.9313 5.43163C17.7533 5.3669 17.5667 5.37785 17.4167 5.41062C17.2569 5.44552 17.0925 5.51476 16.9355 5.61564L16.9355 5.61557L16.928 5.62061L7.9647 11.6138L7.6588 11.8183L3.79897 10.5416L3.79898 10.5415L3.79636 10.5407C3.65052 10.4933 3.56612 10.4432 3.52258 10.4084C3.53309 10.3956 3.54769 10.3797 3.56781 10.3608C3.65007 10.2838 3.79685 10.1855 4.03287 10.0849L19.9739 3.56862L19.9879 3.56291L20.0015 3.55638C20.2158 3.4533 20.3299 3.51187 20.3807 3.56399C20.4487 3.63368 20.5683 3.8602 20.4512 4.35793L20.4492 4.36609L20.4476 4.3743L17.7324 17.9348L17.732 17.9365C17.6486 18.3608 17.5143 18.4641 17.4712 18.4847C17.4366 18.5013 17.305 18.5368 17.0025 18.3664L12.8942 15.1495L12.5402 14.8724L12.2271 15.195L12.1492 15.2753C11.21 16.2431 10.3812 17.0971 10.2378 17.2457L10.5978 17.5928ZM10.5978 17.5928C10.7403 17.445 11.5673 16.5928 12.5064 15.6251L12.586 15.5432L9.14007 17.2756C9.18015 17.3928 9.20726 17.4947 9.2306 17.5824C9.31498 17.8996 9.35002 18.0313 9.77002 18.0313C10.1746 18.0313 10.3591 17.8401 10.5825 17.6086C10.5876 17.6034 10.5927 17.5981 10.5978 17.5928ZM17.6521 6.3843C17.6521 6.38437 17.6509 6.38448 17.6486 6.38445C17.651 6.38423 17.6522 6.38424 17.6521 6.3843ZM17.4021 5.8369C17.4023 5.8369 17.4006 5.83931 17.3961 5.84416C17.3995 5.83932 17.4018 5.8369 17.4021 5.8369Z" stroke="#FFA521"/>
</svg>
