<svg width="30" height="30" viewBox="0 0 30 30" fill="none" xmlns="http://www.w3.org/2000/svg">
<path d="M12.3779 12.2581C13.415 12.2581 14.2558 11.081 14.2558 9.62904C14.2558 8.17706 13.415 7 12.3779 7C11.3408 7 10.5 8.17706 10.5 9.62904C10.5 11.081 11.3408 12.2581 12.3779 12.2581Z" stroke="white" stroke-width="0.938943" stroke-miterlimit="10"/>
<path d="M17.6357 12.2581C18.6728 12.2581 19.5136 11.081 19.5136 9.62904C19.5136 8.17706 18.6728 7 17.6357 7C16.5986 7 15.7578 8.17706 15.7578 9.62904C15.7578 11.081 16.5986 12.2581 17.6357 12.2581Z" stroke="white" stroke-width="0.938943" stroke-miterlimit="10"/>
<path d="M21.3928 17.1181C22.3885 17.4082 23.5249 16.5133 23.9311 15.1193C24.3372 13.7253 23.8592 12.36 22.8635 12.0699C21.8677 11.7798 20.7313 12.6748 20.3252 14.0688C19.9191 15.4628 20.397 16.8281 21.3928 17.1181Z" stroke="white" stroke-width="0.938943" stroke-miterlimit="10"/>
<path d="M8.59186 17.1181C7.59612 17.4082 6.45969 16.5133 6.05357 15.1193C5.64744 13.7253 6.12541 12.36 7.12114 12.0699C8.11687 11.7798 9.2533 12.6748 9.65943 14.0688C10.0656 15.4628 9.58759 16.8281 8.59186 17.1181Z" stroke="white" stroke-width="0.938943" stroke-miterlimit="10"/>
<path d="M17.1934 16.6524C16.4678 15.9268 16.4423 14.3989 14.94 14.3989C13.4377 14.3989 13.4377 15.9012 12.6865 16.6524C11.9353 17.4035 9.68188 17.4554 9.68188 19.2814C9.68188 20.3188 10.5224 21.1593 11.5598 21.1593C12.4289 21.1593 14.327 20.4082 14.94 20.4082C15.5529 20.4082 17.4511 21.1593 18.3202 21.1593C19.3575 21.1593 20.1981 20.3188 20.1981 19.2814C20.1981 17.559 17.919 17.378 17.1934 16.6524Z" stroke="white" stroke-width="0.938943" stroke-miterlimit="10"/>
<path fill-rule="evenodd" clip-rule="evenodd" d="M11.5163 25.8166H8.83836C7.24533 25.8166 5.95393 24.5252 5.95393 22.9322V20.6178C5.54822 20.4259 5.18304 20.1933 4.86824 19.9456C3.77232 19.0825 3.01213 17.8631 2.63115 16.5558C2.25035 15.2482 2.23662 13.8113 2.69752 12.4948C3.15578 11.1862 4.22319 9.70768 6.10924 9.15823C6.27684 9.10928 6.44285 9.0702 6.60711 9.03991C6.7233 9.01844 6.83862 9.00154 6.95305 8.98886C7.12593 8.07885 7.48103 7.19912 8.02873 6.43242C8.83451 5.30427 10.2728 4.18335 12.2374 4.18335C13.2127 4.18335 14.0583 4.45958 14.7613 4.87594C15.4641 4.45958 16.3098 4.18335 17.2852 4.18335C19.2496 4.18335 20.6879 5.30427 21.4939 6.43242C22.0462 7.20563 22.4025 8.09381 22.5738 9.0121C22.6787 9.02759 22.7844 9.04678 22.8907 9.06985C23.006 9.09485 23.1222 9.12425 23.2391 9.15823C25.1252 9.70768 26.1927 11.1862 26.6508 12.4948C27.1117 13.8113 27.098 15.2482 26.7171 16.5558C26.3362 17.8631 25.576 19.0825 24.4801 19.9456C24.3257 20.0671 24.1592 20.185 23.9816 20.2962V22.9322C23.9816 24.5252 22.6903 25.8166 21.0972 25.8166H18.0063H11.5163Z" stroke="white" stroke-width="1.80277"/>
</svg>
