<svg width="27" height="26" viewBox="0 0 27 26" fill="none" xmlns="http://www.w3.org/2000/svg">
<path d="M5.88218 20.4555V18.8733C5.88218 18.5077 5.73696 18.1571 5.47845 17.8986L4.23767 16.6578C3.2226 15.6427 2.65234 14.266 2.65234 12.8305V12.4629C2.65234 10.7479 3.57134 9.16425 5.06047 8.31332L5.19953 8.23385C5.99275 7.78059 6.62057 7.08597 6.99162 6.25113L7.05663 6.10484C7.91715 4.16868 10.1074 3.20262 12.1174 3.87264C12.9619 4.15415 13.875 4.15415 14.7195 3.87264C16.7296 3.20262 18.9198 4.16869 19.7803 6.10484L19.8453 6.25113C20.2164 7.08597 20.8442 7.78059 21.6374 8.23385L21.7765 8.31332C23.2656 9.16425 24.1846 10.7478 24.1846 12.4629V12.8305C24.1846 14.266 23.6143 15.6427 22.5993 16.6578L21.3585 17.8986C21.1 18.1571 20.9548 18.5077 20.9548 18.8733V20.4555C20.9548 21.6447 19.9907 22.6087 18.8015 22.6087H8.03541C6.84621 22.6087 5.88218 21.6447 5.88218 20.4555Z" fill="#FFA521"/>
<path d="M11.3674 10.5076C12.2411 10.3218 12.7387 9.17964 12.4787 7.95639C12.2187 6.73315 11.2996 5.89206 10.4258 6.07778C9.55206 6.26351 9.05453 7.4057 9.31454 8.62895C9.57455 9.8522 10.4936 10.6933 11.3674 10.5076Z" fill="white"/>
<path d="M15.492 10.5082C16.3658 10.694 17.2849 9.85288 17.5449 8.62963C17.8049 7.40638 17.3074 6.26419 16.4336 6.07847C15.5599 5.89274 14.6408 6.73383 14.3808 7.95707C14.1208 9.18032 14.6183 10.3225 15.492 10.5082Z" fill="white"/>
<path d="M18.4254 14.5315C19.199 14.9781 20.333 14.4622 20.9583 13.3792C21.5836 12.2962 21.4634 11.0561 20.6898 10.6095C19.9162 10.1628 18.7822 10.6788 18.1569 11.7618C17.5316 12.8448 17.6518 14.0849 18.4254 14.5315Z" fill="white"/>
<path d="M8.40076 14.5315C7.62717 14.9781 6.49315 14.4622 5.86786 13.3792C5.24258 12.2962 5.3628 11.0561 6.13639 10.6095C6.90999 10.1628 8.04401 10.6788 8.66929 11.7618C9.29458 12.8448 9.17436 14.0849 8.40076 14.5315Z" fill="white"/>
<path d="M15.573 14.5329C14.9787 13.9551 14.6501 12.918 13.4197 12.918C12.1893 12.918 11.8817 13.9348 11.2665 14.5329C10.6513 15.131 9.11328 15.2321 9.11328 16.6861C9.11328 17.5121 9.8786 18.301 10.7282 18.301C11.44 18.301 12.9177 17.7029 13.4197 17.7029C13.9217 17.7029 15.3995 18.301 16.1113 18.301C16.9609 18.301 17.7262 17.5121 17.7262 16.6861C17.7262 15.3146 16.1672 15.1107 15.573 14.5329Z" fill="white"/>
</svg>
