<svg width="26" height="26" viewBox="0 0 26 26" fill="none" xmlns="http://www.w3.org/2000/svg">
<path d="M5.46421 20.4555V18.8733C5.46421 18.5077 5.31899 18.1571 5.06048 17.8986L3.8197 16.6578C2.80463 15.6427 2.23438 14.266 2.23438 12.8305V12.4629C2.23438 10.7479 3.15338 9.16425 4.6425 8.31332L4.78156 8.23385C5.57478 7.78059 6.20261 7.08597 6.57365 6.25113L6.63866 6.10484C7.49918 4.16868 9.6894 3.20262 11.6994 3.87264C12.544 4.15415 13.457 4.15415 14.3016 3.87264C16.3116 3.20262 18.5018 4.16869 19.3623 6.10484L19.4274 6.25113C19.7984 7.08597 20.4262 7.78059 21.2194 8.23385L21.3585 8.31332C22.8476 9.16425 23.7666 10.7478 23.7666 12.4629V12.8305C23.7666 14.266 23.1964 15.6427 22.1813 16.6578L20.9405 17.8986C20.682 18.1571 20.5368 18.5077 20.5368 18.8733V20.4555C20.5368 21.6447 19.5728 22.6087 18.3836 22.6087H7.61744C6.42825 22.6087 5.46421 21.6447 5.46421 20.4555Z" fill="white" fill-opacity="0.09"/>
<path d="M10.9475 10.5076C11.8212 10.3218 12.3188 9.17964 12.0587 7.95639C11.7987 6.73315 10.8796 5.89206 10.0059 6.07778C9.13214 6.26351 8.63461 7.4057 8.89462 8.62895C9.15463 9.8522 10.0737 10.6933 10.9475 10.5076Z" fill="white" fill-opacity="0.3"/>
<path d="M15.0721 10.5082C15.9459 10.694 16.865 9.85288 17.125 8.62963C17.385 7.40638 16.8875 6.26419 16.0137 6.07847C15.14 5.89274 14.2209 6.73383 13.9609 7.95707C13.7008 9.18032 14.1984 10.3225 15.0721 10.5082Z" fill="white" fill-opacity="0.3"/>
<path d="M18.0074 14.5315C18.781 14.9781 19.9151 14.4622 20.5403 13.3792C21.1656 12.2962 21.0454 11.0561 20.2718 10.6095C19.4982 10.1628 18.3642 10.6788 17.7389 11.7618C17.1136 12.8448 17.2338 14.0849 18.0074 14.5315Z" fill="white" fill-opacity="0.3"/>
<path d="M7.98084 14.5315C7.20725 14.9781 6.07323 14.4622 5.44794 13.3792C4.82265 12.2962 4.94288 11.0561 5.71647 10.6095C6.49007 10.1628 7.62408 10.6788 8.24937 11.7618C8.87466 12.8448 8.75444 14.0849 7.98084 14.5315Z" fill="white" fill-opacity="0.3"/>
<path d="M15.153 14.5329C14.5587 13.9551 14.2302 12.918 12.9998 12.918C11.7694 12.918 11.4618 13.9348 10.8466 14.5329C10.2314 15.131 8.69336 15.2321 8.69336 16.6861C8.69336 17.5121 9.45868 18.301 10.3083 18.301C11.0201 18.301 12.4978 17.7029 12.9998 17.7029C13.5018 17.7029 14.9795 18.301 15.6913 18.301C16.5409 18.301 17.3063 17.5121 17.3063 16.6861C17.3063 15.3146 15.7473 15.1107 15.153 14.5329Z" fill="white" fill-opacity="0.3"/>
</svg>
