<svg width="57" height="62" viewBox="0 0 57 62" fill="none" xmlns="http://www.w3.org/2000/svg">
<g filter="url(#filter0_dd_9557_13131)">
<path d="M39.0501 27.8141C35.0883 25.9564 32.2417 24.263 30.0965 22.4875C28.1883 20.9078 27.0446 19.4261 25.8314 17.8559L25.6703 17.6442L25.3733 17.284L25.1111 16.9176C25.07 16.8512 25.0258 16.788 24.9815 16.7248L24.7541 16.4089C23.1428 14.2953 20.748 13.2117 18.3406 13.5055C18.0373 13.5434 17.734 13.6034 17.4339 13.6856C16.1954 13.0442 14.3283 12.9431 13.4752 13.556C12.9413 13.9415 12.7454 14.5765 12.9729 15.1862C13.0519 15.3948 13.1561 15.6191 13.2636 15.8371C13.3741 16.0614 13.4942 16.2762 13.6016 16.4689C13.5447 16.5511 13.491 16.6332 13.4373 16.7154C12.578 18.0549 12.1136 19.6725 12.1136 21.3691C12.1136 21.7387 12.1357 22.0925 12.1767 22.4496L12.1862 22.5191C12.3094 23.5111 12.5906 24.4747 13.014 25.3593C13.014 25.3656 13.0171 25.3688 13.0203 25.3751C11.984 26.1902 11.2511 27.3528 10.9193 28.6734C10.7171 29.457 10.6603 30.2973 10.7645 31.1535C10.793 31.3652 10.8246 31.5326 10.8593 31.6938C10.8688 31.7506 10.8846 31.8107 10.9004 31.8833C10.9162 31.956 10.9351 32.0255 10.9541 32.0918C10.9699 32.155 10.9857 32.2151 11.0046 32.2782L11.0362 32.373C11.0489 32.4173 11.0647 32.4615 11.0805 32.5057C11.0963 32.5531 11.1152 32.6037 11.1373 32.6668C11.2068 32.8501 11.2827 33.027 11.3616 33.2008L11.3743 33.2292C11.4153 33.3114 11.4627 33.3967 11.5101 33.4851C11.5449 33.5483 11.5828 33.6146 11.6175 33.6778L12.1673 34.474C12.2842 34.6193 12.4042 34.752 12.5243 34.8752L12.5464 34.9005C12.5685 34.9226 12.5906 34.9447 12.6127 34.97C12.6443 35.0016 12.6791 35.0332 12.7138 35.0648C12.7581 35.109 12.8023 35.1532 12.856 35.1943C12.8781 35.2164 12.9002 35.2386 12.9255 35.2543C12.9445 35.2765 12.9666 35.2923 12.9855 35.3081C13.0171 35.3365 13.0487 35.3649 13.0835 35.3902L13.1498 35.4439C13.1751 35.4629 13.2004 35.4818 13.2225 35.5008L13.3425 35.5892C13.3647 35.605 13.3868 35.6208 13.4089 35.6366C13.4626 35.6745 13.5195 35.7125 13.5763 35.7504C13.3899 36.3159 13.2857 36.9067 13.2636 37.5101C13.2478 37.8703 13.2636 38.2336 13.3078 38.5969C13.3204 38.6949 13.3362 38.7928 13.3489 38.8718C13.3583 38.9571 13.3773 39.0424 13.3962 39.1277C13.4026 39.1624 13.4089 39.1972 13.4184 39.2351V39.2477C13.4373 39.3236 13.4563 39.4057 13.4752 39.4815C13.5416 39.728 13.6206 39.9744 13.7153 40.2177L13.7469 40.2935C13.7754 40.3693 13.8038 40.4451 13.8322 40.502L13.9207 40.6916C13.9428 40.7421 13.9681 40.7895 13.9965 40.8401C14.0376 40.9222 14.0818 41.0043 14.1229 41.0802C14.1355 41.1023 14.1513 41.1276 14.164 41.1497L14.2461 41.2824C14.2461 41.2824 14.2493 41.2918 14.2524 41.295L14.2935 41.4056L14.3946 41.513C14.3946 41.513 14.4104 41.5319 14.4167 41.5446C14.4357 41.573 14.4578 41.6046 14.4862 41.6457L14.5494 41.731C14.5778 41.7689 14.6031 41.8068 14.6347 41.8416C14.6789 41.9016 14.7263 41.9616 14.7611 41.9995C14.8085 42.0596 14.859 42.1164 14.9096 42.1765L14.9475 42.2175C14.9728 42.2428 14.998 42.2712 15.0233 42.2965C15.0644 42.3407 15.1086 42.3881 15.156 42.4324C15.1623 42.4418 15.1718 42.4482 15.1781 42.4576V42.4924L15.5857 42.8241L15.7468 42.9536C15.7847 42.9821 15.8195 43.0074 15.8416 43.0232C15.8574 43.0358 15.8826 43.0547 15.9174 43.0769C15.9616 43.1085 16.0027 43.14 16.0469 43.1653C16.246 43.3043 16.4576 43.4275 16.6756 43.5381C16.7262 43.5634 16.7799 43.5887 16.8336 43.6139C16.9126 43.6519 16.9884 43.6866 17.0706 43.715C17.1938 43.7688 17.3233 43.8161 17.4718 43.8635L17.7877 43.9583C17.8225 43.9678 17.8604 43.9773 17.8951 43.9836L17.9741 44.0025C18.0247 44.0152 18.0721 44.0247 18.1226 44.0341C18.17 44.0436 18.2206 44.0531 18.2869 44.0626L18.3848 44.0878H18.4417C18.4828 44.0942 18.5239 44.0973 18.5681 44.1005H18.587L18.5965 44.1036L18.6818 44.1131C18.745 44.1194 18.8082 44.1226 18.8714 44.1258H18.9093C19.2157 44.1416 19.5001 44.1321 19.816 44.091C20.4605 44.0152 21.0829 43.8193 21.6548 43.5223C24.3433 46.7354 28.3936 50.7604 33.3411 53.1678C34.8829 53.9165 36.4089 54.2893 37.9095 54.2893C39.4102 54.2893 40.9362 53.9039 42.399 53.133C43.9849 52.2958 45.3751 51.0731 46.563 49.6925H46.5661C49.5075 46.2741 51.204 41.8826 51.4884 39.9807C52.1834 35.2733 49.6244 32.7743 39.0501 27.8141ZM50.3668 39.8164C50.0793 41.7626 48.1837 46.4605 45.0054 49.7336C42.1968 52.6244 38.3866 54.4031 33.7992 52.1726C29.0855 49.8821 25.1901 46.0719 22.4225 42.7451C22.2266 42.5113 22.0402 42.2839 21.857 42.0564C21.7116 42.1733 21.56 42.2839 21.3988 42.3786C20.8807 42.7041 20.2931 42.9157 19.6581 42.9947C19.478 43.0168 19.301 43.0295 19.1241 43.0295C19.0515 43.0295 18.982 43.0263 18.9093 43.0232H18.8998C18.8366 43.0168 18.7734 43.0137 18.7134 43.0074C18.7008 43.0074 18.6881 43.0042 18.6787 43.0042C18.6155 42.9979 18.5523 42.9916 18.4923 42.9821C18.4859 42.9821 18.4796 42.9789 18.4733 42.9789C18.4164 42.9694 18.3627 42.96 18.3059 42.9473C18.2648 42.941 18.2237 42.9315 18.1826 42.9221C18.1321 42.9094 18.0815 42.8999 18.031 42.8841C17.9804 42.8715 17.9299 42.8589 17.8793 42.8431C17.8667 42.8368 17.8541 42.8336 17.8414 42.8304C17.7119 42.7894 17.5824 42.7451 17.4592 42.6914C17.3928 42.6661 17.3296 42.6377 17.2664 42.6061C17.2317 42.5935 17.2001 42.5777 17.1685 42.5587C16.9789 42.4671 16.7957 42.3597 16.6188 42.2365C16.584 42.2175 16.5524 42.1922 16.5177 42.167C16.505 42.1607 16.4956 42.1512 16.4829 42.1417C16.4482 42.1164 16.4103 42.088 16.3755 42.0596C16.3692 42.0564 16.366 42.0532 16.3629 42.0501C16.3281 42.0216 16.2902 41.9964 16.2586 41.9648H16.2554C16.2081 41.9269 16.1607 41.8826 16.1133 41.8416C16.0943 41.8258 16.0754 41.81 16.0564 41.791C16.0059 41.7468 15.9585 41.6994 15.9111 41.6488C15.8669 41.6078 15.8258 41.5635 15.7847 41.5193C15.7594 41.4972 15.7373 41.4719 15.7184 41.4498C15.6741 41.3993 15.6331 41.3487 15.5888 41.2982C15.5509 41.2539 15.513 41.2065 15.4783 41.1591C15.4435 41.1181 15.4119 41.0738 15.3803 41.0328C15.3519 40.9949 15.3266 40.9569 15.3013 40.919C15.2792 40.8843 15.2539 40.8495 15.2318 40.8148C15.2255 40.8085 15.2192 40.799 15.216 40.7927C15.1971 40.7611 15.175 40.7295 15.156 40.6947C15.1497 40.6884 15.1465 40.6821 15.1434 40.6726C15.1181 40.6315 15.0928 40.5936 15.0707 40.5494C15.0296 40.4799 14.9886 40.4072 14.9506 40.3346C14.9348 40.2998 14.9159 40.2651 14.9001 40.2303C14.8843 40.2019 14.8717 40.1734 14.859 40.1482C14.8432 40.1134 14.8306 40.0818 14.8148 40.0471C14.7927 39.9997 14.7706 39.9491 14.7516 39.9017C14.739 39.8701 14.7295 39.8417 14.7169 39.8101C14.641 39.6142 14.5747 39.4089 14.521 39.2004C14.502 39.1308 14.4831 39.055 14.4673 38.9824C14.4641 38.9571 14.4578 38.9318 14.4515 38.9097C14.4388 38.8434 14.4262 38.7802 14.4167 38.7138C14.4009 38.6348 14.3914 38.5527 14.382 38.4706C14.363 38.3189 14.3504 38.1704 14.3472 38.0219C14.3125 37.3237 14.4136 36.6508 14.6252 36.0347L14.6726 35.902C14.6884 35.8578 14.7042 35.8135 14.7232 35.7693C14.739 35.7282 14.7548 35.684 14.7769 35.6429C14.7958 35.5987 14.8148 35.5545 14.8337 35.5134C14.8432 35.485 14.8559 35.4597 14.8685 35.4313C14.9001 35.3681 14.9317 35.3081 14.9633 35.2449C14.7927 35.1754 14.6284 35.0995 14.4704 35.0111C14.4673 35.0079 14.4641 35.0079 14.4641 35.0079C14.3377 34.9384 14.2145 34.8657 14.0945 34.7836C14.066 34.7646 14.0344 34.7457 14.006 34.7236C13.9934 34.7173 13.9839 34.7078 13.9712 34.6983C13.9523 34.6825 13.9302 34.6667 13.9081 34.6509C13.867 34.6225 13.8291 34.5909 13.788 34.5593C13.7501 34.5277 13.709 34.4961 13.668 34.4614C13.63 34.4298 13.5921 34.395 13.5542 34.3603C13.5226 34.335 13.491 34.3065 13.4626 34.275C13.431 34.2465 13.3994 34.2181 13.371 34.1865C13.3425 34.1612 13.3173 34.1328 13.2888 34.1043C13.1593 33.9685 13.0361 33.8295 12.9255 33.681C12.8876 33.6336 12.8528 33.5894 12.8181 33.542C12.7897 33.5009 12.7644 33.463 12.7359 33.4219C12.7233 33.403 12.7107 33.384 12.7012 33.3682C12.7012 33.3682 12.7001 33.3672 12.698 33.3651C12.6696 33.324 12.6443 33.2829 12.6191 33.2418C12.6001 33.2134 12.5843 33.185 12.5685 33.1534C12.5274 33.087 12.4864 33.0175 12.4516 32.948C12.4137 32.8785 12.3758 32.809 12.341 32.7364C12.2684 32.5879 12.2052 32.4331 12.1452 32.2751C12.1294 32.2309 12.1136 32.1835 12.0978 32.1361C12.0756 32.0792 12.0567 32.0223 12.0409 31.9686C12.0251 31.9149 12.0093 31.8612 11.9967 31.8075C11.9809 31.7538 11.9682 31.7001 11.9524 31.6432C11.9398 31.5895 11.9272 31.5326 11.9177 31.4789C11.8829 31.321 11.8545 31.163 11.8355 31.0019C11.7818 30.5722 11.7787 30.152 11.8229 29.7413C11.9682 28.3101 12.6633 27.0432 13.6995 26.2344C13.7596 26.187 13.8196 26.1397 13.8828 26.0954C13.9112 26.0733 13.9428 26.0544 13.9744 26.0322C14.006 26.0101 14.0376 25.988 14.0692 25.9691C14.1292 25.928 14.1892 25.8932 14.2524 25.8585C14.2777 25.8427 14.3061 25.83 14.3314 25.8174C14.3377 25.8142 14.3409 25.8111 14.3472 25.8079C14.3535 25.8048 14.3598 25.8016 14.3693 25.7985C14.4009 25.7795 14.4357 25.7605 14.4673 25.7447C14.442 25.7068 14.4167 25.6658 14.3914 25.6247C14.3662 25.5836 14.3409 25.5394 14.3156 25.4983C14.2745 25.432 14.2366 25.3656 14.2019 25.2961C14.1924 25.2803 14.1829 25.2614 14.1734 25.2456C14.066 25.0497 13.9649 24.8443 13.8733 24.6358C13.5669 23.9439 13.3552 23.1857 13.2572 22.3832C13.2572 22.3706 13.2541 22.3643 13.2541 22.3548C13.213 22.0199 13.1941 21.6945 13.1941 21.3691C13.1941 20.2064 13.4436 19.1007 13.8923 18.1339C14.1545 17.5652 14.4862 17.0471 14.8748 16.589C14.8875 16.5763 14.9001 16.5606 14.9096 16.5479C14.9759 16.4689 15.0454 16.3931 15.1181 16.3204C15.1718 16.2636 15.2255 16.2099 15.2824 16.1562C15.295 16.1404 15.3076 16.1277 15.3234 16.1151C15.3772 16.0614 15.434 16.0108 15.4909 15.9603C15.513 15.9382 15.5383 15.9192 15.5636 15.9003C15.6236 15.8465 15.6836 15.796 15.7436 15.7486C15.6804 15.6443 15.6078 15.5211 15.532 15.3916C15.7152 15.4169 15.9016 15.4548 16.0754 15.5085C16.1607 15.4453 16.2491 15.3916 16.3376 15.341C16.3471 15.3347 16.3565 15.3284 16.3692 15.3221C16.4513 15.2715 16.5398 15.221 16.6251 15.1768C16.7199 15.1262 16.8178 15.0788 16.9158 15.0346C17.0137 14.9904 17.1116 14.9493 17.2127 14.9114C17.2254 14.9051 17.2412 14.9019 17.2538 14.8956C17.6329 14.7566 18.0342 14.6555 18.448 14.6049C20.5363 14.349 22.5299 15.3474 23.8505 17.0787C23.9863 17.2619 24.1159 17.4483 24.2391 17.6442C24.3402 17.7737 24.4381 17.897 24.5361 18.0233H24.5392C25.942 19.8305 27.1552 21.5081 29.3667 23.3373C31.3444 24.977 34.1215 26.7336 38.554 28.8156C49.5517 33.9748 50.9102 36.1484 50.3668 39.8164Z" fill="black"/>
<path d="M17.2538 14.8963C17.2538 14.8963 17.2254 14.9058 17.2127 14.9121C17.1116 14.95 17.0137 14.9911 16.9158 15.0353C16.8178 15.0796 16.7199 15.1269 16.6251 15.1775C16.5398 15.2217 16.4513 15.2723 16.3692 15.3228C16.3566 15.3291 16.3471 15.3355 16.3376 15.3418C16.2491 15.3923 16.1607 15.446 16.0754 15.5092C16.0185 15.544 15.9616 15.5851 15.9079 15.6261C15.8511 15.664 15.7974 15.7083 15.7437 15.7493C15.6836 15.7967 15.6204 15.8473 15.5636 15.901C15.5383 15.9199 15.513 15.9389 15.4909 15.961C15.434 16.0116 15.3772 16.0621 15.3235 16.1158C15.3077 16.1285 15.295 16.1411 15.2824 16.1569C15.2255 16.2074 15.1718 16.2643 15.1181 16.3212C15.0454 16.3938 14.9759 16.4697 14.9096 16.5486C14.7801 16.3465 14.2303 15.446 13.9807 14.7921C13.7059 14.0591 16.2302 14.0623 17.2538 14.8963Z" fill="#AEA9AD"/>
<path d="M50.3667 39.8157C50.0792 41.7618 48.1836 46.4598 45.0053 49.7328C32.1499 49.6507 22.4634 38.4824 22.4634 38.4824C19.8885 39.9547 16.5333 38.9785 14.3471 38.0212C14.3123 37.323 14.4134 36.65 14.6251 36.034L14.6725 35.9013C14.6883 35.857 14.7072 35.8128 14.723 35.7686C14.7388 35.7275 14.7546 35.6833 14.7767 35.6422C14.7957 35.598 14.8146 35.5537 14.8336 35.5127C14.8431 35.4842 14.8557 35.459 14.8684 35.4305C14.8999 35.3673 14.9315 35.3042 14.9631 35.2441C14.7925 35.1746 14.6282 35.0988 14.4703 35.0103C14.4671 35.0072 14.464 35.0072 14.464 35.0072C14.3376 34.9377 14.2144 34.865 14.0943 34.7829C14.0659 34.7639 14.0343 34.745 14.0059 34.7228C13.9932 34.7165 13.9837 34.707 13.9711 34.6976C14.6598 33.9267 16.467 32.2775 19.3293 32.2775C17.6612 32.1385 13.9269 31.6267 11.8228 29.7406C11.9681 28.3094 12.6631 27.0425 13.6994 26.2337C13.7594 26.1863 13.8195 26.1389 13.8826 26.0947C13.9111 26.0726 13.9427 26.0505 13.9743 26.0315C14.0059 26.0094 14.0374 25.9873 14.069 25.9683C14.1291 25.9304 14.1923 25.8925 14.2523 25.8577C14.2776 25.8419 14.306 25.8293 14.3313 25.8167C14.3376 25.8135 14.3407 25.8104 14.3471 25.8072C14.3534 25.804 14.3597 25.8009 14.3692 25.7977C14.4008 25.7788 14.4355 25.7598 14.4671 25.744C14.4418 25.7061 14.4166 25.665 14.3913 25.6239C14.366 25.5829 14.3407 25.5418 14.3155 25.4976C14.2744 25.4312 14.2365 25.3649 14.2017 25.2954C14.1923 25.2796 14.1828 25.2606 14.1733 25.2448C14.0659 25.049 13.9648 24.8436 13.8732 24.6351C14.8399 24.2054 17.0262 23.5072 19.5157 24.5245C16.2206 22.7521 14.6377 20.0509 13.8921 18.1332C14.1543 17.5645 14.4861 17.0464 14.8747 16.5882C14.8873 16.5756 14.8999 16.5598 14.9094 16.5472C14.9758 16.4682 15.0453 16.3924 15.1179 16.3197C15.1716 16.2628 15.2254 16.2091 15.2822 16.1554C15.2949 16.1396 15.3075 16.127 15.3233 16.1143C15.377 16.0606 15.4339 16.0101 15.4907 15.9595C15.5129 15.9374 15.5381 15.9185 15.5634 15.8995C15.6234 15.8458 15.6835 15.7953 15.7435 15.7479C15.7972 15.7068 15.8509 15.6626 15.9078 15.6247C15.9615 15.5836 16.0184 15.5425 16.0752 15.5078C16.1605 15.4477 16.249 15.394 16.3374 15.3403C16.3469 15.334 16.3564 15.3277 16.369 15.3214C16.4512 15.2708 16.5396 15.2203 16.6249 15.176C16.7197 15.1255 16.8177 15.0781 16.9156 15.0339C17.0135 14.9896 17.1115 14.9486 17.2126 14.9106C17.2252 14.9043 17.241 14.9012 17.2537 14.8948C17.6328 14.7558 18.034 14.6547 18.4479 14.6042C20.5362 14.3483 22.5297 15.3466 23.8503 17.0779C23.9862 17.2612 24.1157 17.4476 24.2389 17.6435C24.34 17.773 24.438 17.8962 24.5359 18.0226H24.5391C25.9418 19.8297 27.155 21.5073 29.3665 23.3366C31.3443 24.9763 34.1213 26.7329 38.5539 28.8149C49.5515 33.9741 50.9101 36.1477 50.3667 39.8157Z" fill="#F8F8F8"/>
<path d="M14.4675 25.7454C14.1958 25.8813 13.9367 26.0424 13.6997 26.2351C13.3901 25.8276 13.1153 25.36 12.9162 24.8292C12.8215 24.5859 12.9447 24.3111 13.1911 24.2195C13.4344 24.1247 13.7092 24.2479 13.8008 24.4943C13.9019 24.7629 14.0283 25.0156 14.1736 25.2462C14.2621 25.4168 14.3632 25.5843 14.4675 25.7454Z" fill="black"/>
<path d="M14.9634 35.2443C14.8307 35.4939 14.717 35.7593 14.6254 36.0341C14.1104 35.9046 13.7882 35.7687 13.7755 35.7656C13.5354 35.6645 13.4217 35.3865 13.5228 35.1432C13.6239 34.9031 13.905 34.7893 14.1452 34.8904C14.1704 34.8999 14.2842 34.9473 14.4642 35.0073C14.4642 35.0073 14.4674 35.0073 14.4706 35.0105C14.6285 35.099 14.7928 35.1748 14.9634 35.2443Z" fill="black"/>
<path d="M22.4229 42.7454C22.2681 42.8875 22.1038 43.0297 21.9301 43.1687C21.8416 43.2382 21.7374 43.273 21.6331 43.273C21.4941 43.273 21.3551 43.213 21.2635 43.0961C21.0992 42.8907 21.1339 42.5937 21.3393 42.4294C21.3582 42.4136 21.3804 42.3978 21.3993 42.3789C21.5604 42.2841 21.7121 42.1735 21.8574 42.0566C22.0407 42.2841 22.2271 42.5116 22.4229 42.7454Z" fill="black"/>
<path d="M20.6538 25.8302C20.5369 26.0324 20.3252 26.1493 20.1072 26.1493C19.9998 26.1493 19.8924 26.1209 19.7944 26.064C17.3996 24.696 15.2134 25.4164 14.3698 25.7986C14.3604 25.8018 14.354 25.805 14.3477 25.8081C14.1455 25.8997 14.0255 25.9724 14.0033 25.985C13.8707 26.064 13.7159 26.0893 13.5737 26.064C13.3968 26.0356 13.2356 25.9345 13.1377 25.7702C13.0587 25.6407 13.0334 25.4985 13.0524 25.3595C13.0587 25.3121 13.0682 25.2679 13.0871 25.2236C13.1314 25.0941 13.223 24.9835 13.3462 24.9046C13.3778 24.8856 13.5579 24.7782 13.8612 24.6423C13.8643 24.6423 13.8675 24.6392 13.8738 24.636C14.8406 24.2063 17.0268 23.5081 19.5164 24.5254C19.8134 24.6486 20.1167 24.794 20.42 24.9677C20.7233 25.1415 20.8275 25.5269 20.6538 25.8302Z" fill="black"/>
<path d="M20.736 33.0229C20.6949 33.3705 20.3821 33.6201 20.0378 33.5821C16.7994 33.2188 14.9891 35.4209 14.7238 35.7684C14.708 35.7874 14.6953 35.8032 14.6922 35.8095C14.6353 35.8885 14.5658 35.9517 14.4836 35.9959C14.392 36.0464 14.2846 36.0749 14.1772 36.0749C14.0508 36.0749 13.9244 36.037 13.8139 35.958C13.6843 35.8663 13.599 35.7337 13.5643 35.5883C13.5232 35.4177 13.5516 35.2345 13.6622 35.0797C13.6749 35.0639 13.7191 35.0007 13.7981 34.9028C13.8044 34.8933 13.8139 34.8838 13.8202 34.8743C13.8644 34.8238 13.915 34.7637 13.9718 34.6974C14.6606 33.9265 16.4677 32.2773 19.3301 32.2773H19.3522C19.6176 32.2773 19.8924 32.2931 20.1768 32.3247C20.5243 32.3658 20.7739 32.6754 20.736 33.0229Z" fill="black"/>
<path d="M45.0063 49.7312C42.1977 52.622 38.3875 54.4007 33.8002 52.1702C29.0864 49.8797 25.191 46.0695 22.4234 42.7427C22.2275 42.5089 22.0411 42.2815 21.8579 42.054C21.7126 42.1709 21.5609 42.2815 21.3998 42.3763C20.8817 42.7017 20.294 42.9133 19.659 42.9923C19.4789 43.0144 19.302 43.0271 19.1251 43.0271C19.0524 43.0271 18.9829 43.0239 18.9102 43.0208H18.9007C18.8376 43.0144 18.7744 43.0113 18.7143 43.005C18.7017 43.005 18.6891 43.0018 18.6796 43.0018C18.6164 42.9955 18.5532 42.9892 18.4932 42.9797C18.4869 42.9797 18.4806 42.9765 18.4742 42.9765C18.4174 42.9671 18.3637 42.9576 18.3068 42.9449C18.2657 42.9386 18.2246 42.9291 18.1836 42.9197C18.133 42.907 18.0825 42.8975 18.0319 42.8817C17.9814 42.8691 17.9308 42.8565 17.8803 42.8407C17.8676 42.8344 17.855 42.8312 17.8424 42.828C17.7128 42.787 17.5833 42.7427 17.4601 42.689C17.3937 42.6638 17.3306 42.6353 17.2674 42.6037C17.2326 42.5911 17.201 42.5753 17.1694 42.5563C16.9799 42.4647 16.7966 42.3573 16.6197 42.2341C16.585 42.2151 16.5534 42.1899 16.5186 42.1646C16.506 42.1583 16.4965 42.1488 16.4839 42.1393C16.4491 42.114 16.4112 42.0856 16.3764 42.0572C16.3701 42.054 16.367 42.0508 16.3638 42.0477C16.329 42.0193 16.2911 41.994 16.2595 41.9624H16.2564C16.209 41.9245 16.1616 41.8802 16.1142 41.8392C16.0953 41.8234 16.0763 41.8076 16.0573 41.7886C16.0068 41.7444 15.9594 41.697 15.912 41.6465C15.8678 41.6054 15.8267 41.5611 15.7856 41.5169C15.7604 41.4948 15.7383 41.4695 15.7193 41.4474C15.6751 41.3969 15.634 41.3463 15.5898 41.2958C15.5519 41.2515 15.5139 41.2041 15.4792 41.1568C15.4444 41.1157 15.4128 41.0714 15.3812 41.0304C15.3528 40.9925 15.3275 40.9546 15.3023 40.9166C15.2801 40.8819 15.2549 40.8471 15.2328 40.8124C15.2264 40.8061 15.2201 40.7966 15.217 40.7903C15.198 40.7587 15.1759 40.7271 15.1569 40.6923C15.1506 40.686 15.1475 40.6797 15.1443 40.6702C15.119 40.6291 15.0937 40.5912 15.0716 40.547C15.0306 40.4775 14.9895 40.4048 14.9516 40.3322C14.9358 40.2974 14.9168 40.2627 14.901 40.2279C14.8852 40.1995 14.8726 40.171 14.86 40.1458C14.8442 40.111 14.8315 40.0794 14.8157 40.0447C14.7936 39.9973 14.7715 39.9467 14.7525 39.8993C14.7399 39.8677 14.7304 39.8393 14.7178 39.8077C14.642 39.6118 14.5756 39.4065 14.5219 39.198C14.503 39.1285 14.484 39.0526 14.4682 38.98C14.465 38.9547 14.4587 38.9294 14.4524 38.9073C14.4398 38.841 14.4271 38.7778 14.4177 38.7114C14.4019 38.6324 14.3924 38.5503 14.3829 38.4682C14.3639 38.3165 14.3513 38.168 14.3481 38.0195C16.5344 38.9768 19.8896 39.953 22.4645 38.4808C22.4645 38.4808 32.151 49.649 45.0063 49.7312Z" fill="#AEA9AD"/>
<path d="M19.3302 32.2772C16.4678 32.2772 14.6607 33.9264 13.972 34.6972C13.953 34.6814 13.9309 34.6656 13.9088 34.6498C13.8677 34.6214 13.8298 34.5898 13.7887 34.5582C13.7508 34.5266 13.7097 34.495 13.6687 34.4603C13.6308 34.4287 13.5928 34.3939 13.5549 34.3592C13.5233 34.3339 13.4917 34.3055 13.4633 34.2739C13.4317 34.2454 13.4001 34.217 13.3717 34.1854C13.3433 34.1601 13.318 34.1317 13.2895 34.1033C13.16 33.9674 13.0368 33.8284 12.9262 33.6799C12.8883 33.6325 12.8536 33.5883 12.8188 33.5409C12.7904 33.4998 12.7651 33.4619 12.7367 33.4209C12.724 33.4019 12.7114 33.3829 12.7019 33.3672C12.7019 33.3672 12.7009 33.3661 12.6988 33.364C12.6703 33.3229 12.645 33.2819 12.6198 33.2408C12.6008 33.2123 12.585 33.1839 12.5692 33.1523C12.5281 33.086 12.4871 33.0165 12.4523 32.947C12.4144 32.8775 12.3765 32.8079 12.3417 32.7353C12.2691 32.5868 12.2059 32.432 12.1459 32.274C12.1301 32.2298 12.1143 32.1824 12.0985 32.135C12.0764 32.0781 12.0574 32.0213 12.0416 31.9676C12.0258 31.9139 12.01 31.8601 11.9974 31.8064C11.9816 31.7527 11.9689 31.699 11.9531 31.6422C11.9405 31.5884 11.9279 31.5316 11.9184 31.4779C11.8836 31.3199 11.8552 31.1619 11.8363 31.0008C11.7825 30.5711 11.7794 30.1509 11.8236 29.7402C13.9277 31.6264 17.6621 32.1382 19.3302 32.2772Z" fill="#AEA9AD"/>
<path d="M19.5167 24.5222C17.0271 23.5049 14.8408 24.2031 13.8741 24.6328C13.5676 23.9409 13.356 23.1826 13.258 22.3802C13.258 22.3675 13.2549 22.3612 13.2549 22.3517C13.2138 22.0168 13.1948 21.6914 13.1948 21.366C13.1948 20.2034 13.4444 19.0976 13.893 18.1309C14.6386 20.0486 16.2215 22.7498 19.5167 24.5222Z" fill="#AEA9AD"/>
</g>
<defs>
<filter id="filter0_dd_9557_13131" x="0.94195" y="0.517913" width="55.8528" height="60.6283" filterUnits="userSpaceOnUse" color-interpolation-filters="sRGB">
<feFlood flood-opacity="0" result="BackgroundImageFix"/>
<feColorMatrix in="SourceAlpha" type="matrix" values="0 0 0 0 0 0 0 0 0 0 0 0 0 0 0 0 0 0 127 0" result="hardAlpha"/>
<feOffset dx="1.71429" dy="3.42857"/>
<feGaussianBlur stdDeviation="1.71429"/>
<feComposite in2="hardAlpha" operator="out"/>
<feColorMatrix type="matrix" values="0 0 0 0 0 0 0 0 0 0 0 0 0 0 0 0 0 0 0.3 0"/>
<feBlend mode="normal" in2="BackgroundImageFix" result="effect1_dropShadow_9557_13131"/>
<feColorMatrix in="SourceAlpha" type="matrix" values="0 0 0 0 0 0 0 0 0 0 0 0 0 0 0 0 0 0 127 0" result="hardAlpha"/>
<feOffset dx="-2.28571" dy="-5.14286"/>
<feGaussianBlur stdDeviation="3.74286"/>
<feComposite in2="hardAlpha" operator="out"/>
<feColorMatrix type="matrix" values="0 0 0 0 1 0 0 0 0 1 0 0 0 0 1 0 0 0 0.3 0"/>
<feBlend mode="normal" in2="effect1_dropShadow_9557_13131" result="effect2_dropShadow_9557_13131"/>
<feBlend mode="normal" in="SourceGraphic" in2="effect2_dropShadow_9557_13131" result="shape"/>
</filter>
</defs>
</svg>
