<svg width="24" height="24" viewBox="0 0 24 24" fill="none" xmlns="http://www.w3.org/2000/svg">
<path d="M5 8.34667H9.76V10.7267H5V8.34667Z" stroke="white"/>
<path d="M14.52 8.34667H19.28V10.7267H14.52V8.34667Z" stroke="white"/>
<path d="M5 12.3133H9.76V14.6933C9.76 16.0078 10.8256 17.0733 12.14 17.0733C13.4544 17.0733 14.52 16.0078 14.52 14.6933V12.3133H19.28V14.6933C19.28 18.6366 16.0833 21.8333 12.14 21.8333C8.19669 21.8333 5 18.6366 5 14.6933V12.3133Z" stroke="white"/>
<path d="M12.14 2V4.16364H14.52L13.33 6.11091L12.14 8.05818V5.89455H9.76L12.14 2Z" stroke="white"/>
<path d="M12.1398 2V4.16364H14.5198L13.3298 6.11091L12.1398 8.05818V5.89455H9.75977L12.1398 2Z" fill="white"/>
</svg>
