<svg width="25" height="24" viewBox="0 0 25 24" fill="none" xmlns="http://www.w3.org/2000/svg">
<circle cx="12.5" cy="12" r="9.5" stroke="white"/>
<circle cx="12.5" cy="12" r="1.5" stroke="white"/>
<mask id="path-3-inside-1_12810_10328" fill="white">
<path fill-rule="evenodd" clip-rule="evenodd" d="M8.5 8C8.5 5.79086 10.2909 4 12.5 4L12.5 9C11.2412 9 10.1635 9.77529 9.71831 10.8744C8.96703 10.1472 8.5 9.12815 8.5 8ZM9.5 12L4.5 12C4.5 14.2091 6.29086 16 8.5 16C9.62815 16 10.6472 15.533 11.3744 14.7817C10.2753 14.3365 9.5 13.2588 9.5 12ZM15.2817 13.1256C14.8365 14.2247 13.7588 15 12.5 15L12.5 20C14.7091 20 16.5 18.2091 16.5 16C16.5 14.8719 16.033 13.8528 15.2817 13.1256ZM13.6256 9.21831C14.7247 9.6635 15.5 10.7412 15.5 12H20.5C20.5 9.79086 18.7091 8 16.5 8C15.3719 8 14.3528 8.46704 13.6256 9.21831Z"/>
</mask>
<path d="M12.5 4L13.5 4V3H12.5V4ZM12.5 9V10H13.5V9H12.5ZM9.71831 10.8744L9.02281 11.5929L10.0884 12.6244L10.6452 11.2498L9.71831 10.8744ZM9.5 12H10.5V11H9.5V12ZM4.5 12L4.5 11H3.5V12H4.5ZM11.3744 14.7817L12.0929 15.4772L13.1244 14.4116L11.7498 13.8548L11.3744 14.7817ZM15.2817 13.1256L15.9772 12.4071L14.9116 11.3756L14.3548 12.7502L15.2817 13.1256ZM12.5 15V14H11.5L11.5 15H12.5ZM12.5 20H11.5L11.5 21H12.5V20ZM13.6256 9.21831L12.9071 8.52281L11.8756 9.58841L13.2502 10.1452L13.6256 9.21831ZM15.5 12H14.5V13H15.5V12ZM20.5 12V13H21.5V12H20.5ZM12.5 3C9.73858 3 7.5 5.23858 7.5 8H9.5C9.5 6.34315 10.8431 5 12.5 5V3ZM13.5 9L13.5 4L11.5 4L11.5 9H13.5ZM10.6452 11.2498C10.9427 10.5152 11.6624 10 12.5 10V8C10.82 8 9.38429 9.03534 8.79145 10.499L10.6452 11.2498ZM7.5 8C7.5 9.41002 8.08497 10.6852 9.02281 11.5929L10.4138 10.1559C9.8491 9.60928 9.5 8.84628 9.5 8H7.5ZM9.5 11L4.5 11L4.5 13L9.5 13V11ZM3.5 12C3.5 14.7614 5.73858 17 8.5 17V15C6.84315 15 5.5 13.6569 5.5 12H3.5ZM8.5 17C9.91002 17 11.1852 16.415 12.0929 15.4772L10.6559 14.0862C10.1093 14.6509 9.34628 15 8.5 15V17ZM11.7498 13.8548C11.0152 13.5573 10.5 12.8376 10.5 12H8.5C8.5 13.68 9.53534 15.1157 10.999 15.7085L11.7498 13.8548ZM14.3548 12.7502C14.0573 13.4848 13.3376 14 12.5 14V16C14.18 16 15.6157 14.9647 16.2085 13.501L14.3548 12.7502ZM11.5 15L11.5 20H13.5L13.5 15H11.5ZM12.5 21C15.2614 21 17.5 18.7614 17.5 16H15.5C15.5 17.6569 14.1569 19 12.5 19V21ZM17.5 16C17.5 14.59 16.915 13.3148 15.9772 12.4071L14.5862 13.8441C15.1509 14.3907 15.5 15.1537 15.5 16H17.5ZM13.2502 10.1452C13.9848 10.4427 14.5 11.1624 14.5 12H16.5C16.5 10.32 15.4647 8.88429 14.001 8.29145L13.2502 10.1452ZM15.5 13H20.5V11H15.5V13ZM21.5 12C21.5 9.23858 19.2614 7 16.5 7V9C18.1569 9 19.5 10.3431 19.5 12H21.5ZM16.5 7C15.09 7 13.8148 7.58497 12.9071 8.52281L14.3441 9.9138C14.8907 9.3491 15.6537 9 16.5 9V7Z" fill="white" mask="url(#path-3-inside-1_12810_10328)"/>
</svg>
