<svg width="6" height="12" viewBox="0 0 6 12" fill="none" xmlns="http://www.w3.org/2000/svg">
<path d="M0 1.9313V10.0686C0 10.6744 0 10.9773 0.119797 11.1175C0.223743 11.2393 0.379671 11.3038 0.539229 11.2913C0.723121 11.2768 0.937309 11.0626 1.36569 10.6342L5.43431 6.56561C5.63232 6.3676 5.73133 6.2686 5.76842 6.15444C5.80105 6.05401 5.80105 5.94584 5.76842 5.84542C5.73133 5.73125 5.63232 5.63225 5.43431 5.43424L1.36569 1.36561C0.937313 0.937241 0.72312 0.723048 0.539229 0.708575C0.379671 0.696018 0.223743 0.760606 0.119797 0.88231C0 1.02257 0 1.32548 0 1.9313Z" fill="white"/>
</svg>
