<svg width="24" height="24" viewBox="0 0 24 24" fill="none" xmlns="http://www.w3.org/2000/svg">
<path d="M21.5 9.42857C21.5 10.2562 21.1501 11.301 20.5651 12.1379C19.9729 12.9851 19.2294 13.5 18.5 13.5C17.7706 13.5 17.0271 12.9851 16.4349 12.1379C15.8499 11.301 15.5 10.2562 15.5 9.42857C15.5 7.82084 16.8334 6.5 18.5 6.5C20.1666 6.5 21.5 7.82084 21.5 9.42857Z" stroke="white"/>
<path d="M8.5 9.42857C8.5 10.2562 8.15006 11.301 7.56506 12.1379C6.97292 12.9851 6.22937 13.5 5.5 13.5C4.77063 13.5 4.02708 12.9851 3.43494 12.1379C2.84994 11.301 2.5 10.2562 2.5 9.42857C2.5 7.82084 3.83338 6.5 5.5 6.5C7.16662 6.5 8.5 7.82084 8.5 9.42857Z" stroke="white"/>
<path d="M2.57699 11.8174C1.61906 12.5477 1 13.7008 1 15V16H2H6V17H7H17H18V16H22H23V15C23 13.7008 22.3809 12.5477 21.423 11.8174C21.7856 11.1011 22 10.2973 22 9.57143C22 7.62573 20.4594 6 18.5 6C17.3364 6 16.3205 6.57337 15.6872 7.44662C15.0808 6.00904 13.6582 5 12 5C10.3418 5 8.9192 6.00904 8.31282 7.44662C7.67955 6.57337 6.66361 6 5.5 6C3.54063 6 2 7.62573 2 9.57143C2 10.2973 2.21442 11.1011 2.57699 11.8174Z" stroke="white" stroke-width="2"/>
<path d="M6.5 14.9999C6.5 13.321 7.68247 11.9177 9.25979 11.5782C9.52991 12.039 9.86702 12.4647 10.2594 12.7982C10.7431 13.2093 11.3361 13.5 12 13.5C12.6639 13.5 13.2569 13.2093 13.7406 12.7982C14.133 12.4647 14.4701 12.039 14.7402 11.5782C16.3175 11.9177 17.5 13.321 17.5 14.9999V16.4999H6.5V14.9999Z" stroke="white"/>
</svg>
