<svg width="24" height="24" viewBox="0 0 24 24" fill="none" xmlns="http://www.w3.org/2000/svg">
<circle cx="12" cy="13" r="8" stroke="white" stroke-width="2"/>
<path d="M15.2358 2.48364C14.2127 2.16923 13.1261 2 12 2C10.8738 2 9.78721 2.16923 8.76416 2.48364" stroke="white" stroke-width="2" stroke-linecap="round"/>
<path d="M11 4.5C11 5.05228 11.4477 5.5 12 5.5C12.5523 5.5 13 5.05228 13 4.5H11ZM11 2V4.5H13V2H11Z" fill="white"/>
<path d="M3.54932 5.95772C4.31091 5.04481 5.21765 4.2572 6.23408 3.63037M20.4506 5.95772C19.689 5.0448 18.7823 4.2572 17.7658 3.63037" stroke="white" stroke-linecap="round" stroke-linejoin="round"/>
<path d="M12 7V13" stroke="white" stroke-linecap="round" stroke-linejoin="round"/>
<circle cx="12" cy="13" r="0.5" fill="white" stroke="white"/>
<circle cx="12" cy="13" r="6" stroke="white" stroke-linecap="round" stroke-linejoin="round" stroke-dasharray="0.1 7"/>
</svg>
