<svg width="24" height="24" viewBox="0 0 24 24" fill="none" xmlns="http://www.w3.org/2000/svg">
<rect x="6.5" y="2.5" width="11" height="17" rx="1.5" stroke="white"/>
<path d="M7.99998 2C6.89541 2 5.99998 2.89543 5.99998 4V8.9896L2.93183 9.81171C1.8649 10.0976 1.23174 11.1943 1.51762 12.2612L3.84699 20.9545C4.13287 22.0215 5.22955 22.6546 6.29648 22.3687L11.1261 21.0746C11.6452 20.9356 12.0615 20.6046 12.3194 20.1785L17.558 21.5822C18.6249 21.8681 19.7216 21.2349 20.0075 20.168L22.6452 10.324C22.9311 9.2571 22.2979 8.16043 21.231 7.87455L18 7.0088V4C18 2.89543 17.1046 2 16 2H7.99998Z" stroke="white" stroke-width="2"/>
<path d="M9.5 13.5H14.5M9.5 16.5H14.5" stroke="white" stroke-linecap="round"/>
<circle cx="12" cy="8" r="2.5" stroke="white"/>
</svg>
