<svg width="25" height="25" viewBox="0 0 25 25" fill="none" xmlns="http://www.w3.org/2000/svg">
<path d="M16.5356 23.3212H8.6363C5.25937 23.3212 3.94612 22.008 3.94612 18.631V10.7318C3.94612 10.3269 4.28184 9.99121 4.68667 9.99121H20.4852C20.89 9.99121 21.2258 10.3269 21.2258 10.7318V18.631C21.2258 22.008 19.9125 23.3212 16.5356 23.3212ZM6.11778 12.1334V18.631C6.11778 21.1785 7.26445 21.3067 8.6363 21.3067H16.5356C18.1578 21.3067 19.3044 21.1785 19.3044 18.631V12.1334H6.11778Z" fill="white"/>
<path d="M20.0211 11.4723H5.20999C3.48203 11.4723 2.49462 10.4849 2.49462 8.75698V7.76957C2.49462 6.04161 3.48203 5.0542 5.20999 5.0542H20.0211C21.6997 5.0542 22.7365 6.09098 22.7365 7.76957V8.75698C22.7365 10.4356 21.6997 11.4723 20.0211 11.4723ZM5.20999 6.9724C5.20999 6.9724 4.39777 6.87103 4.39777 7.76957V8.75698C4.39777 9.65552 4.97111 9.99124 5.20999 9.99124H20.0211C20.2864 9.99124 20.787 9.6259 20.787 8.75698V7.76957C20.787 6.90065 20.0211 6.9724 20.0211 6.9724H5.20999Z" fill="white"/>
<path d="M12.2601 6.53508H6.80959C6.60224 6.53508 6.40476 6.44621 6.26652 6.2981C5.6642 5.63654 5.68395 4.61951 6.31589 3.98757L7.71801 2.58545C8.3697 1.93376 9.44597 1.93376 10.0977 2.58545L12.7834 5.2712C12.9908 5.47855 13.0599 5.8044 12.9414 6.08087C12.8328 6.35734 12.5662 6.53508 12.2601 6.53508ZM7.35267 5.05397H10.4828L9.05101 3.6321C8.97202 3.55311 8.84365 3.55311 8.76466 3.6321L7.36254 5.03422C7.36254 5.04409 7.35267 5.04409 7.35267 5.05397Z" fill="white"/>
<path d="M18.4116 6.53508H12.9611C12.6649 6.53508 12.3885 6.35734 12.2798 6.08087C12.1613 5.8044 12.2305 5.48843 12.4378 5.2712L15.1236 2.58545C15.7753 1.93376 16.8515 1.93376 17.5032 2.58545L18.9053 3.98757C19.5373 4.61951 19.5669 5.63654 18.9547 6.2981C18.8165 6.44621 18.619 6.53508 18.4116 6.53508ZM14.7582 5.05397H17.8883C17.8784 5.04409 17.8784 5.04409 17.8686 5.03422L16.4664 3.6321C16.3875 3.55311 16.2591 3.55311 16.1801 3.6321L14.7582 5.05397Z" fill="white"/>
<path d="M10.5815 17.5449C10.305 17.5449 10.0187 17.4758 9.76195 17.3375C9.19913 17.0314 8.85353 16.4489 8.85353 15.8169V10.7318C8.85353 10.3269 9.18925 9.99121 9.59409 9.99121H15.558C15.9629 9.99121 16.2986 10.3269 16.2986 10.7318V15.7972C16.2986 16.439 15.953 17.0216 15.3902 17.3178C14.8274 17.6239 14.146 17.5844 13.6128 17.2289L12.734 16.6365C12.6551 16.5772 12.5464 16.5772 12.4576 16.6365L11.5294 17.2487C11.2431 17.4461 10.9073 17.5449 10.5815 17.5449ZM10.3346 11.4723V15.807C10.3346 15.9354 10.4136 15.9946 10.463 16.0243C10.5124 16.0539 10.6111 16.0835 10.7197 16.0144L11.6479 15.4022C12.2305 15.0171 12.9809 15.0171 13.5536 15.4022L14.4324 15.9946C14.541 16.0638 14.6397 16.0341 14.6891 16.0045C14.7385 15.9749 14.8175 15.9157 14.8175 15.7873V11.4624H10.3346V11.4723Z" fill="white"/>
</svg>
