<svg width="24" height="24" viewBox="0 0 24 24" fill="none" xmlns="http://www.w3.org/2000/svg">
<path d="M3 9V21H21V9" stroke="white" stroke-width="2" stroke-linejoin="round"/>
<path d="M18.6667 3L19.4349 2.35982C19.2449 2.13182 18.9634 2 18.6667 2V3ZM5.33333 3V2C5.03655 2 4.75511 2.13182 4.56511 2.35982L5.33333 3ZM22 7H23C23 6.76606 22.918 6.53953 22.7682 6.35982L22 7ZM18 7.5C18 6.94772 17.5523 6.5 17 6.5C16.4477 6.5 16 6.94772 16 7.5H18ZM13 7.5C13 6.94772 12.5523 6.5 12 6.5C11.4477 6.5 11 6.94772 11 7.5H13ZM8 7.5C8 6.94772 7.55228 6.5 7 6.5C6.44772 6.5 6 6.94772 6 7.5H8ZM2 7L1.23178 6.35982C1.08202 6.53953 1 6.76606 1 7H2ZM18.6667 2H5.33333V4H18.6667V2ZM22.7682 6.35982L19.4349 2.35982L17.8984 3.64018L21.2318 7.64018L22.7682 6.35982ZM21 7V7.5H23V7H21ZM21 7.5C21 8.32843 20.3284 9 19.5 9V11C21.433 11 23 9.433 23 7.5H21ZM19.5 9C18.6716 9 18 8.32843 18 7.5H16C16 9.433 17.567 11 19.5 11V9ZM14.5 11C16.433 11 18 9.433 18 7.5H16C16 8.32843 15.3284 9 14.5 9V11ZM11 7.5C11 9.433 12.567 11 14.5 11V9C13.6716 9 13 8.32843 13 7.5H11ZM9.5 11C11.433 11 13 9.433 13 7.5H11C11 8.32843 10.3284 9 9.5 9V11ZM6 7.5C6 9.433 7.567 11 9.5 11V9C8.67157 9 8 8.32843 8 7.5H6ZM4.5 11C6.433 11 8 9.433 8 7.5H6C6 8.32843 5.32843 9 4.5 9V11ZM1 7.5C1 9.433 2.567 11 4.5 11V9C3.67157 9 3 8.32843 3 7.5H1ZM1 7V7.5H3V7H1ZM4.56511 2.35982L1.23178 6.35982L2.76822 7.64018L6.10155 3.64018L4.56511 2.35982Z" fill="white"/>
<path d="M9.5 10.5V20.5" stroke="white"/>
<path d="M7.5 14.5V15.5" stroke="white" stroke-linecap="round"/>
<path d="M16 18.5L17.5 17M15.5 16.5L18.5 13.5" stroke="white" stroke-linecap="round"/>
</svg>
