<svg width="28" height="28" viewBox="0 0 28 28" fill="none" xmlns="http://www.w3.org/2000/svg">
<path d="M20 13C17.2386 13 15 15.2386 15 18C15 20.7614 17.2386 23 20 23C22.7614 23 25 20.7614 25 18C25 15.2386 22.7614 13 20 13ZM20 13V11M5 11V17.8C5 18.9201 5 19.4802 5.21799 19.908C5.40973 20.2843 5.71569 20.5903 6.09202 20.782C6.51984 21 7.0799 21 8.2 21H16M5 11V10.2C5 9.0799 5 8.51984 5.21799 8.09202C5.40973 7.71569 5.71569 7.40973 6.09202 7.21799C6.51984 7 7.0799 7 8.2 7H16.8C17.9201 7 18.4802 7 18.908 7.21799C19.2843 7.40973 19.5903 7.71569 19.782 8.09202C20 8.51984 20 9.0799 20 10.2V11M5 11H20M8 5V7M17 5V7" stroke="#00D1FF" stroke-linecap="round" stroke-linejoin="round"/>
<path d="M19.468 20.9055C18.98 20.9055 18.6634 20.391 18.8834 19.9554L20.7822 16.1944C20.7844 16.1902 20.7855 16.1855 20.7855 16.1808C20.7855 16.1641 20.7719 16.1505 20.7552 16.1505H18.5753C18.2576 16.1505 18 15.893 18 15.5753C18 15.2576 18.2576 15 18.5753 15H21.3252C21.8425 15 22.2618 15.4193 22.2618 15.9366C22.2618 16.083 22.2276 16.2272 22.1617 16.3579L20.0529 20.5451C19.9416 20.7661 19.7153 20.9055 19.468 20.9055Z" fill="#00D1FF"/>
</svg>
