<svg width="113" height="112" viewBox="0 0 113 112" fill="none" xmlns="http://www.w3.org/2000/svg">
<g filter="url(#filter0_d_14653_7642)">
<rect x="24.5" y="24" width="64" height="64" rx="16" fill="white" fill-opacity="0.05" shape-rendering="crispEdges"/>
<rect x="25" y="24.5" width="63" height="63" rx="15.5" stroke="white" stroke-opacity="0.6" shape-rendering="crispEdges"/>
<rect x="51.9995" y="54.8359" width="9" height="17.3333" rx="2.83333" stroke="white"/>
<rect x="63.6665" y="61.5039" width="9" height="10.6667" rx="2.83333" stroke="white"/>
<rect x="40.333" y="59.8359" width="9" height="12.3333" rx="2.83333" stroke="white"/>
<path d="M52.3938 42.5424C52.5879 42.6775 52.8498 42.6591 53.0232 42.4983L56.1573 39.5913C56.3503 39.4123 56.6486 39.4123 56.8416 39.5913L59.9757 42.4983C60.1491 42.6591 60.411 42.6775 60.6051 42.5424L63.0125 40.8677C63.3854 40.6083 63.884 40.9369 63.7926 41.3819L62.2418 48.9339C62.1937 49.1678 61.9878 49.3358 61.749 49.3358H51.2499C51.0111 49.3358 50.8052 49.1678 50.7571 48.9339L49.2063 41.3819C49.1149 40.9369 49.6135 40.6083 49.9864 40.8677L52.3938 42.5424Z" stroke="white"/>
</g>
<defs>
<filter id="filter0_d_14653_7642" x="0.5" y="0" width="112" height="112" filterUnits="userSpaceOnUse" color-interpolation-filters="sRGB">
<feFlood flood-opacity="0" result="BackgroundImageFix"/>
<feColorMatrix in="SourceAlpha" type="matrix" values="0 0 0 0 0 0 0 0 0 0 0 0 0 0 0 0 0 0 127 0" result="hardAlpha"/>
<feOffset/>
<feGaussianBlur stdDeviation="12"/>
<feComposite in2="hardAlpha" operator="out"/>
<feColorMatrix type="matrix" values="0 0 0 0 0.294118 0 0 0 0 0.352941 0 0 0 0 1 0 0 0 0.5 0"/>
<feBlend mode="normal" in2="BackgroundImageFix" result="effect1_dropShadow_14653_7642"/>
<feBlend mode="normal" in="SourceGraphic" in2="effect1_dropShadow_14653_7642" result="shape"/>
</filter>
</defs>
</svg>
