<svg width="24" height="25" viewBox="0 0 24 25" fill="none" xmlns="http://www.w3.org/2000/svg">
<path fill-rule="evenodd" clip-rule="evenodd" d="M4.86093 1.02011C3.40065 1.17771 2.37994 1.67675 1.42089 2.70177C0.708651 3.46304 0.370012 4.11774 0.128716 5.19981C0.000907543 5.77313 -0.000488281 5.85579 -0.000488281 12.9708C-0.000488281 20.0859 0.000907543 20.1686 0.128716 20.7419C0.370012 21.824 0.708651 22.4787 1.42089 23.2399C2.39875 24.2851 3.37425 24.7491 4.95839 24.9226C5.76372 25.0107 18.2071 25.0107 19.0124 24.9226C20.59 24.7498 21.5759 24.2828 22.5383 23.2522C23.2688 22.47 23.6221 21.7551 23.8631 20.572C23.9632 20.0805 23.9713 19.5124 23.9713 12.9405V5.84001L23.8308 5.2043C23.5677 4.0136 23.1356 3.23467 22.303 2.4501C21.5192 1.71146 20.885 1.37962 19.7737 1.12692L19.1769 0.991158L12.2585 0.979748C8.45335 0.973497 5.12443 0.991643 4.86093 1.02011ZM7.02731 7.40272C4.60185 9.83346 4.22115 10.2393 4.18583 10.4318C4.16344 10.5541 4.16283 10.718 4.1845 10.796C4.2061 10.874 5.22602 11.9272 6.45089 13.1365L8.6779 15.3352L10.7381 15.3365L12.7984 15.3377L10.4347 12.9641L8.07102 10.5906L11.1054 7.59577L14.1398 4.60094L11.9839 4.59839L9.828 4.5959L7.02731 7.40272ZM13.5332 12.9759L15.8998 15.3478L12.8654 18.3465L9.83097 21.3451L11.9715 21.3454L14.1121 21.3458L16.8872 18.5494C18.4136 17.0114 19.6961 15.6745 19.7373 15.5785C19.9084 15.1798 19.8848 15.1504 17.5148 12.8067L15.2929 10.6095L13.2298 10.6067L11.1667 10.604L13.5332 12.9759Z" fill="white"/>
</svg>
