<svg width="24" height="24" viewBox="0 0 24 24" fill="none" xmlns="http://www.w3.org/2000/svg">
<path d="M9.43044 6.52933C9.3788 6.51997 9.32819 6.50279 9.28048 6.47775C8.71296 6.18036 8.09312 6.01084 7.44749 6.01084L7.38263 6.01121L7.31777 6.01084C6.67213 6.01084 6.05229 6.18036 5.48478 6.47775C5.32116 6.56362 5.12364 6.55698 4.96628 6.46006L2.66749 5.04571C2.56136 4.98048 2.45154 4.98785 2.35573 5.05013C2.25696 5.11388 2.17884 5.23696 2.1899 5.40464L2.46997 9.71183C2.57905 11.3819 3.32529 12.5007 4.41793 13.1508L4.90732 13.4419C4.98028 13.4854 5.00977 13.5646 4.99613 13.6372C4.98655 13.6896 4.95449 13.7386 4.90032 13.7677L4.39877 14.0382C3.63484 14.4506 2.97078 15.024 2.45191 15.7138L2.42243 15.754C2.19911 16.0617 2.09961 16.4663 2.09961 16.8448V18.0189C2.09961 18.4357 2.43754 18.7736 2.85433 18.7736H9.4264C9.32543 18.5425 9.26942 18.2873 9.26942 18.0189V16.845C9.26942 16.2927 9.41059 15.6368 9.8081 15.0891L9.80988 15.0867L9.84508 15.0387L9.84906 15.0334C10.0791 14.7275 10.3332 14.4409 10.6086 14.1763C10.5291 14.1284 10.4484 14.0824 10.3665 14.0382L9.86494 13.7677C9.73596 13.698 9.73191 13.5167 9.85794 13.4419L10.3473 13.1508C10.4831 13.07 10.6136 12.982 10.7381 12.8865C10.1125 12.0735 9.72375 11.0345 9.64218 9.78568L9.43044 6.52933Z" fill="white"/>
<path d="M10.4062 16.7019C10.4283 16.3667 10.5289 16.0233 10.7243 15.754L10.7538 15.7138C11.2727 15.024 11.9367 14.4506 12.7007 14.0382L13.2022 13.7677C13.2564 13.7386 13.2884 13.6896 13.298 13.6373C13.3117 13.5647 13.2822 13.4854 13.2092 13.4419L12.7198 13.1508C12.2539 12.8736 11.851 12.5112 11.5336 12.0571C11.5336 12.0571 11.5336 12.0571 11.5336 12.0571C11.1066 11.4464 10.8344 10.6698 10.7719 9.7119L10.4918 5.40465C10.4807 5.23697 10.5589 5.11389 10.6576 5.05014C10.7534 4.98786 10.8632 4.98049 10.9694 5.04572L13.2682 6.46007C13.4255 6.55699 13.623 6.56363 13.7867 6.47776C14.3542 6.18037 14.974 6.01085 15.6197 6.01085L15.6845 6.01122L15.7494 6.01085C16.395 6.01085 17.0149 6.18037 17.5824 6.47776C17.746 6.56363 17.9435 6.55699 18.1009 6.46007L20.3997 5.04572C20.5058 4.98049 20.6156 4.98786 20.7114 5.05014C20.8102 5.11389 20.8883 5.23697 20.8772 5.40465L20.5972 9.71184C20.4881 11.3819 19.7419 12.5008 18.6492 13.1508L18.1598 13.4419C18.0338 13.5168 18.0378 13.6981 18.1668 13.7677L18.4293 13.9092C18.2428 14.2632 18.1373 14.6665 18.1373 15.0943C18.1373 16.5011 19.2778 17.6415 20.6845 17.6415C20.7802 17.6415 20.8746 17.6362 20.9675 17.626V18.0189C20.9675 18.4357 20.6296 18.7736 20.2128 18.7736H11.1562C11.1549 18.7736 11.1536 18.7736 11.1523 18.7736H11.1461C10.7822 18.7688 10.4805 18.5065 10.4148 18.1606C10.4061 18.1147 10.4015 18.0674 10.4015 18.0189C10.4015 18.0189 10.4015 18.019 10.4015 18.0189V16.8449" fill="white"/>
<path d="M10.4015 16.8449C10.4015 16.7976 10.4031 16.7498 10.4062 16.7019L10.4015 16.8449Z" fill="white"/>
<path d="M20.935 16.4873C20.8537 16.5019 20.77 16.5094 20.6845 16.5094C19.903 16.5094 19.2694 15.8759 19.2694 15.0943C19.2694 14.8834 19.3156 14.6832 19.3984 14.5034C19.6222 14.0169 20.1139 13.6792 20.6845 13.6792C21.4661 13.6792 22.0996 14.3128 22.0996 15.0943C22.0996 15.7894 21.5985 16.3675 20.9378 16.4868C20.9369 16.487 20.9359 16.4872 20.935 16.4873Z" fill="white"/>
</svg>
