<svg width="22" height="20" viewBox="0 0 22 20" fill="none" xmlns="http://www.w3.org/2000/svg">
<path d="M3.24353 17.9326V16.2504C3.24353 15.8833 3.09768 15.5312 2.83808 15.2716L1.59204 14.0256C0.572675 13.0062 0 11.6236 0 10.182V9.81295C0 8.09058 0.922896 6.50027 2.41833 5.64573L2.55798 5.56593C3.35456 5.11075 3.98505 4.41319 4.35766 3.57481L4.42295 3.4279C5.28711 1.48354 7.48661 0.513383 9.50517 1.18624C10.3533 1.46894 11.2702 1.46894 12.1183 1.18624C14.1369 0.513383 16.3364 1.48354 17.2005 3.4279L17.2658 3.5748C17.6385 4.41319 18.2689 5.11075 19.0655 5.56593L19.2052 5.64574C20.7006 6.50027 21.6235 8.09058 21.6235 9.81295V10.182C21.6235 11.6236 21.0508 13.0062 20.0315 14.0256L18.7854 15.2716C18.5258 15.5312 18.38 15.8833 18.38 16.2504V17.9326C18.38 19.0753 17.4536 20.0017 16.3108 20.0017H5.31267C4.16991 20.0017 3.24353 19.0753 3.24353 17.9326Z" fill="#A9A9A9"/>
<path d="M12.9745 11.8932C12.3777 11.313 12.0478 10.2715 10.8121 10.2715C9.5765 10.2715 9.26759 11.2926 8.64978 11.8932C8.03196 12.4939 6.48743 12.5954 6.48743 14.0556C6.48743 14.8851 7.25599 15.6774 8.10919 15.6774C8.824 15.6774 10.308 15.0767 10.8121 15.0767C11.3163 15.0767 12.8003 15.6774 13.5151 15.6774C14.3683 15.6774 15.1368 14.8851 15.1368 14.0556C15.1368 12.6783 13.5713 12.4735 12.9745 11.8932Z" fill="#696969"/>
<path d="M8.75089 7.8501C9.62834 7.66359 10.128 6.51656 9.86687 5.28812C9.60576 4.05969 8.68277 3.21505 7.80532 3.40156C6.92787 3.58806 6.42823 4.7351 6.68934 5.96353C6.95045 7.19196 7.87343 8.03661 8.75089 7.8501Z" fill="#696969"/>
<path d="M12.8933 7.8507C13.7708 8.03721 14.6938 7.19256 14.9549 5.96413C15.216 4.7357 14.7163 3.58866 13.8389 3.40216C12.9614 3.21565 12.0384 4.06029 11.7773 5.28873C11.5162 6.51716 12.0159 7.66419 12.8933 7.8507Z" fill="#696969"/>
<path d="M15.84 11.8894C16.6168 12.3379 17.7557 11.8199 18.3836 10.7322C19.0115 9.64462 18.8908 8.39933 18.1139 7.9508C17.3371 7.50227 16.1982 8.02036 15.5703 9.10798C14.9424 10.1956 15.0631 11.4409 15.84 11.8894Z" fill="#696969"/>
<path d="M5.76978 11.8894C4.99291 12.3379 3.85409 11.8199 3.22615 10.7322C2.59821 9.64462 2.71894 8.39933 3.49582 7.9508C4.27269 7.50227 5.41151 8.02036 6.03945 9.10798C6.66739 10.1956 6.54665 11.4409 5.76978 11.8894Z" fill="#696969"/>
</svg>
