<svg width="45" height="44" viewBox="0 0 45 44" fill="none" xmlns="http://www.w3.org/2000/svg">
<rect x="4.6665" y="4.16602" width="35.6667" height="35.6667" rx="3.5" stroke="white"/>
<path d="M29.621 27.8491C28.8805 27.8491 28.221 27.7218 27.6425 27.4673C27.0672 27.2094 26.6127 26.8557 26.2788 26.4061C25.9482 25.9532 25.778 25.4309 25.7681 24.8392H27.9301C27.9433 25.0871 28.0243 25.3053 28.173 25.4937C28.3251 25.6789 28.5268 25.8227 28.778 25.9251C29.0292 26.0276 29.3119 26.0789 29.6259 26.0789C29.9532 26.0789 30.2425 26.021 30.4937 25.9053C30.7449 25.7896 30.9416 25.6293 31.0838 25.4243C31.2259 25.2194 31.297 24.983 31.297 24.7152C31.297 24.4441 31.221 24.2045 31.0689 23.9962C30.9202 23.7846 30.7053 23.6193 30.4243 23.5003C30.1466 23.3813 29.816 23.3218 29.4325 23.3218H28.4854V21.745H29.4325C29.7565 21.745 30.0425 21.6888 30.2904 21.5764C30.5416 21.464 30.7367 21.3086 30.8755 21.1102C31.0144 20.9086 31.0838 20.6739 31.0838 20.4061C31.0838 20.1516 31.0226 19.9284 30.9003 19.7367C30.7813 19.5416 30.6127 19.3896 30.3945 19.2805C30.1797 19.1714 29.9284 19.1168 29.6408 19.1168C29.3499 19.1168 29.0838 19.1697 28.8425 19.2755C28.6011 19.378 28.4077 19.5251 28.2623 19.7169C28.1168 19.9086 28.0391 20.1334 28.0292 20.3912H25.9714C25.9813 19.8061 26.1482 19.2904 26.4722 18.8441C26.7962 18.3978 27.2325 18.0491 27.7813 17.7978C28.3334 17.5433 28.9565 17.416 29.6507 17.416C30.3516 17.416 30.9648 17.5433 31.4904 17.7978C32.016 18.0524 32.4243 18.3962 32.7152 18.8292C33.0094 19.259 33.1549 19.7416 33.1516 20.2772C33.1549 20.8458 32.978 21.3202 32.621 21.7003C32.2673 22.0805 31.8061 22.3218 31.2375 22.4243V22.5036C31.9846 22.5995 32.5532 22.859 32.9433 23.2822C33.3367 23.702 33.5317 24.2276 33.5284 24.859C33.5317 25.4375 33.3648 25.9516 33.0276 26.4012C32.6937 26.8508 32.2326 27.2045 31.6441 27.4623C31.0557 27.7202 30.3813 27.8491 29.621 27.8491Z" fill="white"/>
<path d="M17.8882 27.7103V26.1632L21.5031 22.816C21.8106 22.5185 22.0684 22.2507 22.2767 22.0127C22.4883 21.7747 22.6486 21.5417 22.7577 21.3136C22.8668 21.0821 22.9213 20.8326 22.9213 20.5648C22.9213 20.2673 22.8535 20.0111 22.718 19.7962C22.5825 19.578 22.3973 19.4111 22.1626 19.2954C21.9279 19.1764 21.6618 19.1168 21.3643 19.1168C21.0535 19.1168 20.7825 19.1797 20.5511 19.3053C20.3197 19.4309 20.1411 19.6111 20.0155 19.8458C19.8899 20.0805 19.8271 20.3598 19.8271 20.6838H17.7891C17.7891 20.0193 17.9395 19.4425 18.2403 18.9532C18.5411 18.464 18.9626 18.0854 19.5048 17.8177C20.0469 17.5499 20.6717 17.416 21.3792 17.416C22.1064 17.416 22.7395 17.5449 23.2783 17.8028C23.8205 18.0573 24.242 18.4111 24.5428 18.864C24.8436 19.3168 24.9941 19.8359 24.9941 20.421C24.9941 20.8045 24.918 21.183 24.766 21.5565C24.6172 21.9301 24.3511 22.345 23.9676 22.8012C23.5841 23.2541 23.0436 23.7979 22.3461 24.4326L20.8635 25.8855V25.9549H25.1279V27.7103H17.8882Z" fill="white"/>
<path d="M16.3369 17.5527V27.7081H14.1898V19.5908H14.1303L11.8047 21.0486V19.1445L14.3187 17.5527H16.3369Z" fill="white"/>
</svg>
