<svg width="15" height="16" viewBox="0 0 15 16" fill="none" xmlns="http://www.w3.org/2000/svg">
<path fill-rule="evenodd" clip-rule="evenodd" d="M2.37242 0.5H12.6446C13.0372 0.5 13.3643 0.565502 13.7569 0.762008C14.2149 0.958515 14.4766 1.28603 14.6074 1.54804C14.6074 1.54804 14.6074 1.61354 14.6729 1.61354C14.8691 1.94105 15 2.33406 15 2.79258C15 3.18559 14.9346 3.5786 14.6729 3.97162L8.1955 15.107C8.06465 15.369 7.80294 15.5 7.4758 15.5C7.21408 15.5 6.95237 15.369 6.75609 15.107L0.409587 3.97162C0.278731 3.70961 0.0170197 3.3821 0.0170197 2.85808C-0.0484081 2.39956 0.0824474 2.00655 0.278731 1.61354C0.475015 1.22052 0.802154 0.893013 1.26015 0.762008C1.65272 0.5 2.11071 0.5 2.37242 0.5ZM6.69066 2.07205H2.37242C2.11071 2.07205 1.97986 2.07205 1.91443 2.13755C1.78357 2.20306 1.71814 2.26856 1.65272 2.39956C1.58729 2.46507 1.58729 2.59607 1.58729 2.72707C1.58729 2.79258 1.65272 2.85808 1.78357 3.12009L6.69066 11.6354V2.07205ZM8.26093 2.07205V11.7009L13.2334 3.12009C13.2989 2.98908 13.2989 2.85808 13.2989 2.72707C13.2989 2.59607 13.2989 2.46507 13.2334 2.39956C13.168 2.33406 13.168 2.26856 13.1026 2.26856L13.0372 2.20306C12.9063 2.13755 12.7755 2.13755 12.5792 2.13755H8.26093V2.07205Z" fill="#171717"/>
</svg>
