<svg width="18" height="18" viewBox="0 0 18 18" fill="none" xmlns="http://www.w3.org/2000/svg">
<path d="M9.19239 4.56092C9.58291 4.17039 10.2161 4.1704 10.6066 4.56093L13.435 7.38938C13.8255 7.7799 13.8255 8.41306 13.435 8.80358L4.53553 17.7031C4.348 17.8906 4.09364 17.996 3.82843 17.996H1C0.447715 17.996 0 17.5483 0 16.996V14.1675C0 13.9023 0.105357 13.6479 0.292894 13.4604L9.19239 4.56092ZM12.0208 3.1467C11.6303 2.75618 11.6303 2.12302 12.0208 1.7325L13.435 0.318281C13.8256 -0.0722394 14.4587 -0.0722394 14.8492 0.318281L17.6777 3.14671C18.0682 3.53723 18.0682 4.1704 17.6777 4.56092L16.2634 5.97516C15.8729 6.36567 15.2397 6.36566 14.8492 5.97514L12.0208 3.1467Z" fill="white"/>
</svg>
