<svg width="32" height="32" viewBox="0 0 32 32" fill="none" xmlns="http://www.w3.org/2000/svg">
<path d="M0.00491178 1.82431C-0.102308 0.359601 1.56929 -0.540253 2.72499 0.360015L10.1238 6.12377C11.9052 5.32401 13.8433 4.86423 15.8704 4.86423C17.9596 4.86423 19.9544 5.35263 21.7806 6.1983L29.275 0.360015C30.4307 -0.540253 32.1023 0.359601 31.9951 1.82431L30.9476 16.1323C30.9409 16.2232 30.9275 16.3114 30.9079 16.3965C31.4257 17.8948 31.7059 19.4267 31.7059 20.9164C31.7059 28.4097 24.6161 32 15.8704 32C7.1247 32 0.0349126 28.4097 0.0349126 20.9164C0.0349126 19.2458 0.387294 17.5222 1.03185 15.8524L0.00491178 1.82431Z" fill="#686868"/>
</svg>
