<svg width="40" height="40" viewBox="0 0 40 40" fill="none" xmlns="http://www.w3.org/2000/svg">
<path d="M20.5501 5.27782L21.0015 5.49281L20.5501 5.27782C20.2825 5.8396 20.0418 6.46824 19.8357 7.0678C19.7418 7.34079 19.6532 7.61347 19.5707 7.87834C19.4871 7.61099 19.3973 7.33572 19.3023 7.0603C19.0953 6.46037 18.8544 5.83213 18.5882 5.27211C18.3394 4.74882 18.001 4.13698 17.554 3.69C15.7118 1.8478 12.7084 1.83159 10.861 3.6789C9.01388 5.52606 9.02979 8.52951 10.8721 10.3719C11.2091 10.7089 11.6373 10.9844 12.0526 11.2069H5.16391C3.63146 11.2069 2.38916 12.4492 2.38916 13.9817V19.7999C2.38916 21.3323 3.63146 22.5746 5.16391 22.5746H5.29825V34.9271C5.29825 36.4596 6.54055 37.7019 8.073 37.7019H31.9275C33.46 37.7019 34.7023 36.4596 34.7023 34.9271V22.5746H34.8366C36.3691 22.5746 37.6114 21.3323 37.6114 19.7999V13.9817C37.6114 12.4492 36.3691 11.2069 34.8366 11.2069H27.0866C27.5031 10.985 27.9348 10.7094 28.2724 10.3718C30.1146 8.52957 30.1308 5.52612 28.2835 3.67882C26.4363 1.83165 23.4329 1.84757 21.5905 3.68992C21.1411 4.13938 20.8009 4.75106 20.5501 5.27782Z" fill="#0B1628" stroke="#FFA521" stroke-linecap="round" stroke-linejoin="round"/>
</svg>
