<svg width="42" height="42" viewBox="0 0 42 42" fill="none" xmlns="http://www.w3.org/2000/svg">
<path d="M20.6472 5.84786L22.0015 6.49281L20.6472 5.84786C20.6213 5.90224 20.5957 5.95709 20.5704 6.01233C20.5443 5.95535 20.5179 5.89879 20.4913 5.84274C20.2311 5.29549 19.8335 4.55529 19.2611 3.98289C17.032 1.75381 13.3954 1.73032 11.1539 3.97179C9.18561 5.94012 8.96372 8.98462 10.4488 11.2069H6.16391C4.07917 11.2069 2.38916 12.8969 2.38916 14.9817V20.7999C2.38916 22.5867 3.63073 24.0836 5.29825 24.4749V35.9271C5.29825 38.0119 6.98827 39.7019 9.073 39.7019H32.9275C35.0123 39.7019 36.7023 38.0119 36.7023 35.9271V24.4749C38.3698 24.0836 39.6114 22.5867 39.6114 20.7999V14.9817C39.6114 12.8969 37.9214 11.2069 35.8366 11.2069H30.6956C32.1807 8.98474 31.9591 5.9402 29.9906 3.97171C27.7493 1.73042 24.1127 1.75354 21.8834 3.98281C21.3095 4.55676 20.9103 5.29549 20.6472 5.84786Z" fill="#FFA521" stroke="#0B1628" stroke-width="3" stroke-linecap="round" stroke-linejoin="round"/>
</svg>
