<svg width="44" height="44" viewBox="0 0 44 44" fill="none" xmlns="http://www.w3.org/2000/svg">
<path fill-rule="evenodd" clip-rule="evenodd" d="M21.6642 4.4615C20.6854 3.78366 19.3852 3.78367 18.4064 4.4615C15.4561 6.50461 10.2742 9.3894 5.62683 9.97003C4.33098 10.1319 3.08473 11.1697 3.10573 12.6867C3.21086 20.2824 6.3613 34.1534 18.9351 40.0879C19.6293 40.4156 20.4413 40.4156 21.1356 40.0879C22.4113 39.4858 23.5901 38.8019 24.6785 38.0512C24.1892 37.6246 23.8321 37.1324 23.5953 36.6087C22.6007 37.2912 21.5265 37.9126 20.3671 38.4597C20.1594 38.5578 19.9112 38.5578 19.7035 38.4597C8.06945 32.9688 5.00767 20.0105 4.90596 12.6618C4.90048 12.2657 5.24735 11.8318 5.85003 11.7565C10.9362 11.1211 16.4103 8.03374 19.4314 5.94164C19.7936 5.69082 20.277 5.69082 20.6392 5.94164C23.6603 8.03374 29.1345 11.1211 34.2206 11.7565C34.8233 11.8318 35.1702 12.2657 35.1647 12.6618C35.1336 14.9063 34.8264 17.6742 34.0831 20.5928L35.9348 20.5928C36.6438 17.6582 36.9342 14.9049 36.9649 12.6867C36.9859 11.1697 35.7396 10.1319 34.4438 9.97003C29.7965 9.3894 24.6145 6.50461 21.6642 4.4615Z" fill="white"/>
<path d="M27.4702 34.2474C26.8774 34.2474 26.6139 34.9927 27.0751 35.3652L34.2555 41.1658C34.486 41.3519 34.8152 41.3519 35.0456 41.1658L42.226 35.3652C42.6872 34.9927 42.4238 34.2474 41.831 34.2474L39.1189 34.2474C38.7717 34.2474 38.4902 33.9659 38.4902 33.6187L38.4902 24.824C38.4902 24.4768 38.2087 24.1953 37.8615 24.1953L31.4396 24.1953C31.0924 24.1953 30.8109 24.4768 30.8109 24.824L30.8109 33.6187C30.8109 33.9659 30.5294 34.2474 30.1822 34.2474L27.4702 34.2474Z" fill="white"/>
<rect x="15.165" y="20.8916" width="9.74505" height="7.2302" rx="1.10025" fill="white" stroke="white" stroke-width="0.314356"/>
<rect x="18.1072" y="16.9236" width="4.17237" height="7.63029" rx="2.08618" stroke="white" stroke-width="1.8004"/>
</svg>
