<svg width="61" height="60" viewBox="0 0 61 60" fill="none" xmlns="http://www.w3.org/2000/svg">
<path d="M59.5957 37.2571C55.589 53.3287 39.3111 63.1096 23.2376 59.1018C7.17083 55.0951 -2.61002 38.8162 1.39846 22.7459C5.40341 6.67257 21.6813 -3.10901 37.7498 0.897703C53.8222 4.90442 63.6024 21.1851 59.5953 37.2574L59.5956 37.2571H59.5957Z" fill="#F3BA2F"/>
<path fill-rule="evenodd" clip-rule="evenodd" d="M30.5009 19.04L22.7326 26.8083L22.7327 26.808L18.2129 22.288L30.5009 10L42.7929 22.2917L38.2729 26.8117L30.5009 19.04ZM15.0202 25.4795L10.5 30.0003L15.0198 34.5195L19.54 29.9993L15.0202 25.4795ZM22.7312 33.1922L30.4995 40.96L38.2713 33.1885L42.7937 37.7061L42.7915 37.7085L30.4995 50L18.2115 37.712L18.2051 37.7056L22.7312 33.1922ZM45.9811 25.4814L41.4609 30.0016L45.9809 34.5214L50.5009 30.0013L45.9811 25.4814Z" fill="white"/>
<path d="M35.0834 29.9967H35.0854L30.4991 25.4102L27.1092 28.7991L26.7198 29.1887L25.9166 29.9921L25.9102 29.9983L25.9166 30.0049L30.4991 34.5881L35.0857 30.0015L35.0879 29.999L35.0838 29.9967" fill="white"/>
</svg>
