<svg width="44" height="44" viewBox="0 0 44 44" fill="none" xmlns="http://www.w3.org/2000/svg">
<path d="M22.9357 4.40394C22.219 3.38002 20.7025 3.38002 19.9858 4.40394L8.32038 21.0688C7.88644 21.6888 7.88644 22.5138 8.32038 23.1338L19.9858 39.7987C20.7025 40.8226 22.219 40.8226 22.9357 39.7987L34.6011 23.1338C35.0351 22.5138 35.0351 21.6888 34.6011 21.0688L22.9357 4.40394Z" stroke="white" stroke-width="1.8004"/>
<path d="M22.8667 13.9566C22.146 13.0556 20.7757 13.0556 20.055 13.9566L14.4388 20.9767C13.9128 21.6343 13.9128 22.5686 14.4388 23.2261L20.055 30.2463C20.7757 31.1472 22.146 31.1472 22.8667 30.2463L28.4828 23.2261C29.0089 22.5686 29.0089 21.6343 28.4828 20.9767L22.8667 13.9566Z" stroke="white" stroke-width="1.8004"/>
<path d="M21.4609 14.1756L21.4609 4.27344" stroke="white" stroke-width="1.8004"/>
<path d="M29.3829 22.1016L35.3242 22.1016" stroke="white" stroke-width="1.8004"/>
<path d="M7.59774 22.1016L13.5391 22.1016" stroke="white" stroke-width="1.8004"/>
<path d="M21.4609 39.9217L21.4609 30.0195" stroke="white" stroke-width="1.8004"/>
</svg>
