<svg width="44" height="44" viewBox="0 0 44 44" fill="none" xmlns="http://www.w3.org/2000/svg">
<path d="M34.2109 28.5774L25.641 28.5774L25.641 24.2924L34.2109 24.2924L34.2109 28.5774Z" stroke="white" stroke-width="1.8004"/>
<path d="M17.0711 28.5774L8.50119 28.5774L8.50119 24.2924L17.0711 24.2924L17.0711 28.5774Z" stroke="white" stroke-width="1.8004"/>
<path d="M34.2109 21.4358L25.641 21.4358L25.641 17.1508C25.641 14.7843 23.7226 12.8658 21.3561 12.8658C18.9895 12.8658 17.0711 14.7843 17.0711 17.1508L17.0711 21.4358L8.50119 21.4358L8.50119 17.1508C8.50119 10.0513 14.2565 4.29593 21.3561 4.29593C28.4556 4.29593 34.2109 10.0513 34.2109 17.1508L34.2109 21.4358Z" stroke="white" stroke-width="1.8004"/>
<path d="M21.3561 40.0039L21.3561 36.1085L17.0711 36.1085L19.2136 32.6026L21.3561 29.0967L21.3561 32.9922L25.641 32.9922L21.3561 40.0039Z" stroke="white" stroke-width="1.8004"/>
<path d="M21.3518 40.0039L21.3518 36.1085L17.0668 36.1085L19.2093 32.6026L21.3518 29.0967L21.3518 32.9922L25.6367 32.9922L21.3518 40.0039Z" fill="white"/>
</svg>
