<svg width="44" height="44" viewBox="0 0 44 44" fill="none" xmlns="http://www.w3.org/2000/svg">
<path d="M7.59766 15.1914L12.9989 18.5672L18.4001 15.1914L23.8013 18.5672L18.4001 21.9429L22.0009 24.1934L36.4041 15.1914" stroke="white" stroke-width="1.8004" stroke-linecap="round" stroke-linejoin="round"/>
<path d="M12.9961 18.793V24.1942L18.3973 27.795V22.0223" stroke="white" stroke-width="1.8004" stroke-linecap="round" stroke-linejoin="round"/>
<path fill-rule="evenodd" clip-rule="evenodd" d="M22.4758 5.4298C22.1839 5.24736 21.8135 5.24736 21.5216 5.4298L7.11841 14.4318C6.85521 14.5963 6.69531 14.8848 6.69531 15.1952L6.69531 29.5984C6.69531 29.9088 6.85521 30.1973 7.11841 30.3618L21.5216 39.3638C21.8135 39.5462 22.1839 39.5462 22.4758 39.3638L25.9766 37.1758V35.0527L21.9987 37.5388L8.49571 29.0995L8.49571 15.6941L21.9987 7.25473L35.5017 15.6941V21.1463C35.7005 21.259 35.8923 21.3891 36.0749 21.5366L37.3022 22.528V15.1952C37.3022 14.8848 37.1423 14.5963 36.8791 14.4318L22.4758 5.4298Z" fill="white"/>
<path d="M26.2358 31.2526C25.643 31.2526 25.3796 30.5073 25.8407 30.1348L33.0211 24.3342C33.2516 24.1481 33.5808 24.1481 33.8113 24.3342L40.9917 30.1348C41.4528 30.5073 41.1894 31.2526 40.5966 31.2526H37.8845C37.5373 31.2526 37.2558 31.5341 37.2558 31.8813V40.676C37.2558 41.0232 36.9743 41.3047 36.6271 41.3047H30.2053C29.858 41.3047 29.5765 41.0232 29.5765 40.676V31.8813C29.5765 31.5341 29.2951 31.2526 28.9478 31.2526H26.2358Z" fill="white"/>
</svg>
