<svg width="44" height="44" viewBox="0 0 44 44" fill="none" xmlns="http://www.w3.org/2000/svg">
<path d="M17.9493 15.3477L17.9493 28.8507M26.0512 15.3477L26.0512 28.8507M13.8984 22.0992L30.1021 22.0992" stroke="white" stroke-width="1.8004" stroke-linecap="round"/>
<path fill-rule="evenodd" clip-rule="evenodd" d="M28.9905 36.724C26.8741 37.7376 24.5034 38.3053 22.0001 38.3053C13.0511 38.3053 5.7965 31.0507 5.7965 22.1017C5.7965 13.1527 13.0511 5.89806 22.0001 5.89806C30.9491 5.89806 38.2037 13.1527 38.2037 22.1017C38.2037 23.3922 38.0529 24.6476 37.7678 25.851C38.1238 25.9712 38.4722 26.125 38.8085 26.3176C39.0178 26.4362 39.2185 26.5658 39.41 26.7062C39.7976 25.2365 40.0041 23.6932 40.0041 22.1017C40.0041 12.1583 31.9435 4.09766 22.0001 4.09766C12.0568 4.09766 3.99609 12.1583 3.99609 22.1017C3.99609 32.045 12.0568 40.1057 22.0001 40.1057C24.4792 40.1057 26.8413 39.6046 28.9905 38.6983L28.9905 36.724Z" fill="white"/>
<path fill-rule="evenodd" clip-rule="evenodd" d="M33.2741 27.5039C32.0182 27.5039 31 28.5221 31 29.778L31 39.5137C31 40.2795 31.6208 40.9003 32.3865 40.9003C33.1523 40.9003 33.7731 40.2795 33.7731 39.5137L33.7731 36.4306L35.6432 36.4306L35.72 36.4302L37.5368 40.2021C37.8774 40.9093 38.7269 41.2064 39.4341 40.8658C40.1413 40.5251 40.4384 39.6757 40.0978 38.9685L38.4862 35.6226C39.0123 35.2506 39.431 34.7752 39.7287 34.1998L39.7297 34.198C40.0796 33.5171 40.2464 32.7666 40.2464 31.9644C40.2464 31.1613 40.0772 30.4109 39.7218 29.7323C39.3606 29.0355 38.8205 28.488 38.1262 28.0953C37.4091 27.6836 36.5607 27.5039 35.626 27.5039L33.2741 27.5039ZM35.6146 33.766L33.7731 33.766L33.7731 30.737C33.7731 30.423 34.0276 30.1685 34.3416 30.1685L35.5975 30.1685C36.1184 30.1685 36.4742 30.2652 36.7135 30.4007L36.7159 30.402C36.9804 30.5503 37.1588 30.7411 37.2769 30.9795L37.2794 30.9844C37.413 31.2492 37.4904 31.5692 37.4904 31.9644C37.4904 32.3593 37.4126 32.6804 37.2789 32.9454L37.2765 32.9502C37.1572 33.1911 36.9786 33.3839 36.7161 33.5356C36.4756 33.671 36.1241 33.766 35.6146 33.766Z" fill="white"/>
</svg>
