<svg width="25" height="24" viewBox="0 0 25 24" fill="none" xmlns="http://www.w3.org/2000/svg">
<path d="M13 2.5C13.2761 2.5 13.5 2.27614 13.5 2C13.5 1.72386 13.2761 1.5 13 1.5V2.5ZM16.4055 2.13862C16.1344 2.19079 15.9568 2.45292 16.009 2.72409L16.8593 7.14302C16.9115 7.41419 17.1736 7.59171 17.4448 7.53953C17.716 7.48735 17.8935 7.22523 17.8413 6.95406L17.0855 3.02612L21.0134 2.27029C21.2846 2.21811 21.4621 1.95599 21.4099 1.68482C21.3577 1.41365 21.0956 1.23612 20.8245 1.2883L16.4055 2.13862ZM22.5 12C22.5 17.2467 18.2467 21.5 13 21.5V22.5C18.799 22.5 23.5 17.799 23.5 12H22.5ZM13 21.5C7.75329 21.5 3.5 17.2467 3.5 12H2.5C2.5 17.799 7.20101 22.5 13 22.5V21.5ZM3.5 12C3.5 6.75329 7.75329 2.5 13 2.5V1.5C7.20101 1.5 2.5 6.20101 2.5 12H3.5ZM16.2196 3.0436C19.7121 5.4089 22.5 7.98585 22.5 12H23.5C23.5 7.4311 20.2879 4.5911 16.7804 2.21562L16.2196 3.0436Z" fill="white"/>
<path d="M12.7128 7.95107C12.7987 7.6667 13.2013 7.6667 13.2872 7.95107L14.1132 10.6864C14.1422 10.7825 14.2175 10.8578 14.3136 10.8868L17.0489 11.7128C17.3333 11.7987 17.3333 12.2013 17.0489 12.2872L14.3136 13.1132C14.2175 13.1422 14.1422 13.2175 14.1132 13.3136L13.2872 16.0489C13.2013 16.3333 12.7987 16.3333 12.7128 16.0489L11.8868 13.3136C11.8578 13.2175 11.7825 13.1422 11.6864 13.1132L8.95107 12.2872C8.6667 12.2013 8.6667 11.7987 8.95107 11.7128L11.6864 10.8868C11.7825 10.8578 11.8578 10.7825 11.8868 10.6864L12.7128 7.95107Z" fill="white"/>
</svg>
