<svg width="25" height="24" viewBox="0 0 25 24" fill="none" xmlns="http://www.w3.org/2000/svg">
<circle cx="12.5" cy="12" r="9.5" stroke="white"/>
<path fill-rule="evenodd" clip-rule="evenodd" d="M13.5156 12.9523V12.9523C13.4588 12.9565 13.1652 12.974 12.5103 12.974C11.9895 12.974 11.6197 12.9584 11.4899 12.9523V12.9523C9.47705 12.8637 7.97461 12.5133 7.97461 12.0938C7.97461 11.6743 9.47705 11.3243 11.4899 11.2344V12.6033C11.6216 12.6128 11.9985 12.635 12.5193 12.635C13.1444 12.635 13.4574 12.609 13.5137 12.6038V11.2353C15.5223 11.3248 17.0214 11.6752 17.0214 12.0938C17.0214 12.5124 15.5228 12.8628 13.5137 12.9518V12.9518L13.5156 12.9523ZM13.5173 11.0929V9.86799H16.3205V8H8.6885V9.86799H11.4912L11.4912 11.0925C9.21315 11.1971 7.5 11.6484 7.5 12.1891C7.5 12.7299 9.21315 13.1806 11.4912 13.2858V17.2111H13.5169V13.2843C15.7897 13.1797 17.5 12.7289 17.5 12.1886C17.5 11.6484 15.7911 11.1976 13.5169 11.0925V11.0925L13.5173 11.0929Z" fill="white"/>
</svg>
