<svg width="26" height="26" viewBox="0 0 26 26" fill="none" xmlns="http://www.w3.org/2000/svg">
<path d="M7.71397 12.2962C7.21486 12.6365 6.42415 13.1543 5.62745 13.5907C4.85476 14.0144 4.0754 14.362 3.55227 14.3954C3.52424 14.398 3.49689 14.3987 3.4702 14.3987C2.10565 14.3987 1 13.2931 1 11.9292C1 10.5653 2.10565 9.45898 3.4702 9.45898C3.49689 9.45898 3.52424 9.45965 3.55227 9.46232C4.0754 9.49568 4.85476 9.84333 5.62745 10.2677C6.42415 10.7041 7.21486 11.2212 7.71397 11.5615C7.97286 11.7383 7.97286 12.12 7.71397 12.2962Z" stroke="white"/>
<path d="M13.349 10.0116C12.8479 10.2171 12.4455 10.6135 12.2313 11.1106L6.17261 8.50295C7.0674 6.42577 8.75157 4.7683 10.8474 3.9082L13.349 10.0116Z" stroke="white"/>
<path d="M9.2333 19.078L8.71951 21.3507C6.14855 19.8694 4.24153 17.3665 3.55225 14.3965C4.07538 14.3631 4.85474 14.0155 5.62742 13.5918C5.73619 14.151 5.899 14.6914 6.10919 15.2066C6.75376 16.7826 7.84806 18.1265 9.2333 19.078Z" stroke="white"/>
<path d="M25 11.9294C25 15.9577 22.8074 19.4742 19.5511 21.3498L19.0373 19.0771C20.3785 18.1563 21.4468 16.8672 22.0981 15.3558C22.5511 14.3049 22.802 13.1465 22.802 11.9294C22.802 10.7124 22.5745 9.66343 22.1615 8.65253C21.3114 6.57268 19.6759 4.89653 17.6241 3.99306C16.5565 3.52331 15.3768 3.26241 14.1357 3.26241C12.972 3.26241 11.8616 3.49194 10.8474 3.90765C8.75153 4.76775 7.06737 6.42522 6.17257 8.5024C5.93103 9.0629 5.74686 9.65409 5.62742 10.268C4.85474 9.84359 4.07538 9.49595 3.55225 9.46259C4.66857 4.65031 8.98307 1.06445 14.1357 1.06445C20.1357 1.06445 25 5.92878 25 11.9294Z" stroke="white"/>
<path d="M12.0632 11.929C12.0632 12.2059 12.1172 12.4701 12.216 12.7124L6.1092 15.2052C5.89902 14.6901 5.7362 14.1496 5.62744 13.5905C6.42415 13.1541 7.21485 12.6363 7.71396 12.296C7.97286 12.1198 7.97286 11.7382 7.71396 11.5613C7.21485 11.221 6.42415 10.7039 5.62744 10.2675C5.74688 9.65364 5.93104 9.06245 6.17259 8.50195L12.2313 11.1096C12.1232 11.3605 12.0632 11.6381 12.0632 11.929Z" stroke="white"/>
<path d="M13.3009 13.8272L10.782 19.5563L10.6465 19.8652C10.1494 19.6457 9.6763 19.3815 9.23324 19.0772C7.84801 18.1257 6.7537 16.7818 6.10913 15.2058L12.2159 12.7129C12.4194 13.21 12.8104 13.611 13.3009 13.8272Z" stroke="white"/>
<path d="M22.098 15.355C21.4468 16.8664 20.3785 18.1555 19.0373 19.0763C18.5348 19.422 17.9944 19.7149 17.4232 19.9498L17.2871 19.6182L14.9216 13.8464C15.4227 13.6415 15.8251 13.2445 16.0393 12.748L22.098 15.355Z" stroke="white"/>
<path d="M22.802 11.9293C22.802 13.1463 22.5511 14.3047 22.098 15.3556L16.0393 12.7487C16.1474 12.4971 16.2075 12.2202 16.2075 11.9293C16.2075 11.6383 16.1527 11.3874 16.054 11.1459L22.1614 8.65234C22.5745 9.66324 22.802 10.7696 22.802 11.9293Z" stroke="white"/>
<path d="M22.1615 8.65166L16.054 11.1445C15.8512 10.6474 15.4602 10.2464 14.9697 10.0309L17.6241 3.99219C19.6759 4.89566 21.3114 6.57181 22.1615 8.65166Z" stroke="white"/>
<path d="M17.6241 3.99237L14.9697 10.0311C14.7142 9.9183 14.4319 9.85625 14.1357 9.85625C13.8574 9.85625 13.5919 9.91096 13.349 10.0104L10.8474 3.90696C11.8616 3.49126 12.972 3.26172 14.1357 3.26172C15.3768 3.26172 16.5565 3.52262 17.6241 3.99237Z" stroke="white"/>
<path d="M17.5975 24.936V22.7928H10.6733V24.936H8.24222C8.07106 24.936 7.94413 24.7772 7.98189 24.6103L8.71959 21.3489L9.23338 19.0762C9.67644 19.3804 10.1495 19.6447 10.6466 19.8642C11.7143 20.334 12.8946 20.5949 14.1357 20.5949C15.2994 20.5949 16.4098 20.3653 17.4233 19.9496C17.9945 19.7147 18.535 19.4218 19.0374 19.0762L19.5512 21.3489L20.2889 24.6103C20.3267 24.7772 20.1998 24.936 20.0286 24.936H17.5975Z" stroke="white"/>
<path d="M17.5975 22.793H10.6733V24.9362H17.5975V22.793Z" stroke="white"/>
<path d="M17.5975 22.793H10.6733V24.9362H17.5975V22.793Z" fill="white" stroke="white"/>
<path d="M17.4232 19.9496C16.4096 20.3653 15.2993 20.5949 14.1356 20.5949C12.8945 20.5949 11.7141 20.334 10.6465 19.8642L10.7819 19.5553L13.3008 13.8262C13.5564 13.9383 13.8387 14.001 14.1356 14.001C14.4138 14.001 14.6787 13.9463 14.9216 13.8462L17.2871 19.618L17.4232 19.9496Z" stroke="white"/>
<path d="M16.2076 11.9299C16.2076 12.2209 16.1475 12.4978 16.0394 12.7493C15.8252 13.2458 15.4229 13.6428 14.9218 13.8476C14.6789 13.9477 14.414 14.0024 14.1357 14.0024C13.8388 14.0024 13.5566 13.9397 13.301 13.8276C12.8106 13.6114 12.4195 13.2104 12.216 12.7133C12.1173 12.4711 12.0632 12.2068 12.0632 11.9299C12.0632 11.639 12.1233 11.3614 12.2314 11.1105C12.4456 10.6134 12.8479 10.2171 13.349 10.0116C13.5919 9.91214 13.8575 9.85742 14.1357 9.85742C14.432 9.85742 14.7143 9.91948 14.9698 10.0322C15.4603 10.2478 15.8513 10.6488 16.0541 11.1459C16.1529 11.3881 16.2076 11.6524 16.2076 11.9299Z" fill="white" stroke="white"/>
</svg>
