<svg width="32" height="44" viewBox="0 0 32 44" fill="none" xmlns="http://www.w3.org/2000/svg">
<path d="M7 20.5554C7 18.85 5.657 17.4677 4 17.4677C2.343 17.4677 1 18.85 1 20.5554V27.76C1 36.2862 7.716 43.1985 16 43.1985C24.284 43.1985 31 36.2862 31 27.76V20.5554C31 18.85 29.657 17.4677 28 17.4677C26.343 17.4677 25 18.85 25 20.5554V18.4969C25 16.7915 23.657 15.4092 22 15.4092C20.343 15.4092 19 16.7915 19 18.4969V16.4385C19 14.733 17.657 13.3508 16 13.3508C14.343 13.3508 13 14.733 13 16.4385V4.08769C13 2.38226 11.657 1 10 1C8.343 1 7 2.38226 7 4.08769V26.7308V20.5554Z" fill="white"/>
<path d="M7 20.5554C7 18.85 5.657 17.4677 4 17.4677C2.343 17.4677 1 18.85 1 20.5554V27.76C1 36.2862 7.716 43.1985 16 43.1985C24.284 43.1985 31 36.2862 31 27.76V20.5554C31 18.85 29.657 17.4677 28 17.4677C26.343 17.4677 25 18.85 25 20.5554V18.4969C25 16.7915 23.657 15.4092 22 15.4092C20.343 15.4092 19 16.7915 19 18.4969V16.4385C19 14.733 17.657 13.3508 16 13.3508C14.343 13.3508 13 14.733 13 16.4385V4.08769C13 2.38226 11.657 1 10 1C8.343 1 7 2.38226 7 4.08769V26.7308V20.5554Z" stroke="black" stroke-miterlimit="10" stroke-linecap="round" stroke-linejoin="round"/>
</svg>
